<svg width="127" height="30" viewBox="0 0 127 30" fill="none" xmlns="http://www.w3.org/2000/svg">
<path d="M49.0986 7.80363C49.3542 7.93895 49.497 8.14193 49.5271 8.41258C49.5722 8.68322 49.5045 8.93131 49.3241 9.15685C49.1888 9.35232 49.0159 9.45757 48.8054 9.4726C48.5949 9.48764 48.3844 9.44253 48.1739 9.33728C47.6777 9.03656 47.1439 8.80351 46.5726 8.63812C46.0012 8.45769 45.3998 8.36747 44.7683 8.36747C43.8812 8.36747 43.0692 8.52535 42.3325 8.8411C41.5957 9.14182 40.9567 9.57033 40.4154 10.1267C39.8741 10.683 39.4531 11.3446 39.1524 12.1114C38.8517 12.8782 38.7013 13.7277 38.7013 14.6599C38.7013 15.6523 38.8592 16.5394 39.175 17.3213C39.4907 18.1031 39.9192 18.7722 40.4605 19.3286C41.0168 19.8698 41.6559 20.2833 42.3776 20.569C43.1143 20.8547 43.9112 20.9975 44.7683 20.9975C45.3847 20.9975 45.9787 20.9148 46.55 20.7494C47.1214 20.584 47.6627 20.3435 48.1739 20.0277C48.3844 19.9225 48.5949 19.8849 48.8054 19.915C49.0159 19.945 49.1963 20.0503 49.3467 20.2307C49.5271 20.4713 49.5948 20.7269 49.5497 20.9975C49.5045 21.2531 49.3617 21.4411 49.1211 21.5614C48.7452 21.7869 48.3167 21.9974 47.8356 22.1929C47.3544 22.3733 46.8507 22.5161 46.3245 22.6214C45.8133 22.7266 45.2945 22.7793 44.7683 22.7793C43.6857 22.7793 42.6633 22.5913 41.701 22.2154C40.7387 21.8395 39.8892 21.2982 39.1524 20.5916C38.4157 19.8849 37.8293 19.0354 37.3932 18.043C36.9722 17.0356 36.7617 15.9079 36.7617 14.6599C36.7617 13.4872 36.9647 12.4121 37.3707 11.4348C37.7766 10.4574 38.3405 9.60792 39.0622 8.88621C39.7989 8.16449 40.6485 7.60065 41.6108 7.19468C42.5881 6.78871 43.6406 6.58573 44.7683 6.58573C45.5501 6.58573 46.3094 6.69098 47.0462 6.90148C47.798 7.11198 48.4821 7.4127 49.0986 7.80363Z" fill="white"/>
<path d="M64.1539 16.6898C64.1539 17.8626 63.8907 18.9076 63.3645 19.8247C62.8533 20.7419 62.1541 21.4636 61.267 21.9899C60.3949 22.5161 59.4101 22.7793 58.3125 22.7793C57.2149 22.7793 56.2225 22.5161 55.3354 21.9899C54.4483 21.4636 53.7416 20.7419 53.2153 19.8247C52.7041 18.9076 52.4485 17.8626 52.4485 16.6898C52.4485 15.517 52.7041 14.472 53.2153 13.5548C53.7416 12.6376 54.4483 11.9159 55.3354 11.3897C56.2225 10.8634 57.2149 10.6003 58.3125 10.6003C59.4101 10.6003 60.3949 10.8634 61.267 11.3897C62.1541 11.9159 62.8533 12.6376 63.3645 13.5548C63.8907 14.472 64.1539 15.517 64.1539 16.6898ZM62.3496 16.6898C62.3496 15.8177 62.1691 15.0509 61.8083 14.3893C61.4625 13.7277 60.9813 13.209 60.3648 12.8331C59.7634 12.4572 59.0793 12.2693 58.3125 12.2693C57.5456 12.2693 56.854 12.4572 56.2375 12.8331C55.6361 13.209 55.1549 13.7277 54.7941 14.3893C54.4332 15.0509 54.2528 15.8177 54.2528 16.6898C54.2528 17.5468 54.4332 18.3061 54.7941 18.9677C55.1549 19.6293 55.6361 20.1555 56.2375 20.5465C56.854 20.9224 57.5456 21.1103 58.3125 21.1103C59.0793 21.1103 59.7634 20.9224 60.3648 20.5465C60.9813 20.1555 61.4625 19.6293 61.8083 18.9677C62.1691 18.3061 62.3496 17.5468 62.3496 16.6898Z" fill="white"/>
<path d="M73.7917 10.6003C74.8141 10.6003 75.6185 10.8108 76.2049 11.2318C76.7913 11.6528 77.2048 12.2166 77.4454 12.9233C77.701 13.63 77.8288 14.4194 77.8288 15.2915V21.629C77.8288 21.8846 77.7386 22.1027 77.5581 22.2831C77.3928 22.4635 77.1823 22.5537 76.9266 22.5537C76.671 22.5537 76.453 22.4635 76.2726 22.2831C76.1072 22.1027 76.0245 21.8846 76.0245 21.629V15.3366C76.0245 14.7652 75.9343 14.254 75.7539 13.8029C75.5885 13.3368 75.3028 12.9684 74.8968 12.6978C74.5059 12.4121 73.9646 12.2693 73.2729 12.2693C72.6414 12.2693 72.0626 12.4121 71.5363 12.6978C71.0101 12.9684 70.5891 13.3368 70.2733 13.8029C69.9576 14.254 69.7997 14.7652 69.7997 15.3366V21.629C69.7997 21.8846 69.7095 22.1027 69.529 22.2831C69.3636 22.4635 69.1531 22.5537 68.8975 22.5537C68.6419 22.5537 68.4239 22.4635 68.2435 22.2831C68.0781 22.1027 67.9954 21.8846 67.9954 21.629V11.7956C67.9954 11.54 68.0781 11.3295 68.2435 11.1641C68.4239 10.9837 68.6419 10.8935 68.8975 10.8935C69.1682 10.8935 69.3862 10.9837 69.5516 11.1641C69.717 11.3295 69.7997 11.54 69.7997 11.7956V13.3969L69.3486 13.8931C69.4238 13.5022 69.5967 13.1113 69.8673 12.7203C70.138 12.3144 70.4763 11.9535 70.8823 11.6378C71.2882 11.322 71.7393 11.0739 72.2355 10.8935C72.7317 10.698 73.2504 10.6003 73.7917 10.6003Z" fill="white"/>
<path d="M81.64 20.7043C81.5047 20.5089 81.4445 20.3059 81.4596 20.0954C81.4746 19.8698 81.6024 19.6744 81.843 19.509C81.9934 19.4037 82.1663 19.3586 82.3617 19.3737C82.5722 19.3887 82.7602 19.4864 82.9256 19.6669C83.3466 20.163 83.8277 20.5615 84.369 20.8622C84.9103 21.1479 85.5719 21.2907 86.3537 21.2907C86.7146 21.2757 87.0754 21.2156 87.4363 21.1103C87.7972 21.0051 88.0979 20.8246 88.3385 20.569C88.5941 20.2984 88.7219 19.945 88.7219 19.509C88.7219 19.088 88.5941 18.7572 88.3385 18.5166C88.0828 18.261 87.7521 18.058 87.3461 17.9077C86.9401 17.7423 86.4966 17.5994 86.0154 17.4792C85.5192 17.3438 85.0306 17.1935 84.5494 17.0281C84.0683 16.8477 83.6323 16.6296 83.2413 16.374C82.8654 16.1034 82.5572 15.7726 82.3166 15.3817C82.0911 14.9757 81.9783 14.487 81.9783 13.9157C81.9783 13.2391 82.1587 12.6527 82.5196 12.1565C82.8955 11.6603 83.3917 11.2769 84.0081 11.0063C84.6397 10.7356 85.3238 10.6003 86.0605 10.6003C86.4815 10.6003 86.9176 10.6529 87.3686 10.7582C87.8348 10.8484 88.2858 11.0138 88.7219 11.2543C89.1579 11.4799 89.5413 11.7956 89.8721 12.2016C90.0074 12.352 90.0826 12.5399 90.0976 12.7654C90.1127 12.991 90.0149 13.194 89.8044 13.3744C89.639 13.4947 89.4511 13.5473 89.2406 13.5323C89.0451 13.5172 88.8797 13.442 88.7444 13.3067C88.4287 12.9308 88.0302 12.6452 87.5491 12.4497C87.083 12.2392 86.5642 12.1339 85.9929 12.1339C85.632 12.1339 85.2787 12.1866 84.9328 12.2918C84.587 12.3971 84.2938 12.5775 84.0533 12.8331C83.8277 13.0737 83.715 13.412 83.715 13.848C83.73 14.254 83.8653 14.5848 84.1209 14.8404C84.3765 15.096 84.7223 15.3065 85.1584 15.4719C85.5944 15.6222 86.0756 15.7726 86.6018 15.923C87.083 16.0432 87.5416 16.1861 87.9776 16.3515C88.4287 16.5018 88.8346 16.7048 89.1955 16.9604C89.5564 17.216 89.842 17.5468 90.0525 17.9528C90.263 18.3437 90.3683 18.8399 90.3683 19.4413C90.3683 20.133 90.1728 20.7344 89.7819 21.2456C89.391 21.7418 88.8722 22.1252 88.2257 22.3959C87.5942 22.6515 86.9101 22.7793 86.1733 22.7793C85.3463 22.7793 84.5269 22.6214 83.715 22.3056C82.9181 21.9899 82.2264 21.4561 81.64 20.7043Z" fill="white"/>
<path d="M105.178 16.6898C105.178 17.8626 104.915 18.9076 104.388 19.8247C103.877 20.7419 103.178 21.4636 102.291 21.9899C101.419 22.5161 100.434 22.7793 99.3364 22.7793C98.2388 22.7793 97.2464 22.5161 96.3593 21.9899C95.4722 21.4636 94.7655 20.7419 94.2392 19.8247C93.728 18.9076 93.4724 17.8626 93.4724 16.6898C93.4724 15.517 93.728 14.472 94.2392 13.5548C94.7655 12.6376 95.4722 11.9159 96.3593 11.3897C97.2464 10.8634 98.2388 10.6003 99.3364 10.6003C100.434 10.6003 101.419 10.8634 102.291 11.3897C103.178 11.9159 103.877 12.6376 104.388 13.5548C104.915 14.472 105.178 15.517 105.178 16.6898ZM103.373 16.6898C103.373 15.8177 103.193 15.0509 102.832 14.3893C102.486 13.7277 102.005 13.209 101.389 12.8331C100.787 12.4572 100.103 12.2693 99.3364 12.2693C98.5695 12.2693 97.8779 12.4572 97.2614 12.8331C96.66 13.209 96.1789 13.7277 95.818 14.3893C95.4571 15.0509 95.2767 15.8177 95.2767 16.6898C95.2767 17.5468 95.4571 18.3061 95.818 18.9677C96.1789 19.6293 96.66 20.1555 97.2614 20.5465C97.8779 20.9224 98.5695 21.1103 99.3364 21.1103C100.103 21.1103 100.787 20.9224 101.389 20.5465C102.005 20.1555 102.486 19.6293 102.832 18.9677C103.193 18.3061 103.373 17.5468 103.373 16.6898Z" fill="white"/>
<path d="M111.004 21.629C111.004 21.8846 110.914 22.1027 110.733 22.2831C110.553 22.4635 110.335 22.5537 110.079 22.5537C109.824 22.5537 109.613 22.4635 109.448 22.2831C109.282 22.1027 109.2 21.8846 109.2 21.629V6.76616C109.2 6.51055 109.282 6.30005 109.448 6.13466C109.628 5.95423 109.846 5.86401 110.102 5.86401C110.373 5.86401 110.591 5.95423 110.756 6.13466C110.921 6.30005 111.004 6.51055 111.004 6.76616V21.629Z" fill="white"/>
<path d="M125.239 10.7807C125.495 10.7807 125.705 10.8709 125.871 11.0514C126.051 11.2168 126.141 11.4273 126.141 11.6829V21.629C126.141 21.8846 126.051 22.1027 125.871 22.2831C125.705 22.4635 125.495 22.5537 125.239 22.5537C124.968 22.5537 124.75 22.4635 124.585 22.2831C124.42 22.1027 124.337 21.8846 124.337 21.629V19.4864L124.765 19.4413C124.765 19.7721 124.653 20.133 124.427 20.5239C124.202 20.9148 123.893 21.2832 123.502 21.629C123.112 21.9598 122.645 22.238 122.104 22.4635C121.578 22.674 121.007 22.7793 120.39 22.7793C119.368 22.7793 118.45 22.5161 117.639 21.9899C116.827 21.4486 116.18 20.7194 115.699 19.8022C115.233 18.885 115 17.84 115 16.6672C115 15.4794 115.233 14.4344 115.699 13.5323C116.18 12.6151 116.827 11.9009 117.639 11.3897C118.45 10.8634 119.353 10.6003 120.345 10.6003C120.991 10.6003 121.593 10.7055 122.149 10.916C122.706 11.1265 123.187 11.4122 123.593 11.7731C124.014 12.1339 124.337 12.5324 124.562 12.9684C124.803 13.4045 124.923 13.8405 124.923 14.2765L124.337 14.1412V11.6829C124.337 11.4273 124.42 11.2168 124.585 11.0514C124.75 10.8709 124.968 10.7807 125.239 10.7807ZM120.593 21.1103C121.345 21.1103 122.006 20.9148 122.578 20.5239C123.164 20.133 123.615 19.6067 123.931 18.9451C124.262 18.2685 124.427 17.5092 124.427 16.6672C124.427 15.8403 124.262 15.096 123.931 14.4344C123.615 13.7578 123.164 13.2315 122.578 12.8557C122.006 12.4647 121.345 12.2693 120.593 12.2693C119.856 12.2693 119.195 12.4572 118.608 12.8331C118.037 13.209 117.586 13.7277 117.255 14.3893C116.924 15.0509 116.759 15.8102 116.759 16.6672C116.759 17.5092 116.917 18.2685 117.233 18.9451C117.563 19.6067 118.014 20.133 118.586 20.5239C119.172 20.9148 119.841 21.1103 120.593 21.1103Z" fill="white"/>
<path d="M12.9363 25.4943L13.3339 23.6279C13.8471 23.7241 14.3677 23.7767 14.8899 23.7854V25.6947C14.234 25.6849 13.5803 25.6178 12.9363 25.4943ZM15.2212 23.7768C15.7631 23.7697 16.3031 23.7142 16.8349 23.6108L17.2441 25.48C16.5795 25.6106 15.9044 25.6805 15.227 25.689L15.2212 23.7768ZM10.7607 24.8359L11.5387 23.0898C12.0197 23.288 12.5172 23.4442 13.0255 23.5564L12.6279 25.4228C11.9893 25.2886 11.3644 25.097 10.7607 24.8502V24.8359ZM17.172 23.5564C17.6903 23.4365 18.1974 23.2728 18.6876 23.0669L19.4801 24.8016C18.8676 25.0653 18.2319 25.2723 17.5812 25.4199L17.172 23.5564ZM9.01166 23.9084L10.0894 22.3312C10.4523 22.565 10.8317 22.7726 11.2246 22.9524L10.4495 24.6957C9.94947 24.4719 9.46777 24.2096 9.00882 23.9113L9.01166 23.9084ZM18.97 22.9037C19.3548 22.7247 19.7265 22.519 20.0823 22.2882L21.1715 23.8598C20.7223 24.1526 20.2523 24.4129 19.7653 24.6384L18.97 22.9037ZM7.37213 22.6174L8.74373 21.2606C9.08157 21.5824 9.44381 21.8782 9.82716 22.1451L8.74373 23.7252C8.25706 23.3935 7.79833 23.023 7.37213 22.6174ZM20.356 22.1136C20.7176 21.8566 21.0604 21.5744 21.3818 21.2691L22.7419 22.6174C22.336 23.0049 21.9016 23.3618 21.4423 23.6852L20.356 22.1136ZM6.05527 21.0917L7.63722 20.0096C7.89979 20.3699 8.18873 20.7106 8.50168 21.0287L7.14448 22.377C6.75114 21.9772 6.38989 21.5474 6.06395 21.0917H6.05527ZM21.6238 21.0287C21.9504 20.6947 22.25 20.3358 22.52 19.9552L24.1106 21.023C23.7716 21.504 23.3939 21.9568 22.981 22.377L21.6238 21.0287ZM5.06408 19.4285L6.81314 18.6413C6.99647 19.0264 7.20632 19.3985 7.44128 19.7548L5.86223 20.8255C5.56516 20.379 5.30034 19.9122 5.06981 19.4285H5.06408ZM22.7131 19.6861C22.9507 19.3259 23.1617 18.949 23.3441 18.5583L25.1018 19.3283C24.8719 19.8245 24.6052 20.3029 24.3036 20.7596L22.7131 19.6861ZM4.28607 17.2415L6.1504 16.8351C6.27413 17.3518 6.44387 17.8566 6.65754 18.3436L4.91137 19.1308C4.63951 18.5224 4.42628 17.8898 4.27455 17.2415H4.28607ZM23.4709 18.2606C23.674 17.7817 23.8359 17.2866 23.955 16.7806L25.8452 17.1785C25.6994 17.8135 25.4969 18.4343 25.2401 19.0335L23.4709 18.2606ZM3.98354 14.9057H5.90545C5.91446 15.4469 5.97231 15.9863 6.07836 16.5173L4.20251 16.9238C4.06874 16.2638 3.99544 15.5931 3.98354 14.9199V14.9057ZM24.0414 16.4744C24.1411 15.9618 24.197 15.4418 24.2085 14.9199H26.1276C26.1185 15.5746 26.05 16.227 25.923 16.8694L24.0414 16.4744ZM4.17658 12.6242L6.05527 13.0192C5.95801 13.5328 5.90594 14.0539 5.89972 14.5764H3.97775C3.98512 13.9211 4.05165 13.2677 4.17658 12.6242ZM24.0587 12.9619L25.9374 12.5555C26.0695 13.2213 26.1389 13.8979 26.1449 14.5764H24.223C24.2183 14.0344 24.1633 13.494 24.0587 12.9619ZM4.24284 12.3121C4.38349 11.6735 4.58215 11.0488 4.83643 10.4458L6.59412 11.2187C6.39447 11.7004 6.23734 12.1984 6.12447 12.7072L4.24284 12.3121ZM23.4824 11.1328L25.2286 10.3427C25.495 10.9567 25.7033 11.594 25.851 12.2463L23.9751 12.6528C23.8572 12.1325 23.6923 11.6237 23.4824 11.1328ZM4.97762 10.1366C5.20532 9.64048 5.47019 9.16202 5.77004 8.70531L7.36351 9.77305C7.12604 10.1394 6.9152 10.522 6.73242 10.9181L4.97762 10.1366ZM22.7131 9.70722L24.2979 8.62805C24.5947 9.07809 24.8585 9.54873 25.0874 10.0364L23.3384 10.8236C23.1567 10.4373 22.9477 10.0642 22.7131 9.70722ZM5.95446 8.42477C6.29498 7.9397 6.67364 7.48218 7.08685 7.05648L8.45556 8.40758C8.12624 8.74576 7.82464 9.10948 7.55366 9.49538L5.95446 8.42477ZM21.6671 8.40476L23.0243 7.05648C23.4173 7.46244 23.7795 7.89681 24.1077 8.35607L22.5257 9.44956C22.2632 9.08476 21.9743 8.73936 21.6613 8.4162L21.6671 8.40476ZM6.21955 14.7138C6.21726 12.9783 6.73313 11.2811 7.70195 9.83687C8.67076 8.39267 10.0489 7.26632 11.6622 6.60031C13.2754 5.93431 15.0512 5.75863 16.765 6.0954C18.4788 6.43217 20.0536 7.26632 21.2901 8.49233C22.5266 9.71834 23.3693 11.2811 23.7117 12.983C24.054 14.6849 23.8806 16.4494 23.2134 18.0534C22.5462 19.6574 21.4151 21.0287 19.9632 21.994C18.5114 22.9592 16.804 23.4751 15.057 23.4762C12.7136 23.4732 10.4673 22.5462 8.81136 20.899C7.1554 19.2518 6.22528 17.019 6.22528 14.691L6.21955 14.7138ZM7.32028 6.82176C7.72601 6.42832 8.16248 6.06748 8.62557 5.74253L9.71189 7.31409C9.34655 7.57501 9.0008 7.86206 8.67742 8.17285L7.32028 6.82176ZM20.3445 7.27115L21.4222 5.69102C21.9096 6.03137 22.3692 6.40945 22.7966 6.82176L21.4395 8.17003C21.0988 7.84346 20.7337 7.54296 20.3474 7.27115H20.3445ZM8.89355 5.55362C9.34715 5.25551 9.82187 4.9905 10.3141 4.76068L11.1065 6.49827C10.7181 6.68176 10.3427 6.89121 9.98277 7.12518L8.89355 5.55362ZM18.9268 6.4582L19.7019 4.71202C20.2014 4.94129 20.683 5.2073 21.1427 5.5078L20.065 7.08799C19.6964 6.85104 19.3112 6.6406 18.9124 6.4582H18.9268ZM10.608 4.61183C11.2271 4.34434 11.8694 4.13354 12.5271 3.98206L12.9334 5.8456C12.4095 5.96896 11.8976 6.13753 11.4033 6.34943L10.608 4.61183ZM17.123 5.83129L17.5207 3.96489C18.1656 4.10776 18.7963 4.30799 19.4051 4.56316L18.6271 6.30936C18.1415 6.10722 17.6393 5.94727 17.1259 5.83129H17.123ZM12.8498 3.90191C13.5225 3.76739 14.2066 3.69646 14.8928 3.69008V5.59656C14.3441 5.60562 13.7974 5.66309 13.259 5.76834L12.8498 3.90191ZM15.2241 5.59656V3.69008C15.8877 3.69849 16.5492 3.76555 17.2008 3.89046L16.8118 5.75971C16.291 5.66163 15.7628 5.60703 15.2328 5.59656H15.2241ZM3.64063 14.691C3.64008 16.9342 4.30915 19.1273 5.56325 20.9928C6.81734 22.8582 8.60014 24.3123 10.6862 25.1712C12.7721 26.03 15.0677 26.2551 17.2825 25.8178C19.4972 25.3805 21.5317 24.3005 23.1286 22.7145C24.7255 21.1285 25.8131 19.1076 26.2538 16.9075C26.6945 14.7074 26.4686 12.4268 25.6047 10.3543C24.7406 8.28173 23.2774 6.51025 21.3999 5.26389C19.5224 4.01754 17.3151 3.35229 15.057 3.35229C12.0306 3.35533 9.12905 4.55081 6.98877 6.6765C4.84855 8.80215 3.64445 11.6844 3.64063 14.691Z" fill="white"/>
<path d="M9.87766 2.57918L10.3877 2.38166L10.9063 2.20705C10.963 2.18682 11.0207 2.16962 11.0792 2.15552L11.1426 2.13548L11.3847 2.06678L11.6238 2.00666L11.912 1.94369C12.105 1.89789 12.2981 1.84923 12.448 1.82919L12.6439 1.79197L12.8888 1.74903C13.0358 1.72613 13.2346 1.70323 13.4305 1.67747C13.6265 1.65171 13.8282 1.64025 13.978 1.6288L14.2258 1.60877H14.2949H14.4736H15.0038H15.5801C15.6579 1.60877 15.7242 1.60877 15.7645 1.60877H15.8308H16.0239C16.1708 1.60877 16.3581 1.6288 16.5598 1.65743C16.7615 1.68606 16.9545 1.7061 17.1015 1.72899L17.3465 1.77193C17.3465 1.77193 17.7412 1.83777 18.1273 1.93224C18.3232 1.97231 18.5134 2.02957 18.6575 2.06964L18.8966 2.13835H18.9139C18.9724 2.15244 19.0302 2.16964 19.0868 2.18987L19.6055 2.36449L20.1242 2.57918C20.2653 2.63357 20.3547 2.67651 20.3547 2.67651L20.5823 2.7767C20.7177 2.83682 20.8993 2.91983 21.0751 3.01429C21.3632 3.15456 21.6514 3.30055 21.732 3.36639L21.7724 3.38929L21.9453 3.48948C22.0749 3.56391 22.2334 3.67555 22.4092 3.77574C22.5849 3.87593 22.7348 4.00188 22.8587 4.0849L23.0632 4.22803L23.2592 4.37974C23.3744 4.4742 23.5473 4.58871 23.6856 4.72039L24.0977 5.07821L24.2792 5.24997L24.4233 5.38737C24.5357 5.48755 24.6682 5.63357 24.8066 5.77667C24.9449 5.91981 25.0774 6.06296 25.1754 6.18029L25.3396 6.36638C25.3396 6.36638 25.4059 6.44077 25.4952 6.55816L25.8353 6.98754L26.1522 7.43124C26.1954 7.49137 26.2271 7.54288 26.2531 7.58008L26.2876 7.63734L26.3971 7.80337L26.5325 8.01808C26.5816 8.09822 26.6305 8.18411 26.6795 8.27C26.7803 8.44172 26.8812 8.61062 26.9446 8.74514L27.0599 8.96561C27.0599 8.96561 27.1031 9.05432 27.1723 9.18602L27.397 9.68123C27.4777 9.86157 27.5468 10.0505 27.6016 10.1879C27.6304 10.2566 27.6534 10.3138 27.6678 10.354L27.6909 10.4169L27.7543 10.6058C27.8004 10.7461 27.8753 10.9322 27.9243 11.124L28.0741 11.6478C28.1058 11.7909 28.1289 11.8883 28.1289 11.8883C28.1289 11.8883 28.1519 11.9827 28.1836 12.1287C28.2153 12.2747 28.2528 12.4694 28.2873 12.664C28.3046 12.7613 28.3248 12.8587 28.3392 12.9503C28.3537 13.0419 28.3623 13.1278 28.3709 13.2022C28.3796 13.2766 28.3911 13.3568 28.3969 13.3968V13.4426C28.3969 13.4856 28.3969 13.5457 28.4199 13.6402C28.4199 13.789 28.4458 13.9865 28.4631 14.1841C28.4804 14.3816 28.4631 14.5791 28.4804 14.728C28.4804 14.8024 28.4804 14.8654 28.4804 14.9083V14.9713C28.4804 14.9913 28.4804 15.0772 28.4804 15.2174C28.4804 15.2948 28.4804 15.3892 28.4804 15.4865C28.4804 15.5839 28.4804 15.6926 28.4804 15.7728C28.466 15.9646 28.4516 16.1564 28.4401 16.2995C28.4401 16.394 28.4228 16.4541 28.417 16.497V16.5428C28.417 16.5829 28.4026 16.6459 28.3911 16.7375C28.3796 16.8291 28.3709 16.8978 28.3594 16.9894C28.3479 17.081 28.3248 17.1783 28.3075 17.2756C28.2729 17.4703 28.2441 17.6678 28.2038 17.811C28.1635 17.9541 28.149 18.0514 28.149 18.0514C28.149 18.0514 28.126 18.1487 28.0943 18.2919L27.9445 18.8157C27.8955 19.0075 27.8206 19.1936 27.7745 19.3338C27.7428 19.4254 27.7226 19.4856 27.7111 19.5227C27.6995 19.56 27.7111 19.5457 27.688 19.5858C27.665 19.6258 27.6506 19.6831 27.6218 19.7518C27.567 19.8892 27.4978 20.0753 27.4172 20.2584L27.1838 20.7794C27.1146 20.9111 27.0714 20.9999 27.0714 20.9999L26.9561 21.2203C26.8927 21.3548 26.7919 21.5237 26.691 21.6955C26.642 21.7814 26.5931 21.8672 26.5441 21.9474L26.4087 22.162L26.2992 22.3281L26.2761 22.3653C26.2761 22.3653 26.2185 22.454 26.1752 22.5142C26.0888 22.6372 25.9736 22.8004 25.8554 22.9579C25.7373 23.1153 25.6105 23.2699 25.5183 23.3872C25.4261 23.5046 25.3627 23.579 25.3627 23.579L25.1984 23.7651C25.1005 23.8796 24.9708 24.0285 24.8296 24.1687C24.6884 24.309 24.5587 24.455 24.4464 24.5581L24.3023 24.6955L24.2821 24.7126L24.2648 24.7298L24.1207 24.8644C24.0113 24.9645 23.8585 25.0933 23.7087 25.225C23.5589 25.3567 23.3975 25.4712 23.2823 25.5657L23.0863 25.7174L22.8817 25.8605C22.7578 25.9435 22.5936 26.0666 22.4322 26.1697C22.2709 26.2727 22.098 26.3872 21.9683 26.4559L21.7522 26.579C21.66 26.6334 21.3863 26.7909 21.0923 26.934C20.9166 27.0256 20.735 27.1086 20.5996 27.1687L20.372 27.2689C20.372 27.2689 20.2826 27.3118 20.1415 27.3662L19.6314 27.5637L19.1128 27.7384C19.0561 27.7586 18.9984 27.7758 18.9399 27.7899H18.9226L18.6835 27.8586C18.5394 27.8987 18.3492 27.953 18.1532 27.996C17.7671 28.0904 17.3724 28.1534 17.3724 28.1534L17.1274 28.1993C16.9805 28.2221 16.7817 28.2422 16.5857 28.2708C16.3898 28.2994 16.1881 28.308 16.0383 28.3195L15.7904 28.3395C15.7501 28.3395 15.6867 28.3395 15.5916 28.3395L15.0441 28.3538L14.4851 28.3395H14.2949H14.2172L13.9751 28.3195C13.831 28.3195 13.6409 28.2994 13.4391 28.2708C13.2375 28.2422 13.0444 28.2221 12.8975 28.1993L12.7015 28.1649L12.4566 28.1191C12.3068 28.0991 12.1137 28.0504 11.9206 28.0046L11.6325 27.9416L11.3876 27.87L11.1484 27.8042L11.0821 27.7841C11.0236 27.77 10.9659 27.7529 10.9092 27.7326L10.3906 27.558L9.88055 27.3605C9.7912 27.3261 9.73357 27.3004 9.69613 27.2832L9.6558 27.2661L9.47427 27.1859C9.3388 27.1229 9.15444 27.0456 8.97864 26.9511C8.8029 26.8567 8.62132 26.7765 8.49454 26.6993L8.27846 26.5761L8.06233 26.4531C7.93265 26.3787 7.77421 26.267 7.59842 26.1668C7.42268 26.0666 7.27281 25.9407 7.14891 25.8576L6.98469 25.7431L6.92995 25.7031L6.78875 25.5943C6.67059 25.4998 6.50058 25.3824 6.35939 25.2537L5.93581 24.9073L5.75717 24.7384L5.57565 24.5666C5.46327 24.4664 5.3307 24.3205 5.1924 24.1773C5.0541 24.0342 4.92153 23.8911 4.82356 23.7737L4.70829 23.6363L4.68236 23.6077V23.5933C4.65355 23.5618 4.61321 23.5132 4.5671 23.4559C4.47491 23.3386 4.35102 23.1697 4.22997 23.0266C4.10897 22.8834 3.99659 22.7031 3.91014 22.5829C3.86691 22.5227 3.83237 22.4712 3.80928 22.434L3.77184 22.3796L3.63643 22.1707C3.59604 22.1077 3.54998 22.0333 3.49807 21.9559L3.35404 21.704C3.25318 21.5323 3.15232 21.3634 3.0889 21.2288L2.97369 21.0084L2.88434 20.831C2.82092 20.6964 2.73737 20.5161 2.6567 20.3358C2.57603 20.1554 2.50688 19.9693 2.44925 19.8319L2.35701 19.6029L2.27924 19.3682C2.23312 19.2279 2.16107 19.0419 2.10923 18.8501L1.92481 18.3234L1.88158 18.1316L1.82394 17.8911C1.7865 17.7451 1.7519 17.5504 1.72025 17.3558C1.68854 17.1611 1.6482 16.9665 1.6338 16.8205C1.61939 16.6745 1.60208 16.5743 1.60208 16.5743C1.60208 16.5743 1.60209 16.4741 1.57327 16.3281C1.54445 16.1821 1.53872 15.976 1.53872 15.7785C1.53872 15.581 1.53872 15.3835 1.52142 15.2346C1.50412 15.0858 1.52142 15.0028 1.52142 14.9941C1.52142 14.9856 1.52142 14.8883 1.52142 14.7451C1.52142 14.665 1.52142 14.5734 1.52142 14.4761C1.52142 14.3787 1.52142 14.27 1.52142 14.1898C1.52142 13.998 1.55024 13.8062 1.56175 13.6631C1.57327 13.52 1.59057 13.4169 1.59057 13.4169L1.62228 13.1707C1.62228 13.0247 1.67124 12.83 1.70868 12.6354C1.74617 12.4407 1.77499 12.2461 1.81243 12.1001L1.87006 11.8596L1.91329 11.6679L2.06311 11.144C2.11501 10.9522 2.18705 10.7662 2.23312 10.6259L2.31095 10.3912L2.40313 10.1621C2.46076 10.0247 2.52418 9.83581 2.61058 9.65547C2.69703 9.47513 2.77486 9.29766 2.83822 9.16308L2.92757 8.98562L3.04284 8.76521C3.1062 8.63068 3.20706 8.46178 3.30792 8.29001L3.45201 8.03809C3.50386 7.96083 3.54998 7.88638 3.59031 7.82343L3.72572 7.61446L3.76321 7.5572C3.78625 7.52 3.82079 7.47131 3.86402 7.41123C3.95047 7.2881 4.06574 7.12494 4.1839 6.96748C4.30201 6.81008 4.4288 6.65549 4.52103 6.5381C4.5671 6.4809 4.60748 6.43221 4.6363 6.4007L4.66222 6.37207L4.79185 6.22324C4.88698 6.10872 5.01949 5.95988 5.16069 5.81961C5.30188 5.67934 5.43156 5.53337 5.54394 5.4303L5.72546 5.25855L5.9041 5.08966L6.35076 4.69749C6.50347 4.56867 6.66197 4.45131 6.78007 4.3597C6.83771 4.31104 6.88672 4.27383 6.92127 4.24806L6.97317 4.21085L7.14029 4.09349C7.26418 4.01047 7.42841 3.88738 7.5898 3.78432C7.75113 3.68127 7.92403 3.56677 8.05371 3.49807L8.26978 3.37498L8.48591 3.25189C8.6127 3.1746 8.79422 3.09158 8.97002 2.99998C9.14576 2.90838 9.33018 2.82823 9.46559 2.76525L9.69324 2.66506C9.73073 2.64789 9.78837 2.62212 9.87766 2.58777V2.57918ZM13.7273 0.440837C13.5256 0.652665 13.3412 0.881671 13.3412 0.881671C13.3412 0.881671 13.1539 1.10782 12.981 1.3311C12.8917 1.44274 12.811 1.5601 12.7476 1.64884L12.6669 1.76335C12.6036 1.72041 12.422 1.59445 12.2232 1.47709C12.0244 1.35972 11.7305 1.19083 11.7305 1.19083L11.572 1.09923C11.4769 1.04484 11.3472 0.967553 11.2175 0.901711C10.9554 0.767171 10.6845 0.635493 10.6845 0.635493L10.5865 0.795794C10.5289 0.887396 10.4568 1.02194 10.3848 1.15076C10.2407 1.41125 10.0967 1.66602 10.0967 1.66602C10.0967 1.66602 10.065 1.72899 10.0188 1.82919L9.86614 2.15552C9.8114 2.2872 9.75376 2.41602 9.71343 2.51334C9.6731 2.61067 9.6702 2.61926 9.66158 2.64502L9.16017 2.45895C8.87205 2.3559 8.60981 2.27575 8.60981 2.27575C8.60981 2.27575 8.32169 2.19273 8.03352 2.11544C7.7454 2.03816 7.45723 1.9809 7.45723 1.9809L7.39959 2.15838C7.36788 2.2643 7.32182 2.4017 7.28432 2.54769C7.20655 2.83395 7.14029 3.12021 7.14029 3.12021C7.14029 3.12021 7.14029 3.18891 7.09996 3.29483C7.05957 3.40074 7.05095 3.54387 7.02502 3.68413C6.9818 3.916 6.94719 4.13356 6.93568 4.20799L6.79448 4.18795L6.4055 4.14215L6.00785 4.10207L5.82922 4.08776C5.82922 4.08776 5.54104 4.07345 5.25293 4.06486C5.10305 4.06486 4.96475 4.06486 4.84086 4.06486H4.65644C4.65644 4.06486 4.63341 4.35111 4.619 4.65455C4.60459 4.95798 4.619 5.24138 4.619 5.24138C4.619 5.24138 4.619 5.31294 4.619 5.41886C4.619 5.52475 4.619 5.67077 4.619 5.81392C4.619 6.05146 4.65065 6.27193 4.65644 6.34632H4.51525C4.40576 6.34632 4.26746 6.37207 4.12627 6.38926C3.8381 6.42364 3.54998 6.4694 3.54998 6.4694C3.54998 6.4694 3.26181 6.52097 2.97369 6.58105L2.57025 6.66693L2.39161 6.71562C2.39161 6.71562 2.43773 7.00186 2.49247 7.2881C2.5184 7.43124 2.553 7.57439 2.57892 7.68316C2.60485 7.79193 2.61926 7.86062 2.61926 7.86062C2.61926 7.86062 2.68841 8.14691 2.76618 8.41309C2.83533 8.64212 2.90454 8.85109 2.92757 8.92267L2.79216 8.96843C2.68841 8.99993 2.55295 9.04575 2.42043 9.09726C2.15534 9.19746 1.88158 9.3091 1.88158 9.3091L1.71157 9.38068L1.34562 9.5467C1.08054 9.67266 0.809666 9.81293 0.809666 9.81293C0.809666 9.81293 0.924934 10.0992 1.04883 10.3568C1.10935 10.4914 1.16988 10.623 1.21884 10.7203L1.3024 10.8835C1.3024 10.8835 1.43786 11.144 1.57616 11.3902C1.64242 11.5161 1.71736 11.6364 1.77499 11.728C1.83262 11.8196 1.83546 11.8253 1.84987 11.8482C1.7865 11.8883 1.5963 12.0057 1.39753 12.1344C1.1987 12.2633 0.924935 12.4665 0.924935 12.4665L0.77801 12.5724C0.691558 12.6383 0.567666 12.727 0.45529 12.8215C0.227644 13.0047 0 13.2022 0 13.2022C0 13.2022 0.167118 13.4455 0.35443 13.6802C0.541687 13.915 0.726106 14.1326 0.726106 14.1326L0.841375 14.2642L1.11225 14.5505L1.49549 14.9684C1.46952 14.9941 1.29377 15.1717 1.11225 15.3663L0.841375 15.6526L0.726106 15.7871C0.726106 15.7871 0.538849 16.0075 0.35443 16.2423C0.17001 16.477 0 16.7174 0 16.7174C0 16.7174 0.227644 16.915 0.45529 17.0982C0.567666 17.1926 0.691558 17.2814 0.77801 17.3443L0.924935 17.4531C0.924935 17.4531 1.15837 17.6278 1.39753 17.7852C1.63669 17.9426 1.7865 18.0314 1.84987 18.0714C1.84987 18.0943 1.81243 18.1344 1.77499 18.1917C1.73749 18.2489 1.64242 18.4035 1.57616 18.5295C1.43786 18.7756 1.3024 19.0361 1.3024 19.0361L1.21884 19.1993C1.16988 19.2966 1.10935 19.4283 1.04883 19.5628C0.924934 19.829 0.809666 20.1067 0.809666 20.1067C0.809666 20.1067 1.08054 20.247 1.34562 20.3729L1.71157 20.539L1.88158 20.6105C1.88158 20.6105 2.16975 20.7222 2.42043 20.8224C2.55295 20.8739 2.68841 20.9197 2.79216 20.9512L2.92757 20.9941C2.90454 21.0657 2.83533 21.2804 2.76618 21.5066C2.68841 21.7928 2.61926 22.059 2.61926 22.059C2.61926 22.059 2.61926 22.1306 2.57892 22.2365C2.53859 22.3424 2.5184 22.4884 2.49247 22.6315C2.43773 22.9178 2.39161 23.204 2.39161 23.204L2.57025 23.2527L2.97369 23.3386C3.26181 23.3987 3.54998 23.4502 3.54998 23.4502C3.54998 23.4502 3.8381 23.496 4.12627 23.5304C4.26746 23.5476 4.41439 23.5647 4.51525 23.5733H4.65644C4.65644 23.6477 4.63341 23.8596 4.619 24.1057C4.619 24.2489 4.619 24.392 4.619 24.5008V24.6783C4.619 24.6783 4.619 24.9645 4.619 25.2508C4.619 25.537 4.65644 25.8405 4.65644 25.8405H4.84375C4.95324 25.8405 5.10305 25.8405 5.25293 25.8405C5.54104 25.8405 5.82922 25.8147 5.82922 25.8147C5.82922 25.8147 5.89837 25.8147 6.00785 25.8147L6.4055 25.7746L6.79448 25.7288L6.93568 25.7088C6.93568 25.7832 6.9818 25.995 7.02502 26.2326C7.05095 26.3729 7.07687 26.5189 7.09996 26.622C7.12299 26.725 7.14029 26.7966 7.14029 26.7966C7.14029 26.7966 7.20655 27.0828 7.28432 27.3691C7.32182 27.5151 7.36788 27.6554 7.39959 27.7584L7.45723 27.9359C7.45723 27.9359 7.7454 27.8758 8.03352 27.8013C8.32169 27.7269 8.60981 27.6382 8.60981 27.6382C8.60981 27.6382 8.89798 27.5609 9.16017 27.4578L9.66158 27.2717C9.66158 27.2975 9.6875 27.3404 9.71343 27.4034C9.73935 27.4664 9.8114 27.6296 9.86614 27.7613L10.0333 28.1219C10.0794 28.2221 10.1111 28.2851 10.1111 28.2851C10.1111 28.2851 10.2407 28.5399 10.3992 28.8004C10.4712 28.9292 10.5433 29.0608 10.6009 29.1554L10.6989 29.3128C10.6989 29.3128 10.9698 29.184 11.232 29.0494C11.3616 28.9836 11.4913 28.9063 11.5864 28.8519L11.7449 28.7603C11.7449 28.7603 11.9984 28.6143 12.2376 28.4741C12.4768 28.3338 12.6179 28.2164 12.6813 28.1706L12.762 28.288C12.8254 28.3739 12.9061 28.4941 12.9954 28.6057C13.1683 28.829 13.3556 29.0552 13.3556 29.0552C13.3556 29.0552 13.54 29.2841 13.7446 29.496C13.9492 29.7078 14.171 29.9282 14.171 29.9282L14.2114 29.8967L14.3122 29.8108L14.6004 29.5418L14.8885 29.2756L15.024 29.1525C15.024 29.1525 15.2372 28.9464 15.4332 28.7403L15.7011 28.454L15.7962 28.3481C15.8538 28.3967 16.021 28.5428 16.2025 28.6945C16.384 28.8462 16.6578 29.0523 16.6578 29.0523C16.6578 29.0523 16.8883 29.2241 17.1332 29.3958C17.2571 29.4817 17.381 29.559 17.4761 29.6191L17.6317 29.7193C17.6317 29.7193 17.819 29.4845 17.989 29.2469C18.159 29.0093 18.3203 28.7603 18.3203 28.7603L18.4183 28.6086C18.4759 28.5198 18.5538 28.3967 18.6258 28.2708C18.7439 28.0676 18.8506 27.8729 18.8851 27.8071L19.0119 27.8758C19.107 27.9273 19.2309 27.9874 19.3606 28.0504C19.617 28.1763 19.8879 28.2965 19.8879 28.2965C19.8879 28.2965 19.9541 28.328 20.055 28.3681L20.4296 28.517L20.8157 28.6601L20.9915 28.7202C20.9915 28.7202 21.1154 28.434 21.2278 28.1763C21.2854 28.0418 21.3373 27.8901 21.3747 27.8013L21.4352 27.6267C21.4352 27.6267 21.5332 27.3404 21.6196 27.0828C21.7061 26.8252 21.7435 26.642 21.7637 26.5676L21.902 26.6048C22.0058 26.6305 22.147 26.6706 22.2853 26.6993C22.5734 26.7593 22.8616 26.8137 22.8616 26.8137L23.0431 26.8481L23.4408 26.9054C23.7289 26.9454 24.0372 26.9769 24.0372 26.9769C24.0372 26.9769 24.0919 26.6906 24.138 26.4044C24.1582 26.2584 24.1784 26.1181 24.1957 26.0065C24.213 25.8948 24.213 25.8261 24.213 25.8261C24.213 25.8261 24.2447 25.5399 24.2648 25.2537C24.2648 25.1134 24.2792 24.9674 24.2821 24.8644C24.285 24.7613 24.2821 24.7498 24.2821 24.7212C24.3571 24.7212 24.5702 24.7212 24.821 24.7212C25.0717 24.7212 25.3973 24.7011 25.3973 24.7011H25.5788C25.6912 24.7011 25.8381 24.684 25.9851 24.6697C26.2732 24.6411 26.5614 24.601 26.5614 24.601C26.5614 24.601 26.5614 24.5265 26.5614 24.4149C26.5614 24.3033 26.5441 24.1573 26.5325 24.0084C26.521 23.8596 26.5066 23.7222 26.4951 23.6077C26.4835 23.4931 26.4749 23.4273 26.4749 23.4273C26.4749 23.4273 26.4375 23.1411 26.3885 22.8548C26.3539 22.6258 26.3078 22.4054 26.2905 22.3309C26.3654 22.3309 26.5787 22.2708 26.8149 22.2164C26.9561 22.185 27.1031 22.1449 27.1982 22.1163L27.3739 22.0647C27.3739 22.0647 27.6621 21.9846 27.9358 21.893C28.2096 21.8014 28.4949 21.6869 28.4949 21.6869L28.4458 21.5094C28.417 21.4035 28.3709 21.2603 28.3248 21.1201C28.2326 20.8338 28.1317 20.5676 28.1317 20.5676C28.1317 20.5676 28.1087 20.5018 28.0684 20.3987C28.028 20.2957 27.9733 20.1668 27.9157 20.0323C27.858 19.8977 27.8033 19.7718 27.7601 19.6745C27.7168 19.5771 27.7139 19.5743 27.7024 19.5485L28.1808 19.3138L28.5352 19.1306L28.6908 19.0419C28.6908 19.0419 28.9415 18.8987 29.1979 18.7413C29.3247 18.664 29.4486 18.581 29.5408 18.518L29.6935 18.4149C29.6935 18.4149 29.5466 18.1516 29.4054 17.9025C29.2642 17.6535 29.0827 17.4073 29.0827 17.4073L28.9818 17.2584C28.9213 17.1697 28.8406 17.0524 28.7513 16.9378C28.6101 16.7489 28.4631 16.5743 28.4257 16.5142C28.4862 16.4684 28.6649 16.331 28.8406 16.1793C29.0164 16.0276 29.2728 15.7928 29.2728 15.7928L29.4083 15.6669L29.6964 15.3806L30.1084 14.9713V14.9484L30.0825 14.9198L29.9903 14.8196L29.7022 14.5333L29.414 14.247L29.2786 14.1239C29.2786 14.1239 29.0625 13.9236 28.8464 13.7404C28.6303 13.5572 28.492 13.4541 28.4314 13.4026C28.4776 13.3424 28.6158 13.1678 28.757 12.9789C28.8464 12.8644 28.9271 12.747 28.9876 12.6583L29.0884 12.5094C29.0884 12.5094 29.2498 12.269 29.4111 12.0142C29.5725 11.7594 29.6993 11.5018 29.6993 11.5018L29.5466 11.3959C29.4543 11.3358 29.3304 11.2528 29.2008 11.1755C28.9472 11.0181 28.6965 10.8892 28.6965 10.8892L28.5409 10.8005L28.1865 10.6173C27.9761 10.5085 27.7745 10.414 27.7082 10.3826C27.7082 10.3568 27.7399 10.3167 27.7658 10.2538C27.7918 10.1908 27.8667 10.0276 27.9214 9.89877C27.9761 9.76999 28.0338 9.62972 28.0741 9.53239C28.1145 9.43506 28.1375 9.36349 28.1375 9.36349C28.1375 9.36349 28.2384 9.07725 28.3306 8.81102C28.3767 8.67075 28.4228 8.52473 28.4516 8.42171L28.5006 8.24137C28.5006 8.24137 28.2125 8.13542 27.9416 8.03809C27.6707 7.94076 27.3797 7.8635 27.3797 7.8635L27.2039 7.81481C27.1002 7.78623 26.9619 7.74611 26.8207 7.71466C26.5873 7.66027 26.3712 7.61446 26.2963 7.60014C26.3136 7.5257 26.3596 7.31391 26.3942 7.07631C26.4432 6.79002 26.4807 6.50378 26.4807 6.50378C26.4807 6.50378 26.4807 6.42933 26.5008 6.32344C26.521 6.21749 26.5239 6.06865 26.5383 5.92268C26.5527 5.77667 26.5585 5.63639 26.5672 5.51618C26.5758 5.39596 26.5672 5.33012 26.5672 5.33012C26.5672 5.33012 26.2646 5.29004 25.9736 5.26142C25.8266 5.24424 25.6854 5.23565 25.5673 5.22993H25.3857C25.3857 5.22993 25.0976 5.21275 24.8094 5.20989C24.5213 5.20703 24.3455 5.20989 24.2706 5.20989C24.2706 5.18126 24.2706 5.13546 24.2706 5.06676C24.2706 4.99806 24.2706 4.81772 24.2533 4.67745C24.2331 4.39119 24.2015 4.10493 24.2015 4.10493C24.2015 4.10493 24.2015 4.03051 24.1842 3.92173C24.1669 3.81295 24.1467 3.66696 24.1265 3.52383C24.0804 3.23757 24.0257 2.95132 24.0257 2.95132C24.0257 2.95132 23.7231 2.9828 23.4292 3.02288L23.0316 3.08013L22.8501 3.11448C22.8501 3.11448 22.5619 3.16887 22.2738 3.22898C22.1354 3.25761 21.9856 3.29483 21.8905 3.32345L21.7522 3.36066C21.732 3.28624 21.6744 3.0744 21.6081 2.84254C21.5419 2.61067 21.4381 2.29292 21.4381 2.29292C21.4381 2.29292 21.4151 2.22422 21.3776 2.12117C21.3401 2.01812 21.2883 1.87785 21.2307 1.74331C21.1183 1.47423 20.9943 1.19942 20.9943 1.19942L20.8186 1.25667L20.4325 1.40266L20.0579 1.55152L19.8908 1.62308C19.8908 1.62308 19.6199 1.74331 19.3634 1.86926C19.2338 1.93224 19.1099 1.99235 19.0148 2.04388L18.888 2.11258C18.8535 2.04674 18.7468 1.85209 18.6287 1.64884C18.5567 1.52289 18.4788 1.3998 18.4212 1.31106L18.3232 1.15935C18.3232 1.15935 18.1647 0.916026 17.9919 0.672705C17.819 0.429386 17.6346 0.208968 17.6346 0.208968L17.479 0.309158C17.3839 0.369272 17.26 0.446562 17.1361 0.532439C16.8912 0.704192 16.6606 0.87595 16.6606 0.87595C16.6606 0.87595 16.4244 1.04484 16.2082 1.23377C15.9922 1.4227 15.8711 1.52003 15.8164 1.58014L15.7213 1.47423L15.4332 1.18797L15.0211 0.775759L14.8885 0.652665C14.805 0.581103 14.6984 0.483775 14.6004 0.383585C14.5024 0.283395 14.3728 0.18893 14.2892 0.117366C14.2056 0.0458012 14.1422 0 14.1422 0C14.1422 0 13.9319 0.217556 13.7331 0.432249" fill="white"/>
<path d="M15.8412 27.1032C15.5185 27.1232 15.1871 27.1318 14.8615 27.126C14.8182 27.1268 14.7768 27.1442 14.7462 27.1747C14.7156 27.2051 14.698 27.2462 14.6973 27.2893C14.6969 27.3109 14.7008 27.3324 14.7089 27.3525C14.717 27.3727 14.729 27.391 14.7443 27.4065C14.7596 27.4219 14.7778 27.4342 14.798 27.4426C14.8181 27.4509 14.8397 27.4553 14.8615 27.4553H15.0574C15.3254 27.4553 15.5992 27.4553 15.8672 27.4295C15.9073 27.4242 15.9442 27.4046 15.9709 27.3743C15.9977 27.3441 16.0123 27.3051 16.0123 27.2649C16.0123 27.2246 15.9977 27.1857 15.9709 27.1554C15.9442 27.1252 15.9073 27.1056 15.8672 27.1003L15.8412 27.1032ZM12.7494 27.0745C12.7452 27.0956 12.7454 27.1173 12.7499 27.1384C12.7544 27.1593 12.763 27.1793 12.7754 27.1969C12.7878 27.2145 12.8035 27.2295 12.8219 27.2409C12.8401 27.2524 12.8606 27.26 12.882 27.2634C13.2104 27.3207 13.5475 27.3665 13.8789 27.398H13.8962C13.9398 27.398 13.9815 27.3808 14.0123 27.3502C14.0432 27.3196 14.0605 27.2781 14.0605 27.2348C14.0605 27.1915 14.0432 27.1501 14.0123 27.1195C13.9815 27.0889 13.9398 27.0717 13.8962 27.0717C13.5735 27.0402 13.245 26.9973 12.9251 26.94H12.8964C12.8574 26.9402 12.8198 26.9541 12.7903 26.9793C12.7607 27.0044 12.7411 27.0392 12.735 27.0774L12.7494 27.0745ZM17.7891 26.8255C17.475 26.8971 17.1494 26.9571 16.8266 27.003C16.8052 27.0061 16.7847 27.0134 16.7662 27.0245C16.7476 27.0356 16.7315 27.0502 16.7186 27.0674C16.7058 27.0847 16.6964 27.1044 16.6912 27.1252C16.686 27.1461 16.6851 27.1678 16.6883 27.1891C16.6933 27.228 16.7125 27.2638 16.7422 27.2896C16.772 27.3155 16.8102 27.3296 16.8497 27.3293H16.8757C17.207 27.2806 17.5384 27.2206 17.864 27.1461C17.9049 27.1386 17.9416 27.116 17.9663 27.0827C17.9911 27.0495 18.0023 27.0081 17.9975 26.967C17.9928 26.9259 17.9725 26.8881 17.9407 26.8613C17.909 26.8344 17.8682 26.8207 17.8265 26.8226H17.7891V26.8255ZM10.8217 26.5364C10.8144 26.5567 10.8112 26.5782 10.8124 26.5997C10.8135 26.6212 10.8189 26.6423 10.8283 26.6617C10.8377 26.6812 10.8508 26.6986 10.867 26.7129C10.8831 26.7272 10.902 26.7383 10.9225 26.7454C11.2395 26.8541 11.5622 26.9515 11.8849 27.0316H11.9281C11.9643 27.0305 11.9992 27.018 12.0277 26.9959C12.0562 26.9737 12.0769 26.9431 12.0866 26.9085C12.0927 26.8876 12.0944 26.8658 12.0917 26.8442C12.0889 26.8227 12.0818 26.8019 12.0708 26.7831C12.0598 26.7644 12.045 26.7481 12.0274 26.7352C12.0099 26.7223 11.9898 26.7131 11.9685 26.7081C11.6544 26.6251 11.3403 26.5306 11.032 26.4219C11.014 26.4178 10.9953 26.4178 10.9773 26.4219C10.9428 26.4219 10.9093 26.4327 10.8813 26.4528C10.8534 26.4728 10.8326 26.501 10.8217 26.5335V26.5364ZM19.6562 26.2243C19.3681 26.3446 19.0454 26.4562 18.7371 26.5507C18.6998 26.5631 18.6681 26.5881 18.6475 26.6215C18.627 26.6548 18.6189 26.6942 18.6247 26.7329C18.6306 26.7715 18.65 26.8069 18.6795 26.8327C18.709 26.8586 18.7468 26.8733 18.7861 26.8741H18.8351C19.1549 26.774 19.4718 26.6595 19.783 26.5364C19.8177 26.5211 19.8461 26.4945 19.8636 26.4611C19.8811 26.4277 19.8866 26.3893 19.8793 26.3523C19.8718 26.3154 19.852 26.282 19.823 26.2577C19.7941 26.2334 19.7576 26.2196 19.7197 26.2186C19.6987 26.2147 19.6772 26.2147 19.6562 26.2186V26.2243ZM9.01788 25.7034C9.00729 25.7223 9.00058 25.7432 8.99818 25.7647C8.99578 25.7862 8.99774 25.808 9.00391 25.8288C9.01008 25.8496 9.02034 25.869 9.03409 25.8858C9.0479 25.9025 9.06493 25.9165 9.08414 25.9267C9.37231 26.0869 9.68062 26.233 9.98604 26.3675C10.0079 26.3726 10.0305 26.3726 10.0524 26.3675C10.0896 26.3665 10.1255 26.353 10.1543 26.3294C10.183 26.3057 10.2029 26.2731 10.2109 26.2369C10.2188 26.2007 10.2143 26.1629 10.1981 26.1295C10.182 26.0961 10.155 26.069 10.1215 26.0526C9.83333 25.9238 9.52791 25.7663 9.23974 25.6232C9.21562 25.6109 9.18904 25.6041 9.16197 25.6032C9.13238 25.6033 9.1034 25.6113 9.07803 25.6264C9.05265 25.6416 9.03191 25.6632 9.01788 25.6891V25.7034ZM21.4082 25.3313C21.12 25.4973 20.8319 25.6576 20.5437 25.8007C20.5208 25.8076 20.4997 25.8195 20.4818 25.8355C20.464 25.8514 20.4499 25.871 20.4405 25.893C20.4311 25.915 20.4267 25.9386 20.4276 25.9625C20.4284 25.9863 20.4345 26.0096 20.4454 26.0309C20.4563 26.0521 20.4718 26.0707 20.4907 26.0854C20.5096 26.1001 20.5315 26.1104 20.5549 26.1157C20.5783 26.1211 20.6026 26.1213 20.626 26.1163C20.6495 26.1113 20.6716 26.1013 20.6907 26.0869C20.9788 25.9381 21.2871 25.775 21.5724 25.6032C21.6028 25.5841 21.6262 25.5557 21.6391 25.5224C21.6519 25.489 21.6537 25.4524 21.644 25.4181C21.6343 25.3837 21.6136 25.3533 21.5852 25.3315C21.5568 25.3096 21.5219 25.2975 21.486 25.2969C21.4552 25.297 21.4252 25.3059 21.3995 25.3226L21.4082 25.3313ZM7.35816 24.6213C7.34446 24.6383 7.33431 24.6579 7.32836 24.6788C7.32236 24.6997 7.32067 24.7217 7.32334 24.7433C7.32607 24.7649 7.33305 24.7857 7.34397 24.8046C7.35489 24.8235 7.36951 24.84 7.38698 24.8532C7.65206 25.0564 7.92866 25.2511 8.20821 25.4257C8.23392 25.4448 8.26536 25.4549 8.2975 25.4543C8.3249 25.4539 8.35176 25.4469 8.37588 25.4339C8.39995 25.421 8.42052 25.4024 8.43581 25.3799C8.45976 25.343 8.46806 25.2983 8.45889 25.2553C8.44972 25.2125 8.4238 25.1749 8.38685 25.1509C8.11598 24.9734 7.848 24.7845 7.5887 24.5784C7.55983 24.5561 7.52435 24.544 7.48784 24.544C7.46284 24.5442 7.43823 24.55 7.4158 24.5609C7.39336 24.5718 7.37366 24.5875 7.35816 24.607V24.6213ZM22.9786 24.2091C22.7337 24.4181 22.4743 24.6185 22.2092 24.8102C22.1916 24.8228 22.1766 24.8386 22.165 24.857C22.1536 24.8753 22.1459 24.8957 22.1424 24.917C22.1389 24.9383 22.1397 24.9601 22.1448 24.981C22.1498 25.002 22.159 25.0218 22.1718 25.0393C22.1844 25.0568 22.2003 25.0717 22.2188 25.0831C22.2372 25.0945 22.2578 25.1022 22.2792 25.1056C22.3007 25.1091 22.3226 25.1083 22.3437 25.1033C22.3648 25.0983 22.3848 25.0892 22.4023 25.0765C22.6732 24.8818 22.9411 24.6728 23.1947 24.4581C23.2113 24.4441 23.2249 24.427 23.2348 24.4077C23.2447 24.3884 23.2506 24.3674 23.2522 24.3458C23.2538 24.3242 23.2511 24.3026 23.2442 24.282C23.2373 24.2615 23.2264 24.2425 23.212 24.2263C23.1967 24.2085 23.1777 24.1941 23.1563 24.1842C23.1349 24.1744 23.1117 24.1692 23.0881 24.169C23.0477 24.1678 23.0085 24.1821 22.9786 24.2091ZM5.90589 23.2644C5.87544 23.2954 5.85841 23.3371 5.85841 23.3804C5.85841 23.4237 5.87544 23.4653 5.90589 23.4963C6.13643 23.7396 6.37848 23.9744 6.62337 24.1976C6.65416 24.2253 6.69422 24.2406 6.73575 24.2406C6.75856 24.24 6.78105 24.2349 6.80185 24.2256C6.82264 24.2163 6.84131 24.2029 6.85681 24.1862C6.8722 24.171 6.88442 24.153 6.89277 24.1331C6.90118 24.1132 6.90543 24.0919 6.90543 24.0703C6.90543 24.0487 6.90118 24.0274 6.89277 24.0075C6.88442 23.9876 6.8722 23.9695 6.85681 23.9543C6.61475 23.7368 6.38132 23.5078 6.15657 23.2702C6.14118 23.2536 6.12246 23.2405 6.10161 23.2316C6.08076 23.2227 6.05827 23.2183 6.03557 23.2187C6.01472 23.2184 5.99398 23.2224 5.97471 23.2302C5.95539 23.2381 5.93787 23.2497 5.92319 23.2644H5.90589ZM24.3819 22.8322C24.1715 23.0784 23.9468 23.3189 23.7163 23.5478C23.6919 23.5709 23.675 23.6007 23.6681 23.6334C23.661 23.6661 23.6641 23.7002 23.6768 23.7311C23.6896 23.762 23.7115 23.7884 23.7396 23.8068C23.7677 23.8251 23.8007 23.8347 23.8344 23.8341C23.8559 23.834 23.8771 23.8297 23.897 23.8213C23.9168 23.813 23.9347 23.8008 23.9496 23.7854C24.1888 23.5507 24.4164 23.3046 24.6326 23.0526C24.6469 23.0363 24.6578 23.0174 24.6648 22.9968C24.6716 22.9763 24.6744 22.9547 24.6728 22.9331C24.6712 22.9115 24.6653 22.8905 24.6554 22.8712C24.6455 22.8519 24.6319 22.8348 24.6153 22.8207C24.5861 22.7945 24.548 22.7802 24.5087 22.7807C24.4846 22.7804 24.4608 22.7854 24.4389 22.7953C24.4169 22.8052 24.3975 22.8198 24.3819 22.8379V22.8322ZM4.68705 21.7301C4.65103 21.755 4.62631 21.793 4.61818 21.8358C4.6101 21.8787 4.61932 21.9229 4.64383 21.9591C4.83109 22.2454 5.02991 22.503 5.24026 22.7635C5.25576 22.7829 5.27546 22.7987 5.29789 22.8096C5.32038 22.8205 5.34499 22.8263 5.36993 22.8265C5.40759 22.8251 5.44383 22.8121 5.47369 22.7893C5.5072 22.7614 5.52859 22.7217 5.5334 22.6785C5.53825 22.6353 5.52614 22.5919 5.49961 22.5574C5.295 22.3055 5.09906 22.0421 4.92332 21.7731C4.90831 21.7511 4.88812 21.733 4.86454 21.7206C4.84091 21.7081 4.8146 21.7015 4.78791 21.7015C4.75397 21.7008 4.72067 21.7109 4.69278 21.7301H4.68705ZM25.5172 21.2778C25.3472 21.5641 25.1656 21.8274 24.9754 22.0908C24.9627 22.1083 24.9535 22.128 24.9484 22.149C24.9434 22.17 24.9426 22.1918 24.9461 22.2131C24.9496 22.2344 24.9573 22.2548 24.9687 22.2731C24.9802 22.2914 24.9952 22.3073 25.0129 22.3198C25.0407 22.3396 25.0738 22.3505 25.108 22.3513C25.1345 22.3515 25.1606 22.3454 25.1842 22.3334C25.2078 22.3215 25.2281 22.3041 25.2434 22.2826C25.4394 22.0135 25.6267 21.733 25.7996 21.4496C25.822 21.4123 25.8289 21.3677 25.8187 21.3254C25.8085 21.2831 25.7819 21.2465 25.7448 21.2234C25.7187 21.2078 25.6888 21.1999 25.6584 21.2005C25.6303 21.2008 25.6026 21.208 25.578 21.2215C25.5533 21.235 25.5324 21.2543 25.5172 21.2778ZM3.73614 20.0011C3.69657 20.0203 3.66606 20.054 3.651 20.0952C3.63599 20.1363 3.63757 20.1815 3.65547 20.2216C3.79667 20.5221 3.94359 20.8198 4.1136 21.1089C4.12801 21.1343 4.14897 21.1553 4.17429 21.17C4.19962 21.1845 4.22843 21.1921 4.25769 21.192C4.28683 21.1925 4.31559 21.1856 4.34125 21.1719C4.36002 21.1612 4.3765 21.147 4.38966 21.1299C4.40286 21.113 4.41258 21.0935 4.4182 21.0727C4.42382 21.052 4.42524 21.0304 4.42246 21.0091C4.41962 20.9878 4.41258 20.9672 4.40177 20.9486C4.24328 20.6624 4.09346 20.3761 3.95516 20.0899C3.94217 20.0613 3.9211 20.0371 3.89447 20.0203C3.86784 20.0035 3.83684 19.9949 3.80529 19.9954C3.78242 19.9914 3.75901 19.9914 3.73614 19.9954V20.0011ZM26.3903 19.5345C26.2664 19.8207 26.1309 20.1328 25.9869 20.4219C25.9769 20.441 25.9709 20.462 25.9691 20.4834C25.9674 20.5049 25.9699 20.5266 25.9767 20.547C25.9833 20.5675 25.9941 20.5865 26.0082 20.6028C26.0223 20.6192 26.0395 20.6326 26.0589 20.6423C26.0822 20.6538 26.1078 20.6597 26.1338 20.6595C26.1645 20.6594 26.1945 20.6507 26.2205 20.6346C26.2464 20.6184 26.2673 20.5953 26.2808 20.5679C26.4306 20.2816 26.5689 19.9639 26.6957 19.6576C26.712 19.6173 26.7118 19.5723 26.6951 19.5322C26.6784 19.492 26.6466 19.46 26.6064 19.4429C26.5655 19.4269 26.5198 19.4275 26.4794 19.4446C26.4389 19.4617 26.4069 19.4941 26.3903 19.5345ZM3.07629 18.1433C3.05517 18.1489 3.03536 18.1587 3.01811 18.172C3.00081 18.1853 2.98635 18.2019 2.97565 18.2208C2.9649 18.2397 2.95807 18.2606 2.95556 18.2822C2.95305 18.3038 2.95491 18.3257 2.96102 18.3466C3.05037 18.6672 3.15412 18.9849 3.26933 19.2969C3.28107 19.3286 3.30224 19.356 3.33008 19.3755C3.35786 19.3949 3.39093 19.4055 3.42493 19.4057C3.44393 19.41 3.46363 19.41 3.48257 19.4057C3.52345 19.3909 3.55669 19.3605 3.57508 19.3214C3.59342 19.2822 3.59538 19.2374 3.58054 19.1967C3.46816 18.8933 3.3673 18.5813 3.29242 18.2692C3.28156 18.235 3.26016 18.2049 3.23118 18.1834C3.20226 18.1618 3.16722 18.1498 3.13103 18.149H3.08781L3.07629 18.1433ZM26.9867 17.691C26.9147 18.0059 26.8282 18.3208 26.7332 18.6299C26.7265 18.6504 26.7239 18.672 26.7256 18.6935C26.7273 18.7149 26.7333 18.7359 26.7432 18.7551C26.7531 18.7742 26.7668 18.7912 26.7833 18.8051C26.7999 18.8191 26.8191 18.8295 26.8398 18.836C26.856 18.8387 26.8725 18.8387 26.8888 18.836C26.9241 18.8369 26.9588 18.8261 26.9875 18.8054C27.0162 18.7847 27.0371 18.7552 27.0472 18.7216C27.1481 18.4066 27.2374 18.0803 27.3095 17.7568C27.3145 17.7358 27.3154 17.7139 27.3119 17.6925C27.3084 17.6712 27.3007 17.6507 27.2892 17.6323C27.2776 17.6139 27.2625 17.598 27.2447 17.5855C27.2269 17.5729 27.2068 17.564 27.1855 17.5593H27.1481C27.1105 17.5597 27.0742 17.5725 27.0449 17.5959C27.0156 17.6193 26.9951 17.6518 26.9867 17.6882V17.691ZM2.72475 16.2053C2.70314 16.2075 2.68218 16.2139 2.66308 16.2241C2.64392 16.2344 2.62706 16.2482 2.61341 16.265C2.59971 16.2818 2.58956 16.3011 2.58345 16.3218C2.57734 16.3425 2.57543 16.3642 2.57783 16.3857C2.61527 16.7177 2.66712 17.0498 2.73054 17.3733C2.73725 17.4109 2.75712 17.445 2.78664 17.4696C2.81612 17.4942 2.85339 17.5078 2.89187 17.5078H2.92358C2.96664 17.4989 3.00436 17.4734 3.02864 17.4369C3.05293 17.4005 3.06177 17.356 3.05326 17.3132C2.99273 16.9983 2.94377 16.6748 2.90628 16.3542C2.90268 16.3135 2.88379 16.2755 2.85339 16.248C2.82294 16.2204 2.78321 16.2052 2.74205 16.2053H2.72475ZM27.2547 15.7473C27.2345 16.0708 27.1999 16.3971 27.1539 16.7149C27.1502 16.7364 27.151 16.7584 27.1561 16.7796C27.1614 16.8008 27.1709 16.8207 27.1841 16.8381C27.1973 16.8555 27.2139 16.8701 27.233 16.8809C27.2521 16.8917 27.2732 16.8985 27.2951 16.901H27.3181C27.3578 16.9007 27.3961 16.8865 27.4262 16.8608C27.4563 16.8351 27.4762 16.7996 27.4823 16.7607C27.5284 16.4315 27.563 16.0966 27.5861 15.7645C27.5872 15.7431 27.5842 15.7216 27.5769 15.7014C27.5697 15.6811 27.5586 15.6625 27.5441 15.6465C27.5297 15.6306 27.5122 15.6176 27.4927 15.6084C27.4732 15.5991 27.452 15.5938 27.4305 15.5928C27.3885 15.5933 27.3484 15.6096 27.318 15.6382C27.2876 15.6669 27.2691 15.7058 27.2662 15.7473H27.2547ZM2.53744 13.9869C2.51152 14.316 2.5 14.651 2.5 14.983C2.5 15.1204 2.5 15.2693 2.5 15.3895C2.50147 15.432 2.51932 15.4724 2.54988 15.5023C2.58045 15.5321 2.62138 15.5491 2.66423 15.5498C2.68622 15.549 2.70778 15.5441 2.72775 15.535C2.74778 15.5259 2.76579 15.5131 2.78075 15.4972C2.79576 15.4812 2.80744 15.4625 2.81513 15.442C2.82283 15.4216 2.82638 15.3999 2.82561 15.378C2.82561 15.2493 2.82561 15.1176 2.82561 14.983C2.82561 14.6595 2.82561 14.3332 2.86305 14.0126C2.86502 13.9909 2.86262 13.9691 2.85596 13.9484C2.8493 13.9277 2.83855 13.9085 2.82436 13.8919C2.81011 13.8754 2.7927 13.8618 2.77311 13.8521C2.75352 13.8423 2.73218 13.8366 2.71034 13.8351C2.66859 13.8356 2.62848 13.8514 2.59769 13.8793C2.56686 13.9073 2.54748 13.9456 2.54323 13.9869H2.53744ZM27.3786 13.6347C27.3567 13.6365 27.3354 13.6427 27.316 13.6527C27.2965 13.6628 27.2793 13.6767 27.2654 13.6935C27.2514 13.7103 27.241 13.7297 27.2347 13.7506C27.2284 13.7715 27.2264 13.7934 27.2287 13.8151C27.2604 14.1357 27.2778 14.462 27.2835 14.7855C27.2835 14.8288 27.3008 14.8703 27.3316 14.9009C27.3624 14.9315 27.4042 14.9487 27.4478 14.9487C27.4916 14.9479 27.5333 14.9301 27.5641 14.899C27.5948 14.868 27.612 14.8262 27.612 14.7826C27.612 14.4477 27.5861 14.1128 27.5543 13.7836C27.5508 13.7434 27.5323 13.7058 27.5025 13.6783C27.4727 13.6509 27.4337 13.6353 27.393 13.6347H27.3757H27.3786ZM2.85732 12.026C2.7766 12.3494 2.71034 12.6787 2.65849 13.005C2.65478 13.0264 2.65549 13.0484 2.66046 13.0696C2.66543 13.0908 2.67465 13.1108 2.68753 13.1284C2.70047 13.146 2.71673 13.1608 2.7355 13.1721C2.75428 13.1834 2.77513 13.1908 2.7968 13.1939H2.82272C2.86207 13.1936 2.9 13.1793 2.92964 13.1535C2.95922 13.1278 2.97854 13.0924 2.98411 13.0537C3.03596 12.7359 3.10221 12.4153 3.18004 12.1004C3.18512 12.0793 3.18599 12.0575 3.1825 12.0361C3.17901 12.0147 3.17131 11.9942 3.15974 11.9758C3.14822 11.9575 3.13311 11.9415 3.11531 11.929C3.09752 11.9165 3.07738 11.9076 3.05615 11.9029H3.01866C2.98149 11.9031 2.94547 11.9155 2.91621 11.9384C2.88701 11.9612 2.86627 11.993 2.85732 12.0289V12.026ZM26.9983 11.7139C26.9561 11.7254 26.9201 11.7528 26.898 11.7902C26.8759 11.8276 26.8695 11.8722 26.8801 11.9143C26.9637 12.2263 27.0328 12.5469 27.0904 12.8647C27.0972 12.9031 27.1174 12.9379 27.1474 12.9631C27.1774 12.9882 27.2154 13.002 27.2547 13.0021H27.2835C27.3265 12.9938 27.3645 12.969 27.3892 12.9331C27.414 12.8973 27.4236 12.8532 27.416 12.8103C27.3584 12.484 27.2864 12.1548 27.2028 11.8342C27.1933 11.7989 27.1724 11.7677 27.1432 11.7454C27.114 11.7232 27.0783 11.7111 27.0415 11.7111H26.9983V11.7139ZM3.49125 10.1195C3.36157 10.4229 3.24052 10.7378 3.13682 11.0527C3.12956 11.0731 3.12656 11.0949 3.12787 11.1165C3.12918 11.1382 3.13485 11.1594 3.14451 11.1788C3.15417 11.1983 3.16765 11.2156 3.18414 11.2298C3.20062 11.2441 3.21978 11.2549 3.24052 11.2617C3.25771 11.2644 3.27523 11.2644 3.29242 11.2617C3.32724 11.2618 3.36124 11.2511 3.38968 11.2311C3.41806 11.211 3.43945 11.1827 3.45086 11.15C3.55172 10.8437 3.66699 10.5346 3.79667 10.2369C3.81299 10.1966 3.81277 10.1515 3.79607 10.1114C3.77942 10.0713 3.74755 10.0392 3.70732 10.0222C3.68735 10.0134 3.66579 10.0086 3.64396 10.0079C3.61105 10.0079 3.57885 10.0177 3.55161 10.036C3.52438 10.0544 3.50336 10.0805 3.49125 10.1109V10.1195ZM26.3182 9.85039C26.2982 9.85907 26.2802 9.87165 26.2651 9.88732C26.25 9.90299 26.2383 9.92153 26.2305 9.94176C26.2227 9.96203 26.2191 9.98361 26.2198 10.0053C26.2205 10.0269 26.2255 10.0482 26.2347 10.068C26.3672 10.3542 26.4882 10.6663 26.5948 10.9697C26.6061 11.0019 26.6271 11.0299 26.6549 11.0499C26.6827 11.0699 26.7161 11.0808 26.7504 11.0813C26.7684 11.0856 26.7872 11.0856 26.8052 11.0813C26.8466 11.067 26.8807 11.037 26.9001 10.9979C26.9196 10.9588 26.9227 10.9137 26.9089 10.8724C26.7965 10.5603 26.6726 10.2483 26.5372 9.9449C26.525 9.91557 26.5042 9.89057 26.4775 9.87317C26.4507 9.85581 26.4193 9.84687 26.3874 9.84757C26.3647 9.8422 26.341 9.8422 26.3182 9.84757V9.85039ZM4.41907 8.34758C4.24328 8.63382 4.07327 8.92005 3.91767 9.20635C3.90762 9.22532 3.90146 9.24609 3.89949 9.26745C3.89758 9.28876 3.89987 9.31029 3.90626 9.33078C3.9127 9.35128 3.92312 9.37026 3.93693 9.38674C3.95074 9.40323 3.96771 9.41678 3.98682 9.42676C4.0111 9.43869 4.03757 9.44552 4.06465 9.44682C4.09494 9.4466 4.12463 9.43825 4.1505 9.42264C4.17637 9.40702 4.19749 9.38468 4.21157 9.35806C4.36144 9.07182 4.52567 8.78553 4.70146 8.51361C4.72351 8.47647 4.73039 8.43233 4.72078 8.39025C4.71112 8.34823 4.68563 8.31142 4.64956 8.28745C4.62265 8.27107 4.59181 8.26213 4.56027 8.26169C4.532 8.26142 4.50416 8.26842 4.47944 8.28192C4.45472 8.29547 4.43392 8.3151 4.41907 8.33896V8.34758ZM25.3472 8.12142C25.3102 8.14544 25.2843 8.18296 25.2751 8.22591C25.2659 8.2688 25.2742 8.31358 25.2982 8.3504C25.4739 8.6195 25.644 8.90005 25.7996 9.18628C25.8138 9.21258 25.835 9.23454 25.861 9.24967C25.8868 9.2648 25.9165 9.2726 25.9465 9.27217C25.9738 9.27239 26.0006 9.26545 26.0243 9.25216C26.0436 9.24197 26.0605 9.22803 26.0744 9.21123C26.0881 9.19447 26.0984 9.17511 26.1046 9.15429C26.1108 9.13353 26.1127 9.11173 26.1103 9.0902C26.1079 9.06862 26.1012 9.0478 26.0906 9.02888C25.9321 8.74259 25.7563 8.45635 25.5748 8.17006C25.5507 8.13416 25.5134 8.10895 25.4709 8.0999C25.4284 8.09079 25.3841 8.09854 25.3472 8.12142ZM5.6264 6.74739C5.40743 6.99643 5.19419 7.25691 4.99247 7.52314C4.97954 7.54038 4.97015 7.56006 4.96491 7.58094C4.95962 7.60182 4.95858 7.6235 4.9618 7.64481C4.96502 7.66607 4.97244 7.68651 4.98363 7.70495C4.99482 7.72338 5.00956 7.73943 5.02708 7.75217C5.0548 7.7744 5.08935 7.78655 5.12504 7.78649C5.1508 7.78682 5.17629 7.78102 5.19932 7.76958C5.22241 7.75814 5.24239 7.74138 5.25756 7.72067C5.45349 7.46019 5.661 7.2054 5.87418 6.96493C5.88963 6.94974 5.90185 6.93169 5.9102 6.91179C5.91855 6.89189 5.92287 6.87058 5.92287 6.849C5.92287 6.82742 5.91855 6.80611 5.9102 6.78621C5.90185 6.76631 5.88963 6.74826 5.87418 6.73307C5.8446 6.70531 5.80541 6.68997 5.7647 6.69013C5.74117 6.69046 5.71793 6.69571 5.69658 6.70558C5.67524 6.71545 5.65625 6.72971 5.64081 6.74739H5.6264ZM24.1139 6.58705C24.0985 6.60224 24.0862 6.62029 24.0779 6.64019C24.0695 6.66009 24.0652 6.68145 24.0652 6.70303C24.0652 6.72456 24.0695 6.74592 24.0779 6.76582C24.0862 6.78572 24.0985 6.80378 24.1139 6.81896C24.3329 7.05938 24.5432 7.31129 24.742 7.56608C24.7571 7.58604 24.7767 7.60214 24.7992 7.61309C24.8218 7.62405 24.8466 7.62952 24.8717 7.62903C24.9091 7.62903 24.9455 7.617 24.9754 7.59471C24.9925 7.58154 25.0068 7.56522 25.0174 7.54656C25.0281 7.52791 25.0349 7.50741 25.0376 7.48616C25.0403 7.46485 25.0387 7.44327 25.033 7.42261C25.0273 7.40195 25.0175 7.3826 25.0042 7.36568C24.7997 7.10232 24.5836 6.84472 24.3588 6.59855C24.3428 6.58179 24.3236 6.56835 24.3024 6.55902C24.2811 6.54964 24.2582 6.5446 24.2349 6.54417C24.1934 6.54411 24.1533 6.5594 24.1225 6.58705H24.1139ZM7.06999 5.35617C6.81358 5.56801 6.56001 5.7913 6.32085 6.02315C6.3054 6.03833 6.29318 6.05639 6.28483 6.07629C6.27648 6.09618 6.27217 6.11755 6.27217 6.13907C6.27217 6.16065 6.27648 6.18202 6.28483 6.20192C6.29318 6.22182 6.3054 6.23987 6.32085 6.255C6.33597 6.26997 6.35398 6.28173 6.37373 6.28959C6.39355 6.29746 6.41478 6.30131 6.43606 6.30082C6.47885 6.3 6.51979 6.28368 6.55133 6.255C6.78476 6.0289 7.02965 5.8113 7.28033 5.60521C7.29736 5.5916 7.3115 5.57479 7.32187 5.5557C7.33229 5.53662 7.33873 5.51569 7.34091 5.49411C7.34304 5.47253 7.3408 5.45067 7.33436 5.42996C7.32798 5.40924 7.31744 5.38999 7.30342 5.37335C7.28819 5.35448 7.26893 5.33928 7.24693 5.32887C7.22499 5.31845 7.20097 5.31311 7.17663 5.31323C7.13805 5.31425 7.10077 5.32727 7.06999 5.35045V5.35617ZM22.6501 5.25312C22.6363 5.2697 22.6261 5.28887 22.6199 5.30948C22.6137 5.33008 22.6118 5.35172 22.6142 5.37308C22.6166 5.39445 22.6233 5.41512 22.634 5.43387C22.6446 5.45257 22.6589 5.469 22.676 5.48212C22.9296 5.68535 23.1803 5.90006 23.4166 6.12048C23.4471 6.149 23.4871 6.16526 23.5289 6.16629C23.5519 6.16667 23.5747 6.16196 23.5956 6.15258C23.6165 6.14314 23.6351 6.12926 23.65 6.11191C23.6654 6.09673 23.6776 6.07867 23.686 6.05877C23.6944 6.03887 23.6986 6.01751 23.6986 5.99598C23.6986 5.9744 23.6944 5.95304 23.686 5.93314C23.6776 5.91324 23.6654 5.89518 23.65 5.88C23.4051 5.6539 23.1486 5.43349 22.8893 5.22736C22.86 5.20344 22.8234 5.1903 22.7855 5.19014C22.7605 5.19034 22.7359 5.19611 22.7135 5.20701C22.6911 5.21791 22.6714 5.23366 22.6559 5.25312H22.6501ZM8.71819 4.21401C8.43008 4.38003 8.1419 4.56324 7.87108 4.75217C7.8426 4.77259 7.82137 4.80138 7.81034 4.83447C7.79926 4.86756 7.79899 4.90326 7.80952 4.93651C7.82005 4.96977 7.84085 4.99889 7.86896 5.01975C7.89706 5.04061 7.93107 5.05215 7.96616 5.05274C7.99989 5.05202 8.03275 5.04212 8.06124 5.02411C8.32921 4.83804 8.60582 4.66057 8.88531 4.4974C8.90447 4.48672 8.92128 4.47234 8.93476 4.4551C8.94818 4.43785 8.95806 4.41811 8.96368 4.39703C8.96931 4.37594 8.97067 4.35395 8.96761 4.33234C8.9645 4.31074 8.95714 4.28997 8.94584 4.27125C8.93088 4.24664 8.90971 4.22632 8.88449 4.21227C8.85922 4.19822 8.83073 4.19092 8.80175 4.1911C8.77239 4.19156 8.74368 4.19945 8.71819 4.21401ZM20.9904 4.17679C20.9793 4.19546 20.9721 4.21617 20.9693 4.23768C20.9664 4.25918 20.968 4.28103 20.974 4.30191C20.9799 4.32279 20.99 4.34225 21.0037 4.35912C21.0175 4.37599 21.0345 4.38992 21.0538 4.40007C21.3419 4.56037 21.6301 4.73213 21.8865 4.91247C21.9135 4.93132 21.9457 4.94132 21.9787 4.9411C22.0059 4.94124 22.0327 4.9348 22.0568 4.92233C22.0809 4.90986 22.1016 4.89173 22.1171 4.86954C22.1294 4.85158 22.138 4.83134 22.1424 4.81002C22.1468 4.7887 22.1469 4.76672 22.1425 4.74538C22.1382 4.72404 22.1297 4.70377 22.1174 4.68577C22.1051 4.66776 22.0893 4.65238 22.0709 4.64053C21.7828 4.45446 21.4947 4.27698 21.2065 4.11381C21.1819 4.10012 21.154 4.0932 21.1258 4.09377C21.0965 4.09359 21.0677 4.1012 21.0424 4.11579C21.017 4.13039 20.9961 4.15145 20.9817 4.17679H20.9904ZM10.5278 3.34664C10.2166 3.46687 9.90827 3.60141 9.60569 3.74454C9.57097 3.75997 9.54276 3.78689 9.52578 3.8207C9.50887 3.85451 9.50423 3.89313 9.51274 3.92994C9.5212 3.96676 9.54232 3.99951 9.57239 4.0226C9.60252 4.0457 9.63974 4.05769 9.67773 4.05656C9.70278 4.05636 9.72739 4.05049 9.74977 4.03938C10.0379 3.89912 10.3463 3.7703 10.6488 3.65294C10.6689 3.64505 10.6872 3.63331 10.7027 3.61839C10.7182 3.60347 10.7305 3.58567 10.7391 3.566C10.7476 3.54633 10.7522 3.52517 10.7525 3.50374C10.7529 3.48232 10.7489 3.46103 10.741 3.44111C10.7297 3.40994 10.7089 3.38302 10.6816 3.36405C10.6542 3.34508 10.6217 3.33501 10.5883 3.33519C10.5683 3.33111 10.5477 3.33111 10.5278 3.33519V3.34664ZM19.1722 3.36096C19.1644 3.38123 19.1607 3.40286 19.1614 3.42456C19.1621 3.44626 19.1672 3.46759 19.1763 3.48732C19.1855 3.50705 19.1985 3.52477 19.2146 3.53945C19.2307 3.55412 19.2496 3.56546 19.2702 3.57278C19.5756 3.68443 19.881 3.81038 20.1749 3.94492C20.1977 3.95028 20.2213 3.95028 20.2441 3.94492C20.2818 3.94536 20.3186 3.93286 20.3481 3.90953C20.3777 3.88621 20.3983 3.85348 20.4064 3.81685C20.4145 3.78023 20.4097 3.74193 20.3927 3.70843C20.3757 3.67493 20.3477 3.64826 20.3133 3.6329C20.0107 3.49263 19.6995 3.36382 19.3854 3.24931H19.3278C19.294 3.24853 19.2607 3.25832 19.2328 3.27733C19.2048 3.29634 19.1837 3.32359 19.1722 3.35523V3.36096ZM12.4555 2.77986C12.1299 2.84855 11.8014 2.92871 11.4815 3.02317C11.4392 3.03577 11.4035 3.06453 11.3825 3.10316C11.3614 3.14179 11.3566 3.18714 11.3692 3.22928C11.3791 3.26328 11.4001 3.29312 11.4286 3.3143C11.4572 3.33547 11.492 3.34683 11.5277 3.34664H11.5737C11.8849 3.25218 12.2048 3.17203 12.5246 3.10619C12.5689 3.10125 12.6095 3.07902 12.6373 3.0444C12.6652 3.00977 12.678 2.96559 12.673 2.92155C12.6681 2.87751 12.6457 2.83725 12.6108 2.8096C12.576 2.78195 12.5315 2.7692 12.4872 2.77413H12.4526L12.4555 2.77986ZM17.256 2.86287C17.2518 2.8843 17.2519 2.90633 17.2563 2.92772C17.2607 2.94911 17.2693 2.96942 17.2817 2.9875C17.2939 3.00558 17.3097 3.02107 17.3281 3.03309C17.3464 3.0451 17.367 3.0534 17.3885 3.05753C17.7084 3.11764 18.0282 3.19207 18.3394 3.2808H18.3856C18.4215 3.28034 18.4562 3.2684 18.4848 3.24674C18.5133 3.22509 18.5341 3.19487 18.544 3.16057C18.5501 3.13971 18.552 3.11785 18.5495 3.09626C18.547 3.07468 18.5402 3.0538 18.5294 3.03487C18.5187 3.01594 18.5043 2.99933 18.487 2.98601C18.4697 2.9727 18.4499 2.96295 18.4288 2.95733C18.1089 2.86859 17.7776 2.7913 17.4519 2.72833H17.4202C17.3819 2.72868 17.3449 2.74188 17.3151 2.76578C17.2853 2.78968 17.2644 2.82288 17.256 2.86001V2.86287ZM14.4465 2.51649C14.1123 2.53367 13.7752 2.5623 13.4438 2.60523C13.4003 2.60827 13.3597 2.62838 13.3311 2.66112C13.3024 2.69387 13.288 2.73658 13.2911 2.77986C13.2941 2.82313 13.3144 2.86342 13.3473 2.89188C13.3803 2.92033 13.4233 2.9346 13.4669 2.93157H13.4871C13.8098 2.88958 14.1354 2.86096 14.4638 2.84569C14.4856 2.84498 14.5069 2.83992 14.5266 2.83081C14.5463 2.82171 14.5639 2.80875 14.5785 2.79271C14.593 2.77668 14.6041 2.75789 14.6112 2.73748C14.6182 2.71707 14.621 2.69546 14.6194 2.67394C14.618 2.63116 14.5996 2.59069 14.5683 2.56124C14.5371 2.53179 14.4954 2.51572 14.4523 2.51649H14.4465ZM15.288 2.66821C15.2872 2.68988 15.2908 2.71148 15.2985 2.73175C15.3062 2.75202 15.3179 2.77057 15.3329 2.78629C15.348 2.80201 15.366 2.81461 15.386 2.82333C15.406 2.83205 15.4275 2.83674 15.4493 2.8371C15.7749 2.8371 16.1034 2.87146 16.4261 2.90581H16.4434C16.4821 2.9005 16.5178 2.88186 16.5441 2.85314C16.5705 2.82441 16.5858 2.78742 16.5876 2.74861C16.5893 2.70979 16.5772 2.6716 16.5535 2.6407C16.5298 2.60979 16.496 2.58813 16.4579 2.57947C16.1265 2.54226 15.7893 2.51936 15.4551 2.51077C15.412 2.50999 15.3703 2.52606 15.3391 2.55551C15.3078 2.58497 15.2894 2.62544 15.288 2.66821Z" fill="white"/>
</svg>
