<svg width="116" height="82" viewBox="0 0 116 82" fill="none" xmlns="http://www.w3.org/2000/svg">
<path d="M15.9385 62.6523C16.2687 62.8272 16.4532 63.0894 16.4921 63.4391C16.5504 63.7887 16.4629 64.1092 16.2298 64.4006C16.055 64.6532 15.8316 64.7891 15.5597 64.8086C15.2877 64.828 15.0158 64.7697 14.7438 64.6337C14.1028 64.2452 13.4132 63.9441 12.675 63.7305C11.9368 63.4973 11.1598 63.3808 10.344 63.3808C9.19788 63.3808 8.14891 63.5848 7.19707 63.9927C6.24523 64.3812 5.41966 64.9348 4.72035 65.6536C4.02104 66.3723 3.47713 67.227 3.08862 68.2177C2.70012 69.2084 2.50586 70.3059 2.50586 71.5103C2.50586 72.7924 2.70983 73.9384 3.11776 74.9486C3.52569 75.9587 4.07931 76.8231 4.77862 77.5418C5.49736 78.2411 6.32293 78.7753 7.25535 79.1444C8.20719 79.5135 9.23673 79.698 10.344 79.698C11.1404 79.698 11.9077 79.5912 12.6459 79.3775C13.384 79.1638 14.0833 78.853 14.7438 78.4451C15.0158 78.3091 15.2877 78.2606 15.5597 78.2994C15.8316 78.3383 16.0647 78.4743 16.259 78.7074C16.4921 79.0182 16.5795 79.3484 16.5212 79.698C16.4629 80.0283 16.2784 80.2711 15.9676 80.4265C15.482 80.7179 14.9283 80.9898 14.3067 81.2424C13.6851 81.4755 13.0344 81.66 12.3545 81.796C11.694 81.932 11.0239 81.9999 10.344 81.9999C8.94535 81.9999 7.62443 81.7571 6.38121 81.2715C5.13799 80.7859 4.04046 80.0866 3.08862 79.1736C2.13678 78.2606 1.3792 77.163 0.815863 75.881C0.271954 74.5795 0 73.1226 0 71.5103C0 69.9951 0.262241 68.6062 0.786724 67.3436C1.31121 66.0809 2.03966 64.9834 2.97207 64.051C3.92391 63.1186 5.02144 62.3901 6.26466 61.8656C7.5273 61.3411 8.88707 61.0789 10.344 61.0789C11.3541 61.0789 12.3351 61.2149 13.2869 61.4868C14.2582 61.7588 15.142 62.1473 15.9385 62.6523Z" fill="white"/>
<path d="M35.3889 74.1327C35.3889 75.6479 35.049 76.9979 34.3691 78.1829C33.7087 79.3678 32.8054 80.3002 31.6593 80.9801C30.5326 81.66 29.2603 81.9999 27.8422 81.9999C26.4242 81.9999 25.1421 81.66 23.996 80.9801C22.8499 80.3002 21.9369 79.3678 21.257 78.1829C20.5966 76.9979 20.2663 75.6479 20.2663 74.1327C20.2663 72.6175 20.5966 71.2675 21.257 70.0825C21.9369 68.8976 22.8499 67.9652 23.996 67.2853C25.1421 66.6054 26.4242 66.2655 27.8422 66.2655C29.2603 66.2655 30.5326 66.6054 31.6593 67.2853C32.8054 67.9652 33.7087 68.8976 34.3691 70.0825C35.049 71.2675 35.3889 72.6175 35.3889 74.1327ZM33.0579 74.1327C33.0579 73.006 32.8248 72.0153 32.3586 71.1606C31.9118 70.3059 31.2902 69.6357 30.4938 69.1501C29.7168 68.6645 28.8329 68.4217 27.8422 68.4217C26.8515 68.4217 25.958 68.6645 25.1615 69.1501C24.3845 69.6357 23.7629 70.3059 23.2967 71.1606C22.8305 72.0153 22.5974 73.006 22.5974 74.1327C22.5974 75.2399 22.8305 76.2209 23.2967 77.0756C23.7629 77.9303 24.3845 78.6102 25.1615 79.1153C25.958 79.6009 26.8515 79.8437 27.8422 79.8437C28.8329 79.8437 29.7168 79.6009 30.4938 79.1153C31.2902 78.6102 31.9118 77.9303 32.3586 77.0756C32.8248 76.2209 33.0579 75.2399 33.0579 74.1327Z" fill="white"/>
<path d="M47.8404 66.2655C49.1613 66.2655 50.2006 66.5374 50.9582 67.0813C51.7157 67.6252 52.2499 68.3537 52.5607 69.2667C52.891 70.1797 53.0561 71.1995 53.0561 72.3261V80.5139C53.0561 80.8441 52.9395 81.1258 52.7064 81.3589C52.4928 81.592 52.2208 81.7086 51.8906 81.7086C51.5603 81.7086 51.2787 81.592 51.0456 81.3589C50.8319 81.1258 50.7251 80.8441 50.7251 80.5139V72.3844C50.7251 71.6463 50.6085 70.9858 50.3754 70.403C50.1617 69.8009 49.7926 69.3249 49.2682 68.9753C48.7631 68.6062 48.0638 68.4217 47.1702 68.4217C46.3544 68.4217 45.6065 68.6062 44.9266 68.9753C44.2467 69.3249 43.7028 69.8009 43.2949 70.403C42.887 70.9858 42.683 71.6463 42.683 72.3844V80.5139C42.683 80.8441 42.5664 81.1258 42.3333 81.3589C42.1197 81.592 41.8477 81.7086 41.5175 81.7086C41.1872 81.7086 40.9056 81.592 40.6725 81.3589C40.4588 81.1258 40.352 80.8441 40.352 80.5139V67.8098C40.352 67.4795 40.4588 67.2076 40.6725 66.9939C40.9056 66.7608 41.1872 66.6442 41.5175 66.6442C41.8671 66.6442 42.1488 66.7608 42.3625 66.9939C42.5761 67.2076 42.683 67.4795 42.683 67.8098V69.8786L42.1002 70.5196C42.1974 70.0145 42.4207 69.5095 42.7704 69.0044C43.1201 68.4799 43.5571 68.0137 44.0816 67.6058C44.6061 67.1979 45.1889 66.8774 45.8299 66.6442C46.4709 66.3917 47.1411 66.2655 47.8404 66.2655Z" fill="white"/>
<path d="M57.9799 79.3193C57.8051 79.0667 57.7274 78.8045 57.7468 78.5325C57.7663 78.2411 57.9314 77.9886 58.2422 77.7749C58.4364 77.639 58.6598 77.5807 58.9124 77.6001C59.1843 77.6195 59.4271 77.7458 59.6408 77.9789C60.1847 78.6199 60.8063 79.1347 61.5056 79.5232C62.2049 79.8923 63.0597 80.0768 64.0698 80.0768C64.536 80.0574 65.0022 79.9797 65.4684 79.8437C65.9346 79.7078 66.3231 79.4747 66.6339 79.1444C66.9641 78.7948 67.1293 78.3383 67.1293 77.7749C67.1293 77.231 66.9641 76.8037 66.6339 76.4929C66.3037 76.1626 65.8763 75.9004 65.3518 75.7061C64.8274 75.4925 64.2543 75.3079 63.6327 75.1525C62.9917 74.9777 62.3603 74.7834 61.7387 74.5698C61.1171 74.3367 60.5538 74.055 60.0487 73.7248C59.5631 73.3751 59.1649 72.9478 58.8541 72.4427C58.5627 71.9182 58.417 71.2869 58.417 70.5487C58.417 69.6746 58.6501 68.917 59.1163 68.276C59.602 67.6349 60.243 67.1396 61.0394 66.7899C61.8553 66.4403 62.7391 66.2655 63.691 66.2655C64.2349 66.2655 64.7982 66.3334 65.381 66.4694C65.9832 66.586 66.5659 66.7996 67.1293 67.1105C67.6926 67.4018 68.1879 67.8098 68.6153 68.3342C68.7901 68.5285 68.8873 68.7713 68.9067 69.0627C68.9261 69.3541 68.7998 69.6163 68.5279 69.8494C68.3142 70.0048 68.0714 70.0728 67.7994 70.0534C67.5469 70.034 67.3332 69.9368 67.1584 69.762C66.7505 69.2764 66.2357 68.9073 65.6141 68.6548C65.0119 68.3828 64.3417 68.2468 63.6036 68.2468C63.1374 68.2468 62.6809 68.3148 62.2341 68.4508C61.7873 68.5868 61.4085 68.8199 61.0977 69.1501C60.8063 69.4609 60.6606 69.898 60.6606 70.4613C60.6801 70.9858 60.8549 71.4132 61.1851 71.7434C61.5153 72.0736 61.9621 72.3456 62.5255 72.5592C63.0888 72.7535 63.7104 72.9478 64.3903 73.142C65.0119 73.2974 65.6044 73.482 66.1677 73.6956C66.7505 73.8899 67.275 74.1521 67.7412 74.4824C68.2074 74.8126 68.5764 75.2399 68.8484 75.7644C69.1204 76.2695 69.2563 76.9105 69.2563 77.6875C69.2563 78.5811 69.0038 79.3581 68.4987 80.0186C67.9937 80.6596 67.3235 81.1549 66.4882 81.5046C65.6724 81.8348 64.7885 81.9999 63.8367 81.9999C62.7683 81.9999 61.7096 81.796 60.6606 81.388C59.6311 80.9801 58.7375 80.2905 57.9799 79.3193Z" fill="white"/>
<path d="M88.3893 74.1327C88.3893 75.6479 88.0493 76.9979 87.3694 78.1829C86.709 79.3678 85.8057 80.3002 84.6596 80.9801C83.5329 81.66 82.2606 81.9999 80.8425 81.9999C79.4245 81.9999 78.1424 81.66 76.9963 80.9801C75.8502 80.3002 74.9372 79.3678 74.2574 78.1829C73.5969 76.9979 73.2667 75.6479 73.2667 74.1327C73.2667 72.6175 73.5969 71.2675 74.2574 70.0825C74.9372 68.8976 75.8502 67.9652 76.9963 67.2853C78.1424 66.6054 79.4245 66.2655 80.8425 66.2655C82.2606 66.2655 83.5329 66.6054 84.6596 67.2853C85.8057 67.9652 86.709 68.8976 87.3694 70.0825C88.0493 71.2675 88.3893 72.6175 88.3893 74.1327ZM86.0582 74.1327C86.0582 73.006 85.8251 72.0153 85.3589 71.1606C84.9121 70.3059 84.2905 69.6357 83.4941 69.1501C82.7171 68.6645 81.8332 68.4217 80.8425 68.4217C79.8518 68.4217 78.9583 68.6645 78.1618 69.1501C77.3848 69.6357 76.7632 70.3059 76.297 71.1606C75.8308 72.0153 75.5977 73.006 75.5977 74.1327C75.5977 75.2399 75.8308 76.2209 76.297 77.0756C76.7632 77.9303 77.3848 78.6102 78.1618 79.1153C78.9583 79.6009 79.8518 79.8437 80.8425 79.8437C81.8332 79.8437 82.7171 79.6009 83.4941 79.1153C84.2905 78.6102 84.9121 77.9303 85.3589 77.0756C85.8251 76.2209 86.0582 75.2399 86.0582 74.1327Z" fill="white"/>
<path d="M95.9164 80.5139C95.9164 80.8441 95.7999 81.1258 95.5667 81.3589C95.3336 81.592 95.052 81.7086 94.7217 81.7086C94.3915 81.7086 94.1196 81.592 93.9059 81.3589C93.6922 81.1258 93.5854 80.8441 93.5854 80.5139V61.312C93.5854 60.9818 93.6922 60.7098 93.9059 60.4961C94.139 60.263 94.4207 60.1465 94.7509 60.1465C95.1005 60.1465 95.3822 60.263 95.5959 60.4961C95.8096 60.7098 95.9164 60.9818 95.9164 61.312V80.5139Z" fill="white"/>
<path d="M114.307 66.4986C114.637 66.4986 114.909 66.6151 115.123 66.8482C115.356 67.0619 115.473 67.3338 115.473 67.6641V80.5139C115.473 80.8441 115.356 81.1258 115.123 81.3589C114.909 81.592 114.637 81.7086 114.307 81.7086C113.958 81.7086 113.676 81.592 113.462 81.3589C113.249 81.1258 113.142 80.8441 113.142 80.5139V77.7458L113.695 77.6875C113.695 78.1149 113.55 78.5811 113.258 79.0861C112.967 79.5912 112.569 80.0671 112.064 80.5139C111.559 80.9413 110.956 81.3006 110.257 81.592C109.577 81.864 108.839 81.9999 108.043 81.9999C106.722 81.9999 105.537 81.66 104.488 80.9801C103.439 80.2808 102.603 79.3387 101.982 78.1537C101.38 76.9688 101.079 75.6187 101.079 74.1036C101.079 72.569 101.38 71.2189 101.982 70.0534C102.603 68.8684 103.439 67.9457 104.488 67.2853C105.537 66.6054 106.702 66.2655 107.984 66.2655C108.82 66.2655 109.597 66.4014 110.315 66.6734C111.034 66.9453 111.656 67.3144 112.18 67.7806C112.724 68.2468 113.142 68.7616 113.433 69.3249C113.744 69.8883 113.899 70.4516 113.899 71.0149L113.142 70.8401V67.6641C113.142 67.3338 113.249 67.0619 113.462 66.8482C113.676 66.6151 113.958 66.4986 114.307 66.4986ZM108.305 79.8437C109.276 79.8437 110.131 79.5912 110.869 79.0861C111.627 78.5811 112.209 77.9012 112.617 77.0465C113.045 76.1724 113.258 75.1914 113.258 74.1036C113.258 73.0352 113.045 72.0736 112.617 71.2189C112.209 70.3448 111.627 69.6649 110.869 69.1792C110.131 68.6742 109.276 68.4217 108.305 68.4217C107.353 68.4217 106.498 68.6645 105.741 69.1501C105.003 69.6357 104.42 70.3059 103.992 71.1606C103.565 72.0153 103.351 72.9963 103.351 74.1036C103.351 75.1914 103.555 76.1724 103.963 77.0465C104.391 77.9012 104.973 78.5811 105.712 79.0861C106.469 79.5912 107.334 79.8437 108.305 79.8437Z" fill="white"/>
<path d="M54.3057 40.9884L54.9449 37.9876C55.7701 38.1423 56.607 38.2269 57.4466 38.2408V41.3106C56.3921 41.2947 55.3411 41.187 54.3057 40.9884ZM57.9793 38.227C58.8505 38.2157 59.7187 38.1263 60.5737 37.9601L61.2315 40.9654C60.1631 41.1753 59.0776 41.2877 57.9886 41.3013L57.9793 38.227ZM50.808 39.9298L52.0588 37.1224C52.8321 37.4412 53.6319 37.6923 54.4492 37.8727L53.81 40.8733C52.7832 40.6576 51.7784 40.3496 50.808 39.9528V39.9298ZM61.1157 37.8727C61.949 37.6799 62.7643 37.4166 63.5524 37.0856L64.8264 39.8746C63.8417 40.2986 62.8197 40.6314 61.7735 40.8687L61.1157 37.8727ZM47.9959 38.4387L49.7286 35.9029C50.3121 36.2788 50.9221 36.6125 51.5538 36.9015L50.3076 39.7044C49.5037 39.3446 48.7292 38.9229 47.9913 38.4433L47.9959 38.4387ZM64.0064 36.8233C64.625 36.5355 65.2226 36.2048 65.7946 35.8338L67.5458 38.3605C66.8236 38.8312 66.068 39.2497 65.2851 39.6123L64.0064 36.8233ZM45.36 36.3631L47.5651 34.1816C48.1083 34.6991 48.6907 35.1745 49.307 35.6037L47.5651 38.1441C46.7827 37.6108 46.0452 37.0151 45.36 36.3631ZM66.2348 35.553C66.8161 35.1399 67.3672 34.6862 67.884 34.1954L70.0706 36.3631C69.418 36.986 68.7196 37.5599 67.9812 38.0797L66.2348 35.553ZM43.2428 33.91L45.7862 32.1704C46.2083 32.7497 46.6728 33.2973 47.176 33.8088L44.994 35.9765C44.3616 35.3337 43.7808 34.6427 43.2567 33.91H43.2428ZM68.2731 33.8088C68.7981 33.2718 69.2798 32.6947 69.7139 32.0829L72.2711 33.7996C71.7261 34.5729 71.1188 35.3009 70.4551 35.9765L68.2731 33.8088ZM41.6492 31.2361L44.4613 29.9704C44.756 30.5896 45.0934 31.1878 45.4711 31.7608L42.9324 33.482C42.4548 32.7643 42.0291 32.0138 41.6584 31.2361H41.6492ZM70.0242 31.6503C70.4064 31.0712 70.7455 30.4652 71.0388 29.837L73.8647 31.075C73.4952 31.8728 73.0663 32.6419 72.5815 33.3762L70.0242 31.6503ZM40.3984 27.7199L43.3957 27.0665C43.5947 27.8973 43.8676 28.7089 44.2111 29.4919L41.4037 30.7575C40.9666 29.7794 40.6238 28.7623 40.3798 27.7199H40.3984ZM71.2426 29.3584C71.5691 28.5885 71.8295 27.7925 72.0209 26.979L75.06 27.6187C74.8255 28.6395 74.4999 29.6376 74.0871 30.601L71.2426 29.3584ZM39.912 23.9645H43.0019C43.0164 24.8347 43.1094 25.7018 43.2799 26.5555L40.264 27.2091C40.0489 26.148 39.9311 25.0697 39.912 23.9875V23.9645ZM72.1599 26.4866C72.3203 25.6625 72.4101 24.8265 72.4286 23.9875H75.514C75.4994 25.0399 75.3892 26.0889 75.185 27.1217L72.1599 26.4866ZM40.2223 20.2965L43.2428 20.9316C43.0864 21.7574 43.0027 22.595 42.9927 23.4352H39.9027C39.9145 22.3816 40.0215 21.3311 40.2223 20.2965ZM72.1877 20.8395L75.2082 20.186C75.4206 21.2565 75.5322 22.3442 75.5417 23.4352H72.4518C72.4442 22.5638 72.3559 21.6949 72.1877 20.8395ZM40.3289 19.7948C40.555 18.768 40.8744 17.7636 41.2832 16.7942L44.1091 18.0367C43.7881 18.8112 43.5355 19.612 43.3541 20.43L40.3289 19.7948ZM71.2611 17.8987L74.0685 16.6284C74.4968 17.6156 74.8318 18.6403 75.0692 19.689L72.0533 20.3425C71.8638 19.5059 71.5986 18.6879 71.2611 17.8987ZM41.5102 16.2971C41.8763 15.4994 42.3021 14.7302 42.7842 13.9959L45.3461 15.7126C44.9643 16.3015 44.6253 16.9167 44.3315 17.5535L41.5102 16.2971ZM70.0242 15.6067L72.5723 13.8717C73.0494 14.5953 73.4736 15.3519 73.8415 16.136L71.0296 17.4016C70.7376 16.7805 70.4016 16.1807 70.0242 15.6067ZM43.0807 13.5449C43.6282 12.765 44.237 12.0294 44.9013 11.345L47.1018 13.5173C46.5724 14.061 46.0875 14.6457 45.6518 15.2662L43.0807 13.5449ZM68.3426 13.5127L70.5246 11.345C71.1565 11.9977 71.7388 12.6961 72.2665 13.4344L69.7231 15.1925C69.301 14.606 68.8366 14.0507 68.3334 13.5311L68.3426 13.5127ZM43.5069 23.6561C43.5032 20.8658 44.3326 18.1372 45.8902 15.8152C47.4478 13.4933 49.6635 11.6824 52.2573 10.6116C54.8509 9.54087 57.706 9.25842 60.4613 9.79986C63.2167 10.3413 65.7485 11.6824 67.7365 13.6535C69.7244 15.6246 71.0793 18.1372 71.6298 20.8734C72.1802 23.6096 71.9014 26.4465 70.8287 29.0252C69.756 31.604 67.9375 33.8088 65.6033 35.3607C63.2691 36.9126 60.524 37.7419 57.7153 37.7437C53.9477 37.7388 50.3361 36.2486 47.6739 33.6003C45.0115 30.9519 43.5161 27.3622 43.5161 23.6193L43.5069 23.6561ZM45.2766 10.9677C45.9289 10.3351 46.6306 9.75497 47.3752 9.23253L49.1217 11.7592C48.5343 12.1787 47.9784 12.6402 47.4585 13.1399L45.2766 10.9677ZM66.2162 11.6902L67.9488 9.14971C68.7325 9.69691 69.4714 10.3048 70.1586 10.9677L67.9767 13.1353C67.4289 12.6103 66.842 12.1272 66.2208 11.6902H66.2162ZM47.806 8.92881C48.5353 8.44953 49.2985 8.02346 50.0899 7.65398L51.3639 10.4476C50.7394 10.7426 50.1358 11.0793 49.5572 11.4555L47.806 8.92881ZM63.9369 10.3831L65.1831 7.57574C65.9862 7.94435 66.7605 8.37202 67.4995 8.85515L65.7668 11.3957C65.1742 11.0147 64.5549 10.6764 63.9138 10.3831H63.9369ZM50.5624 7.41466C51.5578 6.9846 52.5905 6.64569 53.6478 6.40216L54.301 9.39825C53.4588 9.59657 52.6357 9.8676 51.8411 10.2083L50.5624 7.41466ZM61.0369 9.37523L61.6762 6.37454C62.7131 6.60425 63.7271 6.92616 64.706 7.33642L63.4551 10.1439C62.6744 9.81887 61.8669 9.5617 61.0415 9.37523H61.0369ZM54.1667 6.2733C55.2482 6.05701 56.348 5.94298 57.4512 5.93272V8.99785C56.5691 9.01241 55.6901 9.10482 54.8245 9.27402L54.1667 6.2733ZM57.984 8.99785V5.93272C59.0508 5.94624 60.1144 6.05405 61.162 6.25488L60.5365 9.26016C59.6992 9.10246 58.85 9.01468 57.9979 8.99785H57.984ZM39.3607 23.6193C39.3598 27.2259 40.4355 30.7518 42.4517 33.751C44.468 36.7502 47.3343 39.088 50.6881 40.4689C54.0418 41.8497 57.7325 42.2114 61.2933 41.5084C64.854 40.8053 68.1249 39.069 70.6923 36.5191C73.2597 33.9692 75.0083 30.7201 75.7169 27.1829C76.4254 23.6457 76.0623 19.9792 74.6732 16.647C73.2841 13.3149 70.9316 10.4668 67.913 8.463C64.8945 6.45919 61.3457 5.38965 57.7153 5.38965C52.8497 5.39452 48.1846 7.31656 44.7436 10.7341C41.3027 14.1516 39.3668 18.7856 39.3607 23.6193Z" fill="white"/>
<path d="M49.3907 4.14666L50.2107 3.8291L51.0446 3.54837C51.1356 3.51585 51.2285 3.4882 51.3225 3.46552L51.4244 3.43331L51.8136 3.32285L52.1981 3.2262L52.6614 3.12496C52.9718 3.05132 53.2821 2.97308 53.5231 2.94086L53.8381 2.88103L54.2318 2.812C54.4681 2.77518 54.7878 2.73836 55.1028 2.69694C55.4178 2.65552 55.7421 2.63711 55.983 2.6187L56.3814 2.58649H56.4925H56.7798H57.6322H58.5587C58.6839 2.58649 58.7904 2.58649 58.8552 2.58649H58.9618H59.2722C59.5084 2.58649 59.8096 2.6187 60.1338 2.66473C60.4581 2.71075 60.7685 2.74297 61.0048 2.77978L61.3986 2.84881C61.3986 2.84881 62.0333 2.95467 62.654 3.10655C62.969 3.17098 63.2748 3.26302 63.5064 3.32746L63.8909 3.43791H63.9187C64.0128 3.46058 64.1056 3.48823 64.1967 3.52075L65.0306 3.80149L65.8644 4.14666C66.0914 4.23411 66.2351 4.30314 66.2351 4.30314L66.6011 4.46422C66.8188 4.56087 67.1106 4.69434 67.3933 4.84621C67.8565 5.07173 68.3198 5.30644 68.4495 5.41229L68.5143 5.44911L68.7923 5.6102C69.0008 5.72985 69.2555 5.90934 69.5382 6.07042C69.8207 6.2315 70.0617 6.43401 70.2609 6.56747L70.5897 6.79759L70.9048 7.0415C71.0901 7.19338 71.3681 7.37747 71.5904 7.58918L72.2529 8.16446L72.5448 8.4406L72.7764 8.66151C72.9571 8.82258 73.1701 9.05735 73.3926 9.2874C73.6149 9.51754 73.828 9.74768 73.9855 9.93633L74.2496 10.2355C74.2496 10.2355 74.3561 10.3551 74.4998 10.5438L75.0464 11.2342L75.556 11.9475C75.6255 12.0442 75.6765 12.127 75.7181 12.1868L75.7737 12.2789L75.9498 12.5458L76.1675 12.891C76.2463 13.0199 76.325 13.158 76.4038 13.296C76.5659 13.5721 76.728 13.8437 76.83 14.06L77.0153 14.4144C77.0153 14.4144 77.0848 14.557 77.196 14.7688L77.5573 15.5649C77.687 15.8549 77.7982 16.1586 77.8862 16.3796C77.9325 16.49 77.9696 16.582 77.9927 16.6465L78.0299 16.7477L78.1317 17.0514C78.2059 17.277 78.3264 17.5761 78.4051 17.8845L78.6459 18.7267C78.6969 18.9568 78.734 19.1133 78.734 19.1133C78.734 19.1133 78.7711 19.2652 78.822 19.4999C78.8729 19.7346 78.9332 20.0476 78.9888 20.3605C79.0166 20.517 79.049 20.6735 79.0722 20.8208C79.0954 20.968 79.1092 21.1061 79.1231 21.2257C79.1371 21.3454 79.1556 21.4743 79.1649 21.5387V21.6123C79.1649 21.6814 79.1649 21.7781 79.2019 21.9299C79.2019 22.1692 79.2436 22.4868 79.2714 22.8044C79.2992 23.1219 79.2714 23.4394 79.2992 23.6788C79.2992 23.7984 79.2992 23.8997 79.2992 23.9688V24.07C79.2992 24.1022 79.2992 24.2402 79.2992 24.4657C79.2992 24.5901 79.2992 24.7419 79.2992 24.8984C79.2992 25.0549 79.2992 25.2297 79.2992 25.3586C79.276 25.667 79.2529 25.9753 79.2344 26.2054C79.2344 26.3573 79.2066 26.4539 79.1973 26.523V26.5966C79.1973 26.6611 79.1741 26.7623 79.1556 26.9096C79.1371 27.0568 79.1231 27.1673 79.1046 27.3146C79.0861 27.4618 79.049 27.6183 79.0212 27.7748C78.9656 28.0878 78.9193 28.4053 78.8544 28.6355C78.7896 28.8655 78.7664 29.022 78.7664 29.022C78.7664 29.022 78.7294 29.1785 78.6784 29.4086L78.4375 30.2508C78.3587 30.5592 78.2383 30.8584 78.1642 31.0839C78.1132 31.2311 78.0807 31.3278 78.0622 31.3876C78.0437 31.4475 78.0622 31.4245 78.0252 31.4889C77.9882 31.5533 77.965 31.6454 77.9187 31.7558C77.8307 31.9767 77.7194 32.2759 77.5897 32.5704L77.2145 33.408C77.1033 33.6197 77.0338 33.7624 77.0338 33.7624L76.8485 34.1168C76.7465 34.333 76.5845 34.6046 76.4223 34.8808C76.3435 35.0189 76.2648 35.1569 76.186 35.2858L75.9683 35.6309L75.7923 35.8978L75.7552 35.9577C75.7552 35.9577 75.6625 36.1003 75.593 36.197C75.4541 36.3949 75.2688 36.6572 75.0788 36.9104C74.8889 37.1635 74.6851 37.4121 74.5368 37.6007C74.3886 37.7894 74.2866 37.909 74.2866 37.909L74.0226 38.2082C73.8651 38.3923 73.6566 38.6316 73.4296 38.8572C73.2026 39.0827 72.9941 39.3173 72.8134 39.4831L72.5818 39.704L72.5494 39.7316L72.5216 39.7592L72.2899 39.9755C72.1139 40.1365 71.8684 40.3437 71.6275 40.5554C71.3866 40.7671 71.1272 40.9512 70.9419 41.103L70.6269 41.347L70.2979 41.5771C70.0987 41.7106 69.8347 41.9084 69.5752 42.0742C69.3158 42.2398 69.0378 42.4239 68.8293 42.5344L68.4819 42.7322C68.3337 42.8197 67.8936 43.0728 67.421 43.303C67.1384 43.4502 66.8466 43.5837 66.6288 43.6804L66.2629 43.8415C66.2629 43.8415 66.1193 43.9104 65.8923 43.9978L65.0723 44.3154L64.2384 44.5962C64.1473 44.6287 64.0545 44.6564 63.9604 44.679H63.9327L63.5482 44.7895C63.3165 44.8539 63.0107 44.9413 62.6957 45.0104C62.075 45.1622 61.4403 45.2635 61.4403 45.2635L61.0465 45.3372C60.8103 45.374 60.4906 45.4062 60.1756 45.4522C59.8606 45.4982 59.5362 45.5121 59.2954 45.5305L58.8969 45.5626C58.8321 45.5626 58.7301 45.5626 58.5773 45.5626L57.6971 45.5856L56.7983 45.5626H56.4925H56.3675L55.9783 45.5305C55.7467 45.5305 55.441 45.4982 55.1167 45.4522C54.7924 45.4062 54.482 45.374 54.2458 45.3372L53.9308 45.2819L53.5369 45.2083C53.2961 45.1761 52.9856 45.0978 52.6753 45.0242L52.212 44.9229L51.8182 44.8079L51.4337 44.702L51.3272 44.6698C51.2331 44.6471 51.1403 44.6195 51.0492 44.587L50.2153 44.3063L49.3953 43.9887C49.2517 43.9334 49.159 43.892 49.0988 43.8645L49.034 43.8368L48.7421 43.7079C48.5244 43.6067 48.2279 43.4825 47.9453 43.3305C47.6628 43.1787 47.3708 43.0498 47.167 42.9256L46.8196 42.7276L46.4721 42.5297C46.2636 42.4101 46.0089 42.2306 45.7263 42.0695C45.4437 41.9084 45.2028 41.7059 45.0036 41.5725L44.7395 41.3884L44.6515 41.3239L44.4245 41.1491C44.2346 40.9972 43.9612 40.8085 43.7342 40.6014L43.0532 40.0446L42.766 39.773L42.4742 39.4968C42.2935 39.3357 42.0803 39.1011 41.858 38.8709C41.6356 38.6408 41.4225 38.4107 41.265 38.222L41.0797 38.0011L41.038 37.9551V37.9321C40.9917 37.8814 40.9268 37.8032 40.8527 37.7112C40.7045 37.5225 40.5053 37.251 40.3107 37.0208C40.1161 36.7907 39.9354 36.5007 39.7965 36.3075C39.727 36.2108 39.6714 36.128 39.6343 36.0682L39.5741 35.9807L39.3564 35.6448C39.2915 35.5435 39.2174 35.4239 39.134 35.2996L38.9024 34.8945C38.7402 34.6185 38.5781 34.3469 38.4761 34.1305L38.2909 33.7762L38.1472 33.4909C38.0453 33.2746 37.9109 32.9846 37.7812 32.6947C37.6516 32.4047 37.5404 32.1056 37.4477 31.8847L37.2994 31.5165L37.1744 31.1391C37.1002 30.9136 36.9844 30.6144 36.901 30.3061L36.6045 29.4593L36.535 29.1509L36.4424 28.7643C36.3822 28.5296 36.3266 28.2166 36.2757 27.9036C36.2247 27.5907 36.1598 27.2777 36.1367 27.0431C36.1135 26.8083 36.0857 26.6473 36.0857 26.6473C36.0857 26.6473 36.0857 26.4862 36.0394 26.2514C35.993 26.0168 35.9838 25.6854 35.9838 25.3678C35.9838 25.0502 35.9838 24.7327 35.956 24.4934C35.9282 24.2541 35.956 24.1206 35.956 24.1068C35.956 24.093 35.956 23.9365 35.956 23.7064C35.956 23.5775 35.956 23.4303 35.956 23.2738C35.956 23.1173 35.956 22.9424 35.956 22.8135C35.956 22.5052 36.0023 22.1968 36.0208 21.9667C36.0394 21.7366 36.0672 21.5709 36.0672 21.5709L36.1182 21.1752C36.1182 20.9404 36.1969 20.6274 36.2571 20.3145C36.3173 20.0015 36.3637 19.6886 36.4239 19.4539L36.5165 19.0673L36.586 18.7589L36.8269 17.9167C36.9103 17.6084 37.0262 17.3092 37.1002 17.0837L37.2254 16.7063L37.3736 16.3381C37.4662 16.1172 37.5682 15.8135 37.7071 15.5235C37.8461 15.2336 37.9712 14.9483 38.0731 14.7319L38.2167 14.4466L38.4021 14.0922C38.5039 13.8759 38.6661 13.6044 38.8282 13.3282L39.0599 12.9232C39.1433 12.799 39.2174 12.6793 39.2823 12.5781L39.5 12.2421L39.5602 12.15C39.5973 12.0902 39.6528 12.012 39.7223 11.9154C39.8613 11.7174 40.0466 11.4551 40.2366 11.2019C40.4265 10.9489 40.6303 10.7003 40.7786 10.5116C40.8527 10.4196 40.9176 10.3413 40.9639 10.2907L41.0056 10.2447L41.214 10.0054C41.367 9.82126 41.58 9.58196 41.807 9.35644C42.034 9.13092 42.2425 8.89625 42.4232 8.73053L42.715 8.45441L43.0022 8.18287L43.7204 7.55236C43.9659 7.34525 44.2207 7.15656 44.4106 7.00929C44.5032 6.93105 44.582 6.87122 44.6376 6.8298L44.721 6.76997L44.9897 6.58128C45.1889 6.4478 45.4529 6.24991 45.7124 6.08423C45.9718 5.91854 46.2498 5.73445 46.4583 5.624L46.8056 5.4261L47.1531 5.2282C47.357 5.10394 47.6488 4.97047 47.9314 4.8232C48.214 4.67593 48.5105 4.54707 48.7282 4.44581L49.0942 4.28473C49.1545 4.25712 49.2471 4.2157 49.3907 4.16047V4.14666ZM55.58 0.708753C55.2557 1.04932 54.9592 1.4175 54.9592 1.4175C54.9592 1.4175 54.658 1.78109 54.3801 2.14007C54.2365 2.31955 54.1068 2.50825 54.0048 2.65092L53.8751 2.83501C53.7732 2.76598 53.4813 2.56347 53.1617 2.37478C52.8421 2.18609 52.3695 1.91455 52.3695 1.91455L52.1147 1.76728C51.9619 1.67984 51.7534 1.55558 51.5449 1.44972C51.1234 1.23341 50.6879 1.02171 50.6879 1.02171L50.5304 1.27943C50.4377 1.42671 50.3219 1.64302 50.206 1.85012C49.9744 2.26893 49.7428 2.67854 49.7428 2.67854C49.7428 2.67854 49.6918 2.77978 49.6177 2.94086L49.3722 3.46552C49.2842 3.67723 49.1915 3.88434 49.1267 4.04082C49.0618 4.19729 49.0572 4.21109 49.0433 4.25252L48.2372 3.95337C47.7739 3.78769 47.3523 3.65882 47.3523 3.65882C47.3523 3.65882 46.8891 3.52535 46.4258 3.40109C45.9626 3.27683 45.4993 3.18479 45.4993 3.18479L45.4066 3.47013C45.3556 3.64041 45.2816 3.86132 45.2213 4.09604C45.0962 4.55627 44.9897 5.01649 44.9897 5.01649C44.9897 5.01649 44.9897 5.12695 44.9249 5.29724C44.8599 5.46752 44.8461 5.69763 44.8044 5.92314C44.7349 6.29593 44.6793 6.64571 44.6607 6.76537L44.4337 6.73315L43.8084 6.65952L43.169 6.59508L42.8818 6.57207C42.8818 6.57207 42.4185 6.54906 41.9553 6.53525C41.7144 6.53525 41.492 6.53525 41.2928 6.53525H40.9963C40.9963 6.53525 40.9593 6.99548 40.9361 7.48333C40.913 7.97117 40.9361 8.42679 40.9361 8.42679C40.9361 8.42679 40.9361 8.54185 40.9361 8.71213C40.9361 8.88239 40.9361 9.11715 40.9361 9.34729C40.9361 9.7292 40.987 10.0837 40.9963 10.2033H40.7693C40.5933 10.2033 40.3709 10.2447 40.1439 10.2723C39.6806 10.3276 39.2174 10.4011 39.2174 10.4011C39.2174 10.4011 38.7541 10.484 38.2909 10.5806L37.6422 10.7187L37.355 10.797C37.355 10.797 37.4292 11.2572 37.5172 11.7174C37.5589 11.9475 37.6145 12.1777 37.6562 12.3526C37.6979 12.5274 37.721 12.6379 37.721 12.6379C37.721 12.6379 37.8322 13.0982 37.9573 13.5261C38.0684 13.8943 38.1797 14.2303 38.2167 14.3454L37.999 14.4189C37.8322 14.4696 37.6144 14.5433 37.4014 14.6261C36.9752 14.7872 36.535 14.9667 36.535 14.9667L36.2617 15.0817L35.6734 15.3487C35.2472 15.5512 34.8117 15.7767 34.8117 15.7767C34.8117 15.7767 34.997 16.2369 35.1962 16.651C35.2935 16.8674 35.3908 17.0791 35.4695 17.2356L35.6039 17.4979C35.6039 17.4979 35.8217 17.9167 36.044 18.3125C36.1505 18.515 36.271 18.7083 36.3637 18.8556C36.4563 19.0028 36.4609 19.0121 36.4841 19.0489C36.3822 19.1133 36.0764 19.302 35.7568 19.5091C35.4371 19.7162 34.997 20.0429 34.997 20.0429L34.7608 20.2133C34.6218 20.3191 34.4226 20.4618 34.2419 20.6137C33.8759 20.9082 33.5099 21.2257 33.5099 21.2257C33.5099 21.2257 33.7786 21.617 34.0798 21.9943C34.3808 22.3717 34.6773 22.7215 34.6773 22.7215L34.8627 22.9332L35.2982 23.3934L35.9143 24.0653C35.8726 24.1068 35.59 24.3922 35.2982 24.7051L34.8627 25.1653L34.6773 25.3816C34.6773 25.3816 34.3763 25.736 34.0798 26.1134C33.7833 26.4908 33.5099 26.8773 33.5099 26.8773C33.5099 26.8773 33.8759 27.1949 34.2419 27.4895C34.4226 27.6413 34.6218 27.784 34.7608 27.8853L34.997 28.0601C34.997 28.0601 35.3723 28.3409 35.7568 28.594C36.1413 28.8471 36.3822 28.9898 36.4841 29.0543C36.4841 29.0911 36.4239 29.1555 36.3637 29.2475C36.3034 29.3396 36.1505 29.5881 36.044 29.7906C35.8217 30.1864 35.6039 30.6052 35.6039 30.6052L35.4695 30.8676C35.3908 31.0241 35.2935 31.2357 35.1962 31.452C34.997 31.88 34.8117 32.3265 34.8117 32.3265C34.8117 32.3265 35.2472 32.552 35.6734 32.7545L36.2617 33.0214L36.535 33.1365C36.535 33.1365 36.9984 33.316 37.4014 33.4771C37.6144 33.5599 37.8322 33.6336 37.999 33.6841L38.2167 33.7532C38.1797 33.8682 38.0684 34.2134 37.9573 34.577C37.8322 35.0372 37.721 35.4653 37.721 35.4653C37.721 35.4653 37.721 35.5803 37.6562 35.7506C37.5914 35.9208 37.5589 36.1556 37.5172 36.3857C37.4292 36.8459 37.355 37.3061 37.355 37.3061L37.6422 37.3844L38.2909 37.5225C38.7541 37.6191 39.2174 37.702 39.2174 37.702C39.2174 37.702 39.6806 37.7756 40.1439 37.8308C40.3709 37.8585 40.6072 37.886 40.7693 37.8999H40.9963C40.9963 38.0195 40.9593 38.3601 40.9361 38.7559C40.9361 38.986 40.9361 39.2161 40.9361 39.391V39.6763C40.9361 39.6763 40.9361 40.1365 40.9361 40.5968C40.9361 41.057 40.9963 41.5448 40.9963 41.5448H41.2975C41.4735 41.5448 41.7144 41.5448 41.9553 41.5448C42.4185 41.5448 42.8818 41.5034 42.8818 41.5034C42.8818 41.5034 42.993 41.5034 43.169 41.5034L43.8084 41.439L44.4337 41.3653L44.6607 41.3332C44.6607 41.4529 44.7349 41.7934 44.8044 42.1754C44.8461 42.4009 44.8877 42.6357 44.9249 42.8013C44.9619 42.967 44.9897 43.0821 44.9897 43.0821C44.9897 43.0821 45.0962 43.5423 45.2213 44.0025C45.2816 44.2372 45.3556 44.4628 45.4066 44.6284L45.4993 44.9138C45.4993 44.9138 45.9626 44.8171 46.4258 44.6974C46.8891 44.5778 47.3523 44.4351 47.3523 44.4351C47.3523 44.4351 47.8156 44.3109 48.2372 44.1452L49.0433 43.846C49.0433 43.8874 49.085 43.9564 49.1267 44.0577C49.1683 44.1589 49.2842 44.4213 49.3722 44.633L49.6409 45.2129C49.715 45.374 49.766 45.4752 49.766 45.4752C49.766 45.4752 49.9744 45.8848 50.2292 46.3036C50.345 46.5107 50.4609 46.7224 50.5535 46.8744L50.711 47.1274C50.711 47.1274 51.1465 46.9204 51.5681 46.704C51.7766 46.5982 51.985 46.474 52.1379 46.3865L52.3927 46.2392C52.3927 46.2392 52.8003 46.0045 53.1849 45.779C53.5694 45.5535 53.7963 45.3647 53.8983 45.2912L54.028 45.4798C54.1299 45.6179 54.2596 45.8112 54.4033 45.9907C54.6812 46.3497 54.9823 46.7133 54.9823 46.7133C54.9823 46.7133 55.2788 47.0814 55.6077 47.422C55.9367 47.7626 56.2934 48.1169 56.2934 48.1169L56.3582 48.0663L56.5204 47.9282L56.9837 47.4956L57.4469 47.0676L57.6647 46.8697C57.6647 46.8697 58.0074 46.5384 58.3225 46.207L58.7533 45.7467L58.9062 45.5765C58.9989 45.6547 59.2676 45.8895 59.5594 46.1334C59.8513 46.3773 60.2914 46.7086 60.2914 46.7086C60.2914 46.7086 60.662 46.9848 61.0558 47.2609C61.255 47.399 61.4541 47.5233 61.607 47.6199L61.8572 47.781C61.8572 47.781 62.1583 47.4036 62.4317 47.0216C62.705 46.6396 62.9644 46.2392 62.9644 46.2392L63.1219 45.9953C63.2145 45.8526 63.3397 45.6547 63.4555 45.4522C63.6454 45.1255 63.8168 44.8125 63.8724 44.7067L64.0762 44.8171C64.2292 44.8999 64.4284 44.9966 64.6368 45.0978C65.0491 45.3003 65.4846 45.4936 65.4846 45.4936C65.4846 45.4936 65.5911 45.5442 65.7533 45.6087L66.3556 45.848L66.9763 46.0781L67.2589 46.1748C67.2589 46.1748 67.4581 45.7146 67.6388 45.3003C67.7314 45.084 67.8148 44.8401 67.875 44.6974L67.9723 44.4167C67.9723 44.4167 68.1298 43.9564 68.2688 43.5423C68.4078 43.128 68.468 42.8335 68.5005 42.7139L68.7228 42.7737C68.8896 42.8151 69.1166 42.8796 69.339 42.9256C69.8022 43.0222 70.2655 43.1096 70.2655 43.1096L70.5574 43.1649L71.1967 43.257C71.6599 43.3214 72.1556 43.372 72.1556 43.372C72.1556 43.372 72.2436 42.9117 72.3177 42.4515C72.3502 42.2168 72.3826 41.9913 72.4104 41.8118C72.4382 41.6323 72.4382 41.5218 72.4382 41.5218C72.4382 41.5218 72.4892 41.0616 72.5216 40.6014C72.5216 40.3759 72.5448 40.1412 72.5494 39.9755C72.5541 39.8098 72.5494 39.7914 72.5494 39.7454C72.6699 39.7454 73.0126 39.7454 73.4157 39.7454C73.8188 39.7454 74.3423 39.7131 74.3423 39.7131H74.6341C74.8148 39.7131 75.051 39.6856 75.2873 39.6626C75.7505 39.6165 76.2138 39.5521 76.2138 39.5521C76.2138 39.5521 76.2138 39.4324 76.2138 39.2529C76.2138 39.0734 76.186 38.8388 76.1675 38.5994C76.149 38.3601 76.1258 38.1392 76.1073 37.9551C76.0887 37.771 76.0748 37.6651 76.0748 37.6651C76.0748 37.6651 76.0146 37.2049 75.9358 36.7446C75.8803 36.3765 75.8062 36.0221 75.7783 35.9025C75.8988 35.9025 76.2416 35.8058 76.6215 35.7183C76.8485 35.6678 77.0847 35.6034 77.2377 35.5573L77.5202 35.4744C77.5202 35.4744 77.9835 35.3456 78.4236 35.1983C78.8637 35.051 79.3224 34.867 79.3224 34.867L79.2436 34.5816C79.1972 34.4113 79.1231 34.1812 79.049 33.9557C78.9008 33.4955 78.7386 33.0674 78.7386 33.0674C78.7386 33.0674 78.7016 32.9616 78.6367 32.7959C78.5719 32.6303 78.4839 32.4231 78.3912 32.2069C78.2985 31.9905 78.2105 31.788 78.141 31.6315C78.0715 31.475 78.0669 31.4705 78.0484 31.429L78.8174 31.0516L79.3872 30.7571L79.6374 30.6144C79.6374 30.6144 80.0404 30.3843 80.4527 30.1312C80.6566 30.0069 80.8558 29.8734 81.004 29.7722L81.2495 29.6065C81.2495 29.6065 81.0133 29.1831 80.7863 28.7827C80.5593 28.3823 80.2674 27.9866 80.2674 27.9866L80.1053 27.7472C80.008 27.6046 79.8783 27.4158 79.7346 27.2317C79.5076 26.928 79.2714 26.6473 79.2112 26.5506C79.3084 26.4769 79.5957 26.256 79.8783 26.0121C80.1609 25.7682 80.5731 25.3908 80.5731 25.3908L80.7909 25.1883L81.2542 24.7281L81.9166 24.07V24.0332L81.875 23.9872L81.7267 23.8261L81.2634 23.3659L80.8001 22.9056L80.5824 22.7077C80.5824 22.7077 80.235 22.3856 79.8876 22.091C79.5401 21.7964 79.3177 21.6307 79.2204 21.5479C79.2946 21.4512 79.5169 21.1705 79.7439 20.8668C79.8876 20.6827 80.0173 20.494 80.1146 20.3514L80.2766 20.112C80.2766 20.112 80.5361 19.7254 80.7955 19.3158C81.055 18.9062 81.2588 18.492 81.2588 18.492L81.0133 18.3218C80.865 18.2251 80.6658 18.0916 80.4573 17.9673C80.0496 17.7142 79.6466 17.5071 79.6466 17.5071L79.3964 17.3644L78.8266 17.0699C78.4884 16.895 78.1642 16.7431 78.0577 16.6925C78.0577 16.6511 78.1086 16.5866 78.1502 16.4854C78.192 16.3841 78.3124 16.1218 78.4004 15.9147C78.4884 15.7076 78.5811 15.4821 78.6459 15.3256C78.7109 15.1692 78.7479 15.0541 78.7479 15.0541C78.7479 15.0541 78.9101 14.5939 79.0583 14.1659C79.1324 13.9404 79.2066 13.7056 79.2529 13.54L79.3316 13.25C79.3316 13.25 78.8684 13.0797 78.4329 12.9232C77.9974 12.7667 77.5295 12.6425 77.5295 12.6425L77.2469 12.5642C77.0802 12.5183 76.8578 12.4538 76.6308 12.4032C76.2555 12.3158 75.908 12.2421 75.7876 12.2191C75.8155 12.0994 75.8895 11.7589 75.9452 11.3769C76.0239 10.9166 76.0841 10.4564 76.0841 10.4564C76.0841 10.4564 76.0841 10.3367 76.1165 10.1665C76.149 9.99613 76.1536 9.75684 76.1768 9.52216C76.2 9.2874 76.2092 9.06188 76.2231 8.86861C76.237 8.67532 76.2231 8.56946 76.2231 8.56946C76.2231 8.56946 75.7367 8.50503 75.2688 8.45901C75.0325 8.4314 74.8055 8.41759 74.6156 8.40838H74.3237C74.3237 8.40838 73.8604 8.38077 73.3971 8.37617C72.9339 8.37157 72.6513 8.37617 72.5309 8.37617C72.5309 8.33014 72.5309 8.25651 72.5309 8.14606C72.5309 8.0356 72.5309 7.74565 72.5031 7.52014C72.4706 7.05991 72.4197 6.59968 72.4197 6.59968C72.4197 6.59968 72.4197 6.48003 72.3919 6.30514C72.3641 6.13025 72.3316 5.89554 72.2992 5.66542C72.2251 5.20519 72.1371 4.74496 72.1371 4.74496C72.1371 4.74496 71.6507 4.79558 71.1781 4.86002L70.5388 4.95206L70.247 5.0073C70.247 5.0073 69.7837 5.09473 69.3205 5.19138C69.098 5.23741 68.8572 5.29724 68.7043 5.34326L68.4819 5.40309C68.4495 5.28343 68.3568 4.94286 68.2503 4.57007C68.1438 4.19729 67.977 3.68643 67.977 3.68643C67.977 3.68643 67.9399 3.57598 67.8796 3.4103C67.8195 3.24461 67.7361 3.0191 67.6434 2.80279C67.4628 2.37018 67.2635 1.92836 67.2635 1.92836L66.9809 2.0204L66.3601 2.25512L65.7579 2.49444L65.4892 2.6095C65.4892 2.6095 65.0537 2.80279 64.6414 3.00529C64.433 3.10655 64.2337 3.2032 64.0809 3.28604L63.877 3.39649C63.8215 3.29063 63.65 2.97768 63.4601 2.65092C63.3443 2.44842 63.2192 2.25052 63.1265 2.10785L62.969 1.86393C62.969 1.86393 62.7142 1.47273 62.4363 1.08154C62.1583 0.690343 61.8618 0.335967 61.8618 0.335967L61.6117 0.497047C61.4588 0.593695 61.2596 0.717957 61.0604 0.856026C60.6666 1.13216 60.296 1.4083 60.296 1.4083C60.296 1.4083 59.9161 1.67984 59.5686 1.98359C59.2212 2.28734 59.0266 2.44382 58.9386 2.54047L58.7857 2.37018L58.3225 1.90995L57.66 1.24722L57.4469 1.04932C57.3126 0.934265 57.1412 0.777787 56.9837 0.616707C56.8262 0.455626 56.6177 0.303751 56.4833 0.188694C56.349 0.0736367 56.247 0 56.247 0C56.247 0 55.9088 0.349774 55.5892 0.694945" fill="white"/>
<path d="M58.9803 43.5754C58.4614 43.6077 57.9287 43.6215 57.4052 43.6122C57.3355 43.6135 57.269 43.6414 57.2198 43.6904C57.1706 43.7393 57.1423 43.8054 57.1412 43.8746C57.1406 43.9094 57.1469 43.944 57.1599 43.9764C57.1728 44.0088 57.1922 44.0383 57.2168 44.0631C57.2414 44.0879 57.2707 44.1076 57.3031 44.1212C57.3354 44.1346 57.3701 44.1416 57.4052 44.1416H57.7202C58.1511 44.1416 58.5912 44.1416 59.022 44.1001C59.0866 44.0916 59.1459 44.0601 59.1888 44.0114C59.2318 43.9628 59.2554 43.9002 59.2554 43.8355C59.2554 43.7707 59.2318 43.7082 59.1888 43.6595C59.1459 43.6108 59.0866 43.5794 59.022 43.5708L58.9803 43.5754ZM54.0095 43.5294C54.0028 43.5633 54.003 43.5982 54.0102 43.632C54.0174 43.6658 54.0314 43.6978 54.0512 43.7262C54.0711 43.7545 54.0965 43.7786 54.126 43.797C54.1554 43.8153 54.1882 43.8276 54.2226 43.8331C54.7507 43.9252 55.2927 43.9989 55.8255 44.0495H55.8532C55.9233 44.0495 55.9904 44.0219 56.0399 43.9726C56.0895 43.9234 56.1173 43.8568 56.1173 43.7871C56.1173 43.7175 56.0895 43.6508 56.0399 43.6017C55.9904 43.5524 55.9233 43.5248 55.8532 43.5248C55.3344 43.4742 54.8063 43.4052 54.292 43.3131H54.2458C54.1831 43.3134 54.1227 43.3358 54.0752 43.3762C54.0277 43.4167 53.9962 43.4727 53.9863 43.534L54.0095 43.5294ZM62.112 43.129C61.607 43.2441 61.0835 43.3407 60.5646 43.4143C60.5302 43.4194 60.4972 43.4312 60.4674 43.449C60.4376 43.4667 60.4116 43.4903 60.3909 43.518C60.3703 43.5458 60.3553 43.5774 60.3469 43.6109C60.3386 43.6445 60.337 43.6794 60.3423 43.7135C60.3503 43.7761 60.3811 43.8337 60.4289 43.8752C60.4767 43.9168 60.5382 43.9395 60.6018 43.939H60.6434C61.1762 43.8608 61.709 43.7642 62.2325 43.6445C62.2983 43.6325 62.3572 43.596 62.397 43.5426C62.4368 43.4891 62.4548 43.4225 62.4471 43.3565C62.4395 43.2904 62.4068 43.2296 62.3557 43.1866C62.3048 43.1434 62.2391 43.1213 62.1722 43.1244H62.112V43.129ZM50.9102 42.6642C50.8985 42.6968 50.8934 42.7314 50.8952 42.766C50.897 42.8006 50.9057 42.8345 50.9208 42.8658C50.9359 42.897 50.9571 42.9249 50.983 42.948C51.009 42.9711 51.0394 42.9888 51.0724 43.0002C51.5819 43.175 52.1008 43.3315 52.6196 43.4604H52.6891C52.7473 43.4586 52.8034 43.4385 52.8492 43.4029C52.895 43.3673 52.9282 43.3181 52.9439 43.2625C52.9537 43.2289 52.9564 43.1938 52.952 43.1591C52.9476 43.1245 52.9362 43.0911 52.9185 43.0609C52.9008 43.0309 52.877 43.0046 52.8487 42.9839C52.8205 42.9631 52.7882 42.9483 52.754 42.9403C52.2491 42.8068 51.7441 42.655 51.2484 42.4801C51.2194 42.4736 51.1893 42.4736 51.1604 42.4801C51.105 42.4802 51.051 42.4975 51.0061 42.5298C50.9613 42.5619 50.9277 42.6074 50.9102 42.6596V42.6642ZM65.1139 42.1625C64.6507 42.3559 64.1318 42.5354 63.6362 42.6872C63.5761 42.7071 63.5252 42.7474 63.4921 42.801C63.4591 42.8545 63.4461 42.918 63.4555 42.9801C63.4649 43.0423 63.4961 43.0991 63.5435 43.1406C63.591 43.1822 63.6517 43.2058 63.7149 43.2072H63.7937C64.3079 43.0462 64.8174 42.8621 65.3178 42.6642C65.3736 42.6396 65.4192 42.5969 65.4474 42.5432C65.4754 42.4894 65.4843 42.4277 65.4725 42.3682C65.4605 42.3089 65.4287 42.2552 65.3821 42.2161C65.3355 42.1771 65.2769 42.1549 65.2159 42.1534C65.1822 42.147 65.1476 42.147 65.1139 42.1534V42.1625ZM48.0102 41.3249C47.9931 41.3554 47.9823 41.3889 47.9785 41.4235C47.9746 41.4581 47.9778 41.4932 47.9877 41.5266C47.9976 41.5601 48.0141 41.5912 48.0362 41.6182C48.0584 41.6451 48.0858 41.6675 48.1167 41.6839C48.58 41.9416 49.0757 42.1764 49.5667 42.3927C49.6018 42.4008 49.6382 42.4008 49.6733 42.3927C49.7332 42.391 49.791 42.3694 49.8371 42.3314C49.8834 42.2933 49.9154 42.241 49.9282 42.1827C49.9409 42.1245 49.9338 42.0637 49.9077 42.01C49.8817 41.9563 49.8383 41.9128 49.7845 41.8864C49.3212 41.6793 48.8302 41.4261 48.3668 41.1961C48.3281 41.1763 48.2853 41.1653 48.2418 41.1638C48.1942 41.164 48.1477 41.1769 48.1068 41.2012C48.066 41.2256 48.0327 41.2603 48.0102 41.3019V41.3249ZM67.9306 40.7267C67.4673 40.9936 67.0041 41.2513 66.5408 41.4814C66.5039 41.4926 66.47 41.5117 66.4413 41.5373C66.4126 41.5629 66.3899 41.5945 66.3749 41.6298C66.3598 41.6651 66.3527 41.7032 66.3541 41.7415C66.3554 41.7798 66.3652 41.8173 66.3827 41.8515C66.4002 41.8856 66.425 41.9156 66.4555 41.9391C66.4859 41.9627 66.5211 41.9794 66.5587 41.9879C66.5963 41.9965 66.6354 41.9969 66.6731 41.9889C66.7107 41.9808 66.7463 41.9647 66.7771 41.9416C67.2403 41.7023 67.736 41.44 68.1946 41.1638C68.2435 41.1332 68.2811 41.0876 68.3018 41.0339C68.3225 40.9803 68.3253 40.9215 68.3097 40.8662C68.2941 40.811 68.2609 40.7621 68.2152 40.727C68.1695 40.6919 68.1135 40.6724 68.0557 40.6714C68.0063 40.6716 67.958 40.6859 67.9167 40.7128L67.9306 40.7267ZM45.3417 39.5853C45.3197 39.6126 45.3034 39.644 45.2938 39.6777C45.2842 39.7113 45.2815 39.7466 45.2858 39.7813C45.2902 39.8161 45.3014 39.8496 45.3189 39.8799C45.3365 39.9103 45.36 39.9369 45.3881 39.958C45.8143 40.2848 46.259 40.5977 46.7084 40.8785C46.7497 40.9093 46.8003 40.9255 46.852 40.9245C46.896 40.9238 46.9392 40.9126 46.978 40.8918C47.0167 40.8709 47.0498 40.8411 47.0743 40.8049C47.1128 40.7456 47.1262 40.6737 47.1114 40.6046C47.0967 40.5357 47.055 40.4752 46.9956 40.4367C46.5601 40.1513 46.1293 39.8476 45.7124 39.5162C45.666 39.4804 45.6089 39.461 45.5502 39.461C45.51 39.4613 45.4705 39.4706 45.4344 39.4881C45.3983 39.5056 45.3667 39.531 45.3417 39.5623V39.5853ZM70.4554 38.9225C70.0617 39.2585 69.6447 39.5807 69.2185 39.889C69.1901 39.9091 69.1659 39.9347 69.1474 39.9641C69.129 39.9936 69.1166 40.0264 69.111 40.0606C69.1054 40.0948 69.1067 40.1299 69.1149 40.1636C69.1229 40.1973 69.1377 40.2292 69.1583 40.2572C69.1785 40.2855 69.2042 40.3094 69.2338 40.3277C69.2635 40.3461 69.2965 40.3583 69.331 40.3639C69.3655 40.3695 69.4007 40.3682 69.4347 40.3602C69.4687 40.3522 69.5007 40.3374 69.5289 40.317C69.9643 40.0041 70.3952 39.6681 70.8029 39.3229C70.8295 39.3004 70.8515 39.2728 70.8674 39.2418C70.8832 39.2109 70.8927 39.177 70.8953 39.1423C70.8979 39.1076 70.8935 39.0728 70.8824 39.0397C70.8713 39.0068 70.8538 38.9763 70.8307 38.9501C70.806 38.9215 70.7755 38.8984 70.7412 38.8826C70.7068 38.8667 70.6694 38.8583 70.6315 38.8581C70.5666 38.8561 70.5035 38.8792 70.4554 38.9225ZM43.0069 37.4037C42.9579 37.4536 42.9305 37.5205 42.9305 37.5902C42.9305 37.6599 42.9579 37.7267 43.0069 37.7766C43.3775 38.1677 43.7667 38.5451 44.1604 38.9041C44.2099 38.9486 44.2743 38.9732 44.3411 38.9731C44.3777 38.9723 44.4139 38.9641 44.4473 38.9491C44.4808 38.9341 44.5108 38.9126 44.5357 38.8857C44.5604 38.8613 44.5801 38.8323 44.5935 38.8003C44.607 38.7683 44.6139 38.734 44.6139 38.6993C44.6139 38.6646 44.607 38.6304 44.5935 38.5984C44.5801 38.5664 44.5604 38.5373 44.5357 38.5129C44.1465 38.1631 43.7712 37.795 43.4099 37.413C43.3851 37.3864 43.3551 37.3652 43.3215 37.3509C43.288 37.3367 43.2519 37.3295 43.2154 37.3302C43.1818 37.3297 43.1485 37.3361 43.1175 37.3487C43.0865 37.3614 43.0583 37.3801 43.0347 37.4037H43.0069ZM72.7115 36.7089C72.3734 37.1046 72.012 37.4913 71.6414 37.8594C71.6021 37.8964 71.5751 37.9444 71.5639 37.997C71.5526 38.0495 71.5575 38.1043 71.578 38.154C71.5986 38.2037 71.6337 38.2461 71.6789 38.2757C71.7241 38.3052 71.7772 38.3205 71.8313 38.3196C71.8659 38.3195 71.9001 38.3125 71.9319 38.2991C71.9638 38.2857 71.9925 38.2661 72.0166 38.2414C72.4011 37.864 72.7671 37.4682 73.1146 37.0632C73.1376 37.037 73.1552 37.0066 73.1663 36.9735C73.1774 36.9406 73.1818 36.9057 73.1792 36.871C73.1766 36.8363 73.1671 36.8025 73.1512 36.7715C73.1354 36.7405 73.1134 36.713 73.0868 36.6904C73.0399 36.6482 72.9786 36.6252 72.9154 36.626C72.8767 36.6255 72.8383 36.6335 72.8032 36.6495C72.7679 36.6654 72.7366 36.6888 72.7115 36.718V36.7089ZM41.0473 34.9369C40.9894 34.977 40.9496 35.038 40.9366 35.1069C40.9236 35.1758 40.9384 35.2469 40.9778 35.3051C41.2789 35.7654 41.5985 36.1795 41.9367 36.5984C41.9616 36.6296 41.9933 36.655 42.0294 36.6725C42.0655 36.69 42.1051 36.6993 42.1452 36.6996C42.2057 36.6974 42.264 36.6764 42.312 36.6398C42.3659 36.5949 42.4003 36.5311 42.408 36.4617C42.4158 36.3922 42.3963 36.3225 42.3537 36.267C42.0247 35.862 41.7097 35.4385 41.4271 35.006C41.403 34.9707 41.3706 34.9417 41.3326 34.9216C41.2947 34.9016 41.2524 34.891 41.2094 34.8909C41.1549 34.8899 41.1013 34.906 41.0565 34.9369H41.0473ZM74.5368 34.2098C74.2634 34.67 73.9716 35.0934 73.6658 35.5168C73.6453 35.5449 73.6305 35.5766 73.6224 35.6105C73.6143 35.6442 73.613 35.6792 73.6186 35.7134C73.6242 35.7477 73.6366 35.7805 73.655 35.8099C73.6735 35.8394 73.6977 35.8649 73.7261 35.885C73.7707 35.9168 73.824 35.9344 73.8789 35.9356C73.9215 35.9361 73.9635 35.9262 74.0014 35.9069C74.0393 35.8877 74.0721 35.8597 74.0966 35.8252C74.4117 35.3926 74.7128 34.9416 74.9908 34.4859C75.0269 34.4259 75.038 34.3543 75.0216 34.2863C75.0051 34.2183 74.9624 34.1594 74.9028 34.1223C74.8608 34.0973 74.8127 34.0845 74.7638 34.0855C74.7186 34.0859 74.6741 34.0975 74.6345 34.1192C74.5949 34.1409 74.5614 34.172 74.5368 34.2098ZM39.5185 32.1571C39.4548 32.1881 39.4058 32.2422 39.3816 32.3084C39.3574 32.3744 39.36 32.4472 39.3888 32.5116C39.6158 32.9948 39.852 33.4735 40.1253 33.9383C40.1485 33.979 40.1822 34.0128 40.2229 34.0363C40.2636 34.0598 40.3099 34.072 40.357 34.0717C40.4038 34.0726 40.4501 34.0614 40.4913 34.0395C40.5215 34.0223 40.548 33.9994 40.5692 33.972C40.5904 33.9447 40.606 33.9134 40.615 33.88C40.6241 33.8467 40.6264 33.812 40.6219 33.7777C40.6173 33.7434 40.606 33.7104 40.5886 33.6805C40.3338 33.2203 40.0929 32.76 39.8706 32.2998C39.8497 32.2539 39.8158 32.215 39.773 32.1881C39.7302 32.161 39.6804 32.1471 39.6296 32.148C39.5929 32.1415 39.5552 32.1415 39.5185 32.148V32.1571ZM75.9405 31.407C75.7413 31.8672 75.5235 32.3689 75.2919 32.8337C75.276 32.8645 75.2662 32.8981 75.2634 32.9326C75.2606 32.9671 75.2647 33.0019 75.2755 33.0349C75.2862 33.0678 75.3035 33.0983 75.3262 33.1246C75.3489 33.1509 75.3766 33.1724 75.4078 33.188C75.4451 33.2064 75.4864 33.2159 75.5282 33.2157C75.5775 33.2155 75.6257 33.2016 75.6675 33.1756C75.7093 33.1495 75.7428 33.1124 75.7645 33.0684C76.0053 32.6082 76.2277 32.0973 76.4315 31.6049C76.4578 31.5401 76.4575 31.4677 76.4306 31.4032C76.4038 31.3386 76.3525 31.2871 76.288 31.2597C76.2222 31.2339 76.1488 31.2349 76.0838 31.2624C76.0188 31.29 75.9672 31.3419 75.9405 31.407ZM38.4576 29.1702C38.4236 29.1793 38.3918 29.195 38.3641 29.2164C38.3362 29.2378 38.313 29.2645 38.2958 29.2949C38.2785 29.3253 38.2675 29.3589 38.2635 29.3936C38.2595 29.4284 38.2624 29.4635 38.2723 29.4971C38.4159 30.0125 38.5827 30.5234 38.768 31.025C38.7868 31.076 38.8209 31.12 38.8656 31.1513C38.9103 31.1825 38.9635 31.1995 39.0181 31.1999C39.0487 31.2068 39.0803 31.2068 39.1108 31.1999C39.1765 31.1761 39.2299 31.1272 39.2595 31.0643C39.289 31.0013 39.2922 30.9293 39.2683 30.8639C39.0876 30.3761 38.9255 29.8744 38.8051 29.3728C38.7876 29.3177 38.7532 29.2693 38.7066 29.2347C38.6601 29.2 38.6038 29.1807 38.5456 29.1795H38.4761L38.4576 29.1702ZM76.8995 28.4431C76.7836 28.9493 76.6447 29.4556 76.4918 29.9526C76.481 29.9856 76.4769 30.0203 76.4796 30.0548C76.4824 30.0893 76.4921 30.123 76.5079 30.1538C76.5239 30.1846 76.5458 30.212 76.5724 30.2343C76.5991 30.2567 76.6299 30.2735 76.6632 30.284C76.6892 30.2884 76.7158 30.2884 76.742 30.284C76.7988 30.2854 76.8546 30.268 76.9007 30.2348C76.9468 30.2015 76.9805 30.1541 76.9967 30.1C77.1589 29.5937 77.3025 29.069 77.4183 28.549C77.4265 28.5151 77.4279 28.4799 77.4223 28.4456C77.4167 28.4112 77.4043 28.3783 77.3857 28.3487C77.3672 28.3192 77.3429 28.2935 77.3143 28.2734C77.2857 28.2533 77.2533 28.239 77.2191 28.2314H77.1589C77.0985 28.232 77.04 28.2526 76.993 28.2902C76.9459 28.3278 76.913 28.38 76.8995 28.4385V28.4431ZM37.8924 26.0545C37.8577 26.0579 37.824 26.0682 37.7933 26.0847C37.7625 26.1012 37.7353 26.1235 37.7134 26.1505C37.6914 26.1775 37.6751 26.2085 37.6652 26.2418C37.6554 26.2751 37.6523 26.31 37.6562 26.3445C37.7164 26.8783 37.7998 27.4122 37.9017 27.9323C37.9125 27.9928 37.9444 28.0476 37.9919 28.0872C38.0393 28.1267 38.0992 28.1485 38.1611 28.1486H38.2121C38.2813 28.1342 38.3419 28.0932 38.381 28.0346C38.42 27.976 38.4343 27.9046 38.4206 27.8356C38.3233 27.3294 38.2445 26.8093 38.1843 26.2938C38.1785 26.2284 38.1481 26.1673 38.0992 26.1231C38.0503 26.0787 37.9864 26.0543 37.9202 26.0545H37.8924ZM77.3303 25.3182C77.2978 25.8382 77.2422 26.3629 77.1682 26.8737C77.1623 26.9083 77.1635 26.9437 77.1718 26.9778C77.1803 27.0119 77.1955 27.0439 77.2168 27.0719C77.238 27.0998 77.2648 27.1233 77.2955 27.1406C77.3261 27.158 77.3601 27.169 77.3952 27.1729H77.4322C77.496 27.1726 77.5576 27.1497 77.606 27.1084C77.6544 27.0671 77.6864 27.01 77.6962 26.9474C77.7704 26.4181 77.826 25.8797 77.863 25.3458C77.8649 25.3113 77.86 25.2768 77.8484 25.2442C77.8368 25.2117 77.8189 25.1817 77.7956 25.1561C77.7724 25.1305 77.7443 25.1096 77.7129 25.0947C77.6816 25.0799 77.6475 25.0714 77.6129 25.0696C77.5455 25.0706 77.481 25.0967 77.4321 25.1428C77.3831 25.1888 77.3535 25.2514 77.3488 25.3182H77.3303ZM37.5913 22.4878C37.5496 23.017 37.5311 23.5555 37.5311 24.0894C37.5311 24.3103 37.5311 24.5496 37.5311 24.7429C37.5334 24.8113 37.5621 24.8761 37.6113 24.9241C37.6604 24.9721 37.7262 24.9995 37.7951 25.0006C37.8305 24.9994 37.8651 24.9914 37.8972 24.9768C37.9294 24.9622 37.9584 24.9416 37.9824 24.9159C38.0066 24.8903 38.0253 24.8602 38.0377 24.8273C38.0501 24.7945 38.0558 24.7596 38.0546 24.7244C38.0546 24.5174 38.0546 24.3056 38.0546 24.0894C38.0546 23.5693 38.0546 23.0447 38.1148 22.5292C38.1179 22.4943 38.1141 22.4592 38.1034 22.4259C38.0927 22.3926 38.0754 22.3617 38.0526 22.3351C38.0296 22.3085 38.0017 22.2868 37.9702 22.2711C37.9387 22.2554 37.9043 22.2461 37.8692 22.2438C37.8021 22.2446 37.7376 22.2699 37.6881 22.3149C37.6386 22.3599 37.6074 22.4214 37.6006 22.4878H37.5913ZM77.5295 21.9217C77.4943 21.9245 77.4601 21.9344 77.4289 21.9506C77.3975 21.9668 77.3699 21.9891 77.3474 22.0162C77.325 22.0432 77.3082 22.0744 77.2981 22.108C77.288 22.1415 77.2848 22.1767 77.2885 22.2116C77.3395 22.7271 77.3673 23.2517 77.3767 23.7718C77.3767 23.8413 77.4045 23.9081 77.454 23.9573C77.5034 24.0065 77.5707 24.0341 77.6407 24.0341C77.7111 24.0329 77.7783 24.0043 77.8277 23.9543C77.8771 23.9044 77.9047 23.8372 77.9047 23.7672C77.9047 23.2287 77.863 22.6902 77.812 22.161C77.8063 22.0963 77.7766 22.036 77.7287 21.9918C77.6808 21.9476 77.618 21.9225 77.5527 21.9217H77.5249H77.5295ZM38.1056 19.3352C37.9758 19.8552 37.8692 20.3845 37.7859 20.9091C37.7799 20.9437 37.7811 20.979 37.789 21.013C37.797 21.0471 37.8119 21.0793 37.8326 21.1076C37.8534 21.1359 37.8795 21.1598 37.9097 21.1779C37.9399 21.1959 37.9734 21.2079 38.0082 21.2129H38.0499C38.1132 21.2124 38.1742 21.1894 38.2218 21.148C38.2694 21.1066 38.3004 21.0497 38.3094 20.9874C38.3927 20.4766 38.4993 19.9611 38.6244 19.4548C38.6326 19.421 38.634 19.3858 38.6284 19.3514C38.6227 19.3171 38.6104 19.2841 38.5918 19.2546C38.5732 19.225 38.5489 19.1994 38.5203 19.1792C38.4917 19.1591 38.4593 19.1449 38.4252 19.1373H38.3649C38.3052 19.1376 38.2473 19.1576 38.2002 19.1943C38.1533 19.231 38.1199 19.2822 38.1056 19.3398V19.3352ZM76.918 18.8335C76.8502 18.8519 76.7923 18.8959 76.7569 18.9562C76.7213 19.0163 76.711 19.088 76.728 19.1557C76.8624 19.6573 76.9735 20.1728 77.0662 20.6836C77.0771 20.7454 77.1095 20.8014 77.1578 20.8418C77.2061 20.8822 77.2671 20.9044 77.3303 20.9045H77.3767C77.4457 20.8912 77.5068 20.8513 77.5466 20.7936C77.5864 20.736 77.6019 20.6651 77.5897 20.5962C77.497 20.0716 77.3812 19.5423 77.2469 19.0269C77.2316 18.9701 77.1979 18.9199 77.151 18.8841C77.1041 18.8483 77.0466 18.829 76.9875 18.8289H76.918V18.8335ZM39.1247 16.27C38.9162 16.7579 38.7216 17.2642 38.5549 17.7704C38.5432 17.8033 38.5384 17.8382 38.5405 17.873C38.5426 17.9078 38.5517 17.9419 38.5673 17.9732C38.5828 18.0045 38.6045 18.0324 38.631 18.0552C38.6575 18.078 38.6883 18.0955 38.7216 18.1064C38.7493 18.1107 38.7774 18.1107 38.8051 18.1064C38.8611 18.1065 38.9157 18.0894 38.9614 18.0572C39.0071 18.025 39.0415 17.9794 39.0598 17.9269C39.222 17.4344 39.4073 16.9374 39.6158 16.4588C39.642 16.394 39.6417 16.3216 39.6148 16.257C39.588 16.1925 39.5368 16.141 39.4721 16.1136C39.44 16.0994 39.4054 16.0917 39.3703 16.0905C39.3173 16.0905 39.2656 16.1063 39.2218 16.1359C39.178 16.1654 39.1442 16.2074 39.1247 16.2563V16.27ZM75.8247 15.8374C75.7925 15.8513 75.7635 15.8716 75.7393 15.8968C75.7151 15.922 75.6961 15.9518 75.6836 15.9843C75.6711 16.0169 75.6653 16.0516 75.6664 16.0864C75.6676 16.1212 75.6757 16.1555 75.6903 16.1872C75.9035 16.6474 76.098 17.1491 76.2694 17.6369C76.2875 17.6887 76.3212 17.7338 76.366 17.7659C76.4107 17.798 76.4643 17.8156 76.5195 17.8164C76.5485 17.8232 76.5787 17.8232 76.6076 17.8164C76.6742 17.7934 76.7291 17.7452 76.7602 17.6824C76.7915 17.6195 76.7965 17.547 76.7743 17.4805C76.5937 16.9788 76.3945 16.4772 76.1768 15.9893C76.1571 15.9422 76.1237 15.902 76.0807 15.874C76.0377 15.8461 75.9872 15.8317 75.9358 15.8329C75.8993 15.8242 75.8612 15.8242 75.8247 15.8329V15.8374ZM40.6164 13.4213C40.3338 13.8814 40.0605 14.3416 39.8103 14.8019C39.7942 14.8324 39.7843 14.8658 39.7811 14.9002C39.778 14.9344 39.7817 14.969 39.792 15.002C39.8023 15.0349 39.8191 15.0655 39.8413 15.092C39.8635 15.1185 39.8908 15.1403 39.9215 15.1563C39.9605 15.1755 40.0031 15.1865 40.0466 15.1885C40.0953 15.1882 40.143 15.1748 40.1846 15.1497C40.2262 15.1246 40.2602 15.0886 40.2828 15.0458C40.5238 14.5856 40.7878 14.1254 41.0705 13.6882C41.1059 13.6285 41.117 13.5575 41.1015 13.4899C41.086 13.4223 41.045 13.3631 40.987 13.3246C40.9437 13.2983 40.8942 13.2839 40.8435 13.2832C40.798 13.2827 40.7532 13.294 40.7135 13.3157C40.6737 13.3375 40.6403 13.369 40.6164 13.4074V13.4213ZM74.2635 13.0576C74.204 13.0963 74.1624 13.1566 74.1476 13.2256C74.1329 13.2946 74.1462 13.3666 74.1847 13.4258C74.4673 13.8584 74.7406 14.3095 74.9908 14.7697C75.0137 14.812 75.0478 14.8473 75.0895 14.8716C75.1311 14.8959 75.1787 14.9085 75.2271 14.9078C75.2709 14.9081 75.314 14.8969 75.3521 14.8756C75.3831 14.8592 75.4104 14.8368 75.4326 14.8098C75.4547 14.7828 75.4713 14.7517 75.4812 14.7182C75.4911 14.6849 75.4942 14.6498 75.4903 14.6152C75.4865 14.5805 75.4758 14.547 75.4587 14.5166C75.2039 14.0563 74.9213 13.5961 74.6294 13.1358C74.5907 13.0781 74.5307 13.0376 74.4625 13.023C74.3941 13.0084 74.3228 13.0209 74.2635 13.0576ZM42.5575 10.8486C42.2055 11.2489 41.8626 11.6677 41.5383 12.0958C41.5175 12.1235 41.5024 12.1551 41.494 12.1887C41.4855 12.2223 41.4838 12.2571 41.489 12.2914C41.4942 12.3256 41.5061 12.3584 41.5241 12.3881C41.5421 12.4177 41.5658 12.4435 41.594 12.464C41.6385 12.4997 41.6941 12.5193 41.7515 12.5192C41.7929 12.5197 41.8339 12.5104 41.8709 12.492C41.908 12.4736 41.9401 12.4466 41.9645 12.4133C42.2795 11.9946 42.6131 11.5849 42.9559 11.1983C42.9807 11.1739 43.0004 11.1449 43.0138 11.1129C43.0272 11.0809 43.0342 11.0466 43.0342 11.0119C43.0342 10.9772 43.0272 10.943 43.0138 10.911C43.0004 10.879 42.9807 10.8499 42.9559 10.8255C42.9083 10.7809 42.8453 10.7562 42.7799 10.7565C42.742 10.757 42.7047 10.7655 42.6704 10.7813C42.636 10.7972 42.6055 10.8201 42.5807 10.8486H42.5575ZM72.2807 10.5908C72.2559 10.6152 72.2362 10.6442 72.2228 10.6762C72.2094 10.7082 72.2024 10.7425 72.2024 10.7772C72.2024 10.8119 72.2094 10.8462 72.2228 10.8782C72.2362 10.9102 72.2559 10.9392 72.2807 10.9636C72.6328 11.3502 72.9709 11.7552 73.2906 12.1648C73.3148 12.1969 73.3463 12.2228 73.3826 12.2404C73.4188 12.258 73.4587 12.2668 73.4991 12.266C73.5592 12.266 73.6177 12.2467 73.6658 12.2108C73.6933 12.1896 73.7162 12.1634 73.7333 12.1334C73.7505 12.1034 73.7614 12.0705 73.7657 12.0363C73.77 12.002 73.7676 11.9674 73.7584 11.9341C73.7492 11.9009 73.7335 11.8698 73.7121 11.8426C73.3833 11.4192 73.0358 11.005 72.6744 10.6093C72.6487 10.5823 72.6178 10.5607 72.5837 10.5457C72.5495 10.5306 72.5126 10.5225 72.4752 10.5218C72.4085 10.5217 72.3441 10.5463 72.2946 10.5908H72.2807ZM44.8784 8.61183C44.4662 8.95241 44.0585 9.3114 43.674 9.68416C43.6492 9.70857 43.6295 9.7376 43.6161 9.76959C43.6027 9.80158 43.5957 9.83593 43.5957 9.87054C43.5957 9.90524 43.6027 9.93958 43.6161 9.97157C43.6295 10.0036 43.6492 10.0326 43.674 10.0569C43.6983 10.081 43.7273 10.0999 43.759 10.1125C43.7909 10.1252 43.825 10.1314 43.8592 10.1306C43.928 10.1293 43.9939 10.103 44.0446 10.0569C44.4199 9.6934 44.8136 9.34357 45.2166 9.01222C45.244 8.99034 45.2667 8.96331 45.2834 8.93263C45.3002 8.90194 45.3105 8.86829 45.314 8.8336C45.3174 8.7989 45.3138 8.76377 45.3035 8.73047C45.2932 8.69715 45.2763 8.6662 45.2537 8.63945C45.2293 8.60911 45.1983 8.58467 45.1629 8.56793C45.1276 8.55119 45.089 8.5426 45.0499 8.5428C44.9879 8.54443 44.9279 8.56536 44.8784 8.60263V8.61183ZM69.9273 8.44615C69.9051 8.47281 69.8886 8.50362 69.8787 8.53676C69.8688 8.56989 69.8657 8.60467 69.8696 8.63902C69.8734 8.67338 69.8842 8.7066 69.9013 8.73674C69.9184 8.76682 69.9414 8.79323 69.969 8.81433C70.3767 9.14106 70.7797 9.48627 71.1595 9.84064C71.2086 9.88649 71.2729 9.91264 71.3402 9.9143C71.3772 9.91491 71.4138 9.90733 71.4474 9.89225C71.4811 9.87708 71.5109 9.85476 71.5349 9.82686C71.5596 9.80246 71.5792 9.77343 71.5928 9.74143C71.6062 9.70944 71.613 9.67509 71.613 9.64048C71.613 9.60579 71.6062 9.57144 71.5928 9.53945C71.5792 9.50746 71.5596 9.47843 71.5349 9.45402C71.141 9.0905 70.7287 8.73613 70.3118 8.40473C70.2648 8.36629 70.2059 8.34515 70.145 8.3449C70.1048 8.34523 70.0653 8.35449 70.0292 8.37201C69.9931 8.38954 69.9614 8.41487 69.9365 8.44615H69.9273ZM47.5283 6.77552C47.0651 7.04245 46.6018 7.337 46.1664 7.64075C46.1206 7.67358 46.0865 7.71987 46.0687 7.77307C46.0509 7.82626 46.0505 7.88366 46.0674 7.93712C46.0844 7.9906 46.1178 8.03742 46.163 8.07096C46.2082 8.10449 46.2628 8.12305 46.3193 8.12399C46.3735 8.12283 46.4263 8.10691 46.4721 8.07796C46.903 7.77882 47.3477 7.49348 47.797 7.23115C47.8278 7.21398 47.8548 7.19086 47.8765 7.16314C47.8981 7.13541 47.914 7.10367 47.923 7.06977C47.9321 7.03588 47.9342 7.00052 47.9293 6.96578C47.9243 6.93105 47.9125 6.89765 47.8943 6.86756C47.8703 6.82799 47.8362 6.79532 47.7957 6.77273C47.7551 6.75014 47.7093 6.73841 47.6627 6.7387C47.6155 6.73944 47.5693 6.75211 47.5283 6.77552ZM67.2589 6.71568C67.241 6.7457 67.2294 6.77901 67.2249 6.81358C67.2204 6.84816 67.2229 6.88329 67.2325 6.91685C67.242 6.95041 67.2583 6.9817 67.2803 7.00883C67.3024 7.03596 67.3298 7.05835 67.3608 7.07467C67.8241 7.33239 68.2873 7.60854 68.6996 7.89848C68.743 7.92877 68.7948 7.94486 68.8478 7.9445C68.8915 7.94473 68.9346 7.93437 68.9734 7.91432C69.0121 7.89427 69.0454 7.86514 69.0703 7.82945C69.0901 7.80057 69.104 7.76804 69.1111 7.73376C69.1181 7.69948 69.1182 7.66415 69.1113 7.62983C69.1043 7.59553 69.0906 7.56294 69.0708 7.53399C69.0511 7.50504 69.0256 7.48031 68.9961 7.46126C68.5328 7.16212 68.0696 6.87677 67.6063 6.61444C67.5667 6.59242 67.522 6.5813 67.4766 6.58222C67.4295 6.58193 67.3832 6.59415 67.3425 6.61762C67.3017 6.64109 67.2681 6.67495 67.245 6.71568H67.2589ZM50.4377 5.38102C49.9374 5.57432 49.4417 5.79063 48.9552 6.02074C48.8994 6.04555 48.854 6.08884 48.8267 6.14319C48.7995 6.19755 48.7921 6.25963 48.8058 6.31882C48.8194 6.37802 48.8533 6.43068 48.9017 6.46779C48.9501 6.50492 49.0099 6.52421 49.071 6.52239C49.1113 6.52207 49.1509 6.51263 49.1868 6.49477C49.6502 6.26926 50.1458 6.06216 50.6322 5.87347C50.6645 5.86078 50.6939 5.84191 50.7188 5.81792C50.7438 5.79394 50.7636 5.76532 50.7774 5.7337C50.7911 5.70207 50.7985 5.66805 50.799 5.6336C50.7996 5.59915 50.7932 5.56493 50.7805 5.5329C50.7623 5.48279 50.7289 5.43951 50.685 5.40901C50.641 5.37852 50.5886 5.36231 50.5349 5.36262C50.5029 5.35605 50.4697 5.35605 50.4377 5.36262V5.38102ZM64.3357 5.40404C64.3231 5.43664 64.3173 5.4714 64.3184 5.50629C64.3195 5.54118 64.3277 5.57548 64.3424 5.6072C64.357 5.63892 64.378 5.66741 64.4039 5.69101C64.4297 5.7146 64.4601 5.73282 64.4932 5.7446C64.9842 5.92409 65.4753 6.12659 65.9478 6.3429C65.9844 6.35151 66.0225 6.35151 66.059 6.3429C66.1197 6.3436 66.1788 6.32351 66.2263 6.28601C66.2739 6.24851 66.3069 6.19589 66.32 6.137C66.333 6.07811 66.3253 6.01655 66.298 5.96269C66.2707 5.90882 66.2256 5.86594 66.1702 5.84125C65.6838 5.61574 65.1834 5.40864 64.6785 5.22454H64.5859C64.5315 5.22328 64.478 5.23903 64.4331 5.26959C64.3882 5.30016 64.3541 5.34396 64.3357 5.39483V5.40404ZM53.5369 4.46977C53.0134 4.58023 52.4853 4.70909 51.9711 4.86096C51.903 4.88121 51.8457 4.92745 51.8118 4.98956C51.7779 5.05167 51.7702 5.12459 51.7904 5.19233C51.8065 5.247 51.8401 5.29498 51.8861 5.32902C51.932 5.36306 51.9878 5.38132 52.0452 5.38102H52.1193C52.6196 5.22915 53.1339 5.10028 53.6481 4.99444C53.7194 4.98649 53.7846 4.95076 53.8293 4.89509C53.8741 4.83942 53.8947 4.76838 53.8867 4.69758C53.8787 4.62679 53.8427 4.56205 53.7867 4.5176C53.7307 4.47315 53.6592 4.45264 53.5879 4.46057H53.5323L53.5369 4.46977ZM61.255 4.60324C61.2482 4.63769 61.2484 4.67312 61.2555 4.7075C61.2625 4.74189 61.2764 4.77455 61.2962 4.80362C61.3159 4.83268 61.3413 4.85759 61.3708 4.87691C61.4004 4.89622 61.4333 4.90957 61.468 4.9162C61.9823 5.01284 62.4965 5.1325 62.9968 5.27517H63.071C63.1287 5.27443 63.1846 5.25523 63.2305 5.22041C63.2764 5.18559 63.3098 5.13702 63.3257 5.08187C63.3355 5.04834 63.3385 5.01318 63.3345 4.97847C63.3305 4.94377 63.3196 4.91021 63.3023 4.87978C63.285 4.84933 63.2618 4.82263 63.234 4.80122C63.2062 4.77981 63.1744 4.76414 63.1405 4.75512C62.6262 4.61244 62.0935 4.48818 61.57 4.38693H61.519C61.4574 4.3875 61.3978 4.40872 61.3499 4.44714C61.302 4.48557 61.2685 4.53895 61.255 4.59864V4.60324ZM56.7381 4.04636C56.2007 4.07397 55.6587 4.11999 55.126 4.18903C55.0559 4.19391 54.9906 4.22623 54.9447 4.27888C54.8986 4.33153 54.8754 4.40019 54.8804 4.46977C54.8853 4.53935 54.9178 4.60413 54.9708 4.64988C55.0238 4.69562 55.093 4.71857 55.163 4.71369H55.1955C55.7143 4.64619 56.2378 4.60017 56.7659 4.57562C56.8008 4.57447 56.8351 4.56634 56.8668 4.5517C56.8984 4.53706 56.9268 4.51623 56.9501 4.49044C56.9735 4.46467 56.9914 4.43446 57.0027 4.40165C57.014 4.36883 57.0186 4.33409 57.016 4.29949C57.0137 4.23072 56.9841 4.16564 56.9338 4.11829C56.8836 4.07094 56.8166 4.04511 56.7474 4.04636H56.7381ZM58.0909 4.29028C58.0896 4.32512 58.0953 4.35984 58.1078 4.39243C58.1202 4.42503 58.139 4.45484 58.1632 4.48012C58.1874 4.50539 58.2163 4.52564 58.2485 4.53967C58.2806 4.5537 58.3151 4.56123 58.3502 4.56181C58.8737 4.56181 59.4019 4.61705 59.9207 4.67227H59.9486C60.0108 4.66375 60.0682 4.63378 60.1105 4.5876C60.1528 4.54141 60.1775 4.48194 60.1803 4.41954C60.183 4.35713 60.1636 4.29573 60.1256 4.24604C60.0875 4.19636 60.033 4.16152 59.9717 4.14761C59.4389 4.08778 58.8969 4.05096 58.3595 4.03715C58.2903 4.03591 58.2233 4.06174 58.173 4.10909C58.1228 4.15644 58.0932 4.22151 58.0909 4.29028Z" fill="white"/>
</svg>
