<svg width="16" height="18" viewBox="0 0 16 18" fill="none" xmlns="http://www.w3.org/2000/svg">
<path d="M14.0117 15.75V6.01172H1.98828V15.75H14.0117ZM14.0117 2.25C14.4102 2.25 14.75 2.40234 15.0312 2.70703C15.3359 3.01172 15.4883 3.36328 15.4883 3.76172V15.75C15.4883 16.1484 15.3359 16.5 15.0312 16.8047C14.75 17.1094 14.4102 17.2617 14.0117 17.2617H1.98828C1.58984 17.2617 1.23828 17.1094 0.933594 16.8047C0.652344 16.5 0.511719 16.1484 0.511719 15.75V3.76172C0.511719 3.36328 0.652344 3.01172 0.933594 2.70703C1.23828 2.40234 1.58984 2.25 1.98828 2.25H2.76172V0.738281H4.23828V2.25H11.7617V0.738281H13.2383V2.25H14.0117Z" fill="#3A3C4E"/>
</svg>
