<svg width="15" height="19" viewBox="0 0 15 19" fill="none" xmlns="http://www.w3.org/2000/svg">
<g clip-path="url(#clip0_2728_61176)">
<path d="M1.27169 8.13082C1.27169 12.9243 7.43473 17.033 7.43473 17.033C7.43473 17.033 13.5978 12.9243 13.5978 8.13082C13.5978 6.49628 12.9485 4.92868 11.7927 3.77289C10.6369 2.61709 9.06928 1.96777 7.43473 1.96777C5.80019 1.96777 4.2326 2.61709 3.07681 3.77289C1.92101 4.92868 1.27169 6.49628 1.27169 8.13082Z" stroke="#3A3C4E" stroke-width="1.5" stroke-linecap="round" stroke-linejoin="round"/>
<path d="M7.43467 10.1849C6.30008 10.1849 5.38032 9.26511 5.38032 8.13052C5.38032 6.99593 6.30008 6.07617 7.43467 6.07617C8.56925 6.07617 9.48901 6.99593 9.48901 8.13052C9.48901 9.26511 8.56925 10.1849 7.43467 10.1849Z" stroke="#3A3C4E" stroke-width="1.5" stroke-linecap="round" stroke-linejoin="round"/>
</g>
<defs>
<clipPath id="clip0_2728_61176">
<rect width="14.8696" height="18" fill="white" transform="matrix(-1 0 0 1 14.8695 0.5)"/>
</clipPath>
</defs>
</svg>
