<svg width="14" height="20" viewBox="0 0 14 20" fill="none" xmlns="http://www.w3.org/2000/svg">
<path d="M5.36719 8.88281C5.82552 9.3125 6.36979 9.52734 7 9.52734C7.63021 9.52734 8.16016 9.3125 8.58984 8.88281C9.04818 8.42448 9.27734 7.88021 9.27734 7.25C9.27734 6.61979 9.04818 6.08984 8.58984 5.66016C8.16016 5.20182 7.63021 4.97266 7 4.97266C6.36979 4.97266 5.82552 5.20182 5.36719 5.66016C4.9375 6.08984 4.72266 6.61979 4.72266 7.25C4.72266 7.88021 4.9375 8.42448 5.36719 8.88281ZM2.44531 2.73828C3.70573 1.47786 5.22396 0.847656 7 0.847656C8.77604 0.847656 10.2799 1.47786 11.5117 2.73828C12.7721 3.97005 13.4023 5.47396 13.4023 7.25C13.4023 8.13802 13.1732 9.15495 12.7148 10.3008C12.2852 11.4466 11.7552 12.5208 11.125 13.5234C10.4948 14.526 9.86458 15.4714 9.23438 16.3594C8.63281 17.2188 8.11719 17.9062 7.6875 18.4219L7 19.1523C6.82812 18.9518 6.59896 18.694 6.3125 18.3789C6.02604 18.0352 5.51042 17.3763 4.76562 16.4023C4.02083 15.3997 3.36198 14.4401 2.78906 13.5234C2.24479 12.5781 1.74349 11.5182 1.28516 10.3438C0.826823 9.16927 0.597656 8.13802 0.597656 7.25C0.597656 5.47396 1.21354 3.97005 2.44531 2.73828Z" fill="#9F31F0"/>
</svg>
