<svg width="39" height="39" viewBox="0 0 39 39" fill="none" xmlns="http://www.w3.org/2000/svg">
<rect y="0.00012207" width="39" height="39" rx="10" fill="white"/>
<g clip-path="url(#clip0_6155_24414)">
<path d="M15.8406 18.1722C15.9449 18.1551 16.0447 18.1171 16.1339 18.0606C16.2232 18.0041 16.3002 17.9302 16.3603 17.8433C16.4205 17.7564 16.4625 17.6583 16.4839 17.5548C16.5053 17.4514 16.5056 17.3446 16.4849 17.241C16.4642 17.1374 16.4228 17.039 16.3632 16.9517C16.3037 16.8644 16.2272 16.79 16.1383 16.7329C16.0493 16.6759 15.9498 16.6372 15.8457 16.6194C15.7415 16.6016 15.6349 16.6049 15.532 16.6292C14.5842 16.8181 13.8683 17.4805 13.4872 18.3696C13.1093 19.2503 13.0537 20.3493 13.3487 21.5281C13.4018 21.728 13.5314 21.8989 13.7095 22.004C13.8877 22.1091 14.1 22.1398 14.3006 22.0896C14.5012 22.0395 14.674 21.9123 14.7817 21.7358C14.8894 21.5592 14.9232 21.3473 14.876 21.146C14.645 20.2254 14.7206 19.4875 14.9337 18.99C15.1436 18.5018 15.4774 18.2447 15.8406 18.1722ZM12.7692 9.96892C12.7245 10.7139 12.8335 11.4602 13.0896 12.1612C13.3456 12.8623 13.7433 13.5031 14.2577 14.0438C13.2577 14.3305 12.3625 14.9013 11.6805 15.6868C10.9985 16.4724 10.5592 17.439 10.4158 18.4693C10.071 20.9418 10.5789 23.458 11.856 25.603L12.2234 26.2223C12.2373 26.2451 12.2524 26.2672 12.2685 26.2884L13.7549 28.2902C14.0698 28.7142 14.4733 29.0644 14.9374 29.3165C15.4014 29.5686 15.9149 29.7166 16.4419 29.7501C16.969 29.7835 17.497 29.7017 17.9892 29.5103C18.4814 29.3189 18.926 29.0226 19.292 28.6418C19.3348 28.5973 19.3862 28.5619 19.443 28.5377C19.4998 28.5135 19.5609 28.5011 19.6227 28.5011C19.6844 28.5011 19.7455 28.5135 19.8024 28.5377C19.8592 28.5619 19.9105 28.5973 19.9533 28.6418C20.3193 29.0226 20.7639 29.3189 21.2561 29.5103C21.7484 29.7017 22.2764 29.7835 22.8034 29.7501C23.3305 29.7166 23.8439 29.5686 24.308 29.3165C24.772 29.0644 25.1755 28.7142 25.4904 28.2902L26.9768 26.2884C26.9926 26.2672 27.0073 26.2451 27.0209 26.2223L27.3893 25.603C28.6668 23.4581 29.1751 20.9419 28.8305 18.4693C28.7289 17.7408 28.4788 17.041 28.0958 16.4131C27.7128 15.7852 27.2049 15.2425 26.6037 14.8188C26.0025 14.3951 25.3207 14.0993 24.6005 13.9498C23.8804 13.8002 23.1372 13.8001 22.4169 13.9493L20.4215 14.3629L20.4183 14.364C20.4498 13.5452 20.5779 12.6635 20.8288 11.9087C21.1332 10.9976 21.5552 10.4497 22.0254 10.2544C22.1235 10.2166 22.2131 10.1595 22.2887 10.0864C22.3644 10.0134 22.4247 9.92597 22.466 9.82926C22.5073 9.73256 22.5288 9.62856 22.5293 9.5234C22.5298 9.41824 22.5092 9.31406 22.4687 9.21699C22.4282 9.11993 22.3687 9.03196 22.2937 8.95827C22.2187 8.88458 22.1296 8.82667 22.0319 8.78796C21.9341 8.74924 21.8296 8.73051 21.7244 8.73287C21.6193 8.73522 21.5157 8.75862 21.4197 8.80167C20.3144 9.26143 19.6878 10.3542 19.3351 11.4112L19.2868 11.5603C19.0348 11.0732 18.7052 10.6155 18.2969 10.2062C17.7526 9.66096 17.0987 9.23762 16.3785 8.96419C15.6582 8.69076 14.8881 8.57346 14.1192 8.62007C13.7677 8.64007 13.4359 8.78854 13.1868 9.03724C12.9377 9.28595 12.7887 9.61753 12.7682 9.96892H12.7692ZM14.3364 10.1862C14.8632 10.171 15.3875 10.2637 15.877 10.4587C16.3666 10.6537 16.8111 10.9467 17.1832 11.3199C17.5563 11.692 17.8494 12.1365 18.0444 12.626C18.2393 13.1156 18.3321 13.6399 18.3169 14.1666C18.1265 14.1718 17.936 14.163 17.7469 14.1404L17.0992 14.006C16.4836 13.8224 15.9236 13.4879 15.4701 13.033C15.097 12.6609 14.8039 12.2164 14.6089 11.7268C14.414 11.2372 14.3212 10.7129 14.3364 10.1862ZM16.5082 15.4913L16.7203 15.5354C16.9722 15.6068 17.2283 15.6593 17.4866 15.6939L18.5048 15.9049C19.2422 16.0577 20.0031 16.0577 20.7406 15.9049L22.7371 15.4913C23.2463 15.3858 23.7717 15.3859 24.2809 15.4916C24.79 15.5973 25.272 15.8064 25.6971 16.1059C26.1222 16.4054 26.4813 16.789 26.7521 17.2329C27.023 17.6768 27.1998 18.1716 27.2718 18.6866C27.5669 20.8049 27.1311 22.9605 26.0363 24.7979L25.6888 25.3815L24.2266 27.3518C24.0482 27.5922 23.8195 27.7907 23.5564 27.9337C23.2934 28.0766 23.0024 28.1605 22.7036 28.1795C22.4048 28.1985 22.1055 28.1521 21.8265 28.0436C21.5475 27.9351 21.2955 27.7671 21.088 27.5512C20.8983 27.354 20.6708 27.1971 20.419 27.0899C20.1672 26.9827 19.8963 26.9275 19.6227 26.9275C19.349 26.9275 19.0782 26.9827 18.8264 27.0899C18.5746 27.1971 18.347 27.354 18.1573 27.5512C17.9499 27.7671 17.6979 27.9351 17.4189 28.0436C17.1398 28.1521 16.8405 28.1985 16.5418 28.1795C16.243 28.1605 15.952 28.0766 15.6889 27.9337C15.4259 27.7907 15.1972 27.5922 15.0187 27.3518L13.5565 25.3815L13.208 24.7979C12.114 22.9603 11.679 20.8047 11.9746 18.6866C12.0466 18.1717 12.2234 17.677 12.4942 17.2332C12.765 16.7894 13.1239 16.4059 13.5489 16.1064C13.9739 15.8068 14.4558 15.5977 14.9648 15.4919C15.4738 15.3862 15.9991 15.3859 16.5082 15.4913Z" fill="#9F31F0"/>
</g>
<defs>
<clipPath id="clip0_6155_24414">
<rect width="18.8944" height="22.0435" fill="white" transform="translate(10.1738 8.47839)"/>
</clipPath>
</defs>
</svg>
