<svg width="39" height="39" viewBox="0 0 39 39" fill="none" xmlns="http://www.w3.org/2000/svg">
<rect y="0.00012207" width="39" height="39" rx="10" fill="white"/>
<g clip-path="url(#clip0_6155_24419)">
<path d="M26.3426 28.9776C26.3426 29.3622 26.0308 29.674 25.6462 29.674C25.2616 29.674 24.9498 29.3622 24.9498 28.9776V27.5847C24.9487 26.6615 24.5815 25.7765 23.9287 25.1237C23.2759 24.4709 22.3908 24.1037 21.4676 24.1026H17.2891C16.3659 24.1037 15.4808 24.4709 14.828 25.1237C14.1752 25.7765 13.808 26.6615 13.8069 27.5847V28.9776C13.8069 29.3622 13.4951 29.674 13.1105 29.674C12.7259 29.674 12.4141 29.3622 12.4141 28.9776V27.5847C12.4155 26.2922 12.9296 25.0531 13.8435 24.1392C14.7575 23.2253 15.9966 22.7112 17.2891 22.7097H21.4676C22.7601 22.7112 23.9992 23.2253 24.9132 24.1392C25.8271 25.0531 26.3412 26.2922 26.3426 27.5847V28.9776Z" fill="#9F31F0"/>
<path d="M11.7179 12.9597C11.5332 12.9597 11.3561 13.0331 11.2255 13.1637C11.0949 13.2943 11.0215 13.4714 11.0215 13.6561V19.2276C11.0215 19.6122 11.3333 19.924 11.7179 19.924C12.1025 19.924 12.4143 19.6122 12.4143 19.2276V13.6561C12.4143 13.4714 12.341 13.2943 12.2104 13.1637C12.0798 13.0331 11.9026 12.9597 11.7179 12.9597Z" fill="#9F31F0"/>
<path d="M11.7179 10.174C11.3333 10.174 11.0215 10.4858 11.0215 10.8704C11.0215 11.255 11.3333 11.5668 11.7179 11.5668H13.5036C14.0559 11.5668 14.5036 12.0145 14.5036 12.5668V16.4418C14.5036 17.7347 15.0172 18.9747 15.9315 19.889C16.8457 20.8032 18.0857 21.3168 19.3786 21.3168C20.6716 21.3168 21.9115 20.8032 22.8258 19.889C23.74 18.9747 24.2536 17.7347 24.2536 16.4418V12.5668C24.2536 12.0145 24.7013 11.5668 25.2536 11.5668H27.0393C27.424 11.5668 27.7358 11.255 27.7358 10.8704C27.7358 10.4858 27.424 10.174 27.0393 10.174H11.7179ZM15.8965 12.5668C15.8965 12.0145 16.3442 11.5668 16.8965 11.5668H21.8608C22.4131 11.5668 22.8608 12.0145 22.8608 12.5668V12.6561C22.8608 13.2084 22.4131 13.6561 21.8608 13.6561H16.8965C16.3442 13.6561 15.8965 13.2084 15.8965 12.6561V12.5668ZM19.3786 19.924C18.4551 19.924 17.5694 19.5571 16.9164 18.9041C16.2634 18.251 15.8965 17.3653 15.8965 16.4418V16.049C15.8965 15.4967 16.3442 15.049 16.8965 15.049H21.8608C22.4131 15.049 22.8608 15.4967 22.8608 16.049V16.4418C22.8608 17.3653 22.4939 18.251 21.8409 18.9041C21.1878 19.5571 20.3021 19.924 19.3786 19.924Z" fill="#9F31F0"/>
</g>
<defs>
<clipPath id="clip0_6155_24419">
<rect width="16.7143" height="19.5" fill="white" transform="translate(11.0215 10.174)"/>
</clipPath>
</defs>
</svg>
