<svg width="39" height="39" viewBox="0 0 39 39" fill="none" xmlns="http://www.w3.org/2000/svg">
<rect width="39" height="39" rx="10" fill="white"/>
<g clip-path="url(#clip0_6155_24425)">
<path d="M21.2508 16.6717C21.3207 16.5967 21.4049 16.5366 21.4985 16.4949C21.5921 16.4532 21.6931 16.4308 21.7956 16.429C21.8981 16.4271 21.9998 16.446 22.0948 16.4844C22.1898 16.5227 22.2762 16.5799 22.3486 16.6523C22.4211 16.7248 22.4782 16.8111 22.5166 16.9061C22.5549 17.0011 22.5738 17.1029 22.572 17.2053C22.5702 17.3078 22.5478 17.4088 22.506 17.5024C22.4643 17.596 22.4042 17.6803 22.3292 17.7501L17.751 22.3284C17.6811 22.4034 17.5969 22.4635 17.5033 22.5052C17.4097 22.5469 17.3086 22.5693 17.2062 22.5711C17.1037 22.5729 17.002 22.5541 16.907 22.5157C16.8119 22.4773 16.7256 22.4202 16.6532 22.3478C16.5807 22.2753 16.5236 22.189 16.4852 22.094C16.4468 21.999 16.428 21.8972 16.4298 21.7947C16.4316 21.6923 16.454 21.5912 16.4957 21.4977C16.5374 21.4041 16.5976 21.3198 16.6725 21.25L21.2508 16.6717Z" fill="#9F31F0"/>
<path d="M25.3501 9.32617C26.4969 9.32617 27.5967 9.78173 28.4076 10.5926C29.2184 11.4035 29.674 12.5033 29.674 13.6501V14.6675C29.674 22.9551 22.9551 29.674 14.6675 29.674H13.6501C12.5033 29.674 11.4035 29.2184 10.5926 28.4076C9.78173 27.5967 9.32617 26.4969 9.32617 25.3501V24.3327C9.32617 16.045 16.045 9.32617 24.3327 9.32617H25.3501ZM28.1479 13.6501C28.1479 12.9081 27.8531 12.1964 27.3284 11.6717C26.8038 11.147 26.0921 10.8523 25.3501 10.8523H24.3327C23.9227 10.8523 23.5167 10.8706 23.1159 10.9062L28.094 15.8843C28.1296 15.4834 28.1479 15.0775 28.1479 14.6675V13.6501ZM27.7949 17.7441L21.2561 11.2053C18.7949 11.7842 16.5457 13.0425 14.7646 14.8371C12.9835 16.6316 11.7422 18.8903 11.1819 21.3558L17.6444 27.8183C20.1099 27.2581 22.3686 26.0168 24.1632 24.2357C25.9578 22.4546 27.2161 20.2053 27.7949 17.7441ZM10.896 23.2288C10.8675 23.5931 10.8523 23.9613 10.8523 24.3327V25.3501C10.8523 26.0921 11.147 26.8038 11.6717 27.3284C12.1964 27.8531 12.9081 28.1479 13.6501 28.1479H14.6675C15.0388 28.1479 15.4071 28.1327 15.7713 28.1031L10.897 23.2288H10.896Z" fill="#9F31F0"/>
</g>
<defs>
<clipPath id="clip0_6155_24425">
<rect width="20.3478" height="20.3478" fill="white" transform="translate(9.32617 9.32617)"/>
</clipPath>
</defs>
</svg>
