<svg width="37" height="37" viewBox="0 0 37 37" fill="none" xmlns="http://www.w3.org/2000/svg">
<path d="M9.80972 0.854417C10.1036 0.775674 10.4167 0.816897 10.6802 0.969018C10.9437 1.12114 11.1359 1.3717 11.2147 1.66557L12.4023 6.0978C12.481 6.39167 12.4398 6.70479 12.2877 6.96827C12.1356 7.23176 11.885 7.42402 11.5911 7.50276C11.2973 7.5815 10.9841 7.54028 10.7207 7.38816C10.4572 7.23604 10.2649 6.98548 10.1862 6.69161L8.99857 2.25938C8.91982 1.9655 8.96105 1.65238 9.11317 1.3889C9.26529 1.12542 9.51584 0.933161 9.80972 0.854417ZM2.14506 6.73227C2.22034 6.6015 2.32068 6.48686 2.44033 6.39493C2.55998 6.303 2.69659 6.23558 2.84234 6.19652C2.98809 6.15747 3.14011 6.14756 3.2897 6.16735C3.43928 6.18714 3.58349 6.23624 3.71407 6.31185L7.68789 8.60801C7.82111 8.68187 7.93829 8.78152 8.03258 8.90115C8.12688 9.02077 8.19641 9.15798 8.23711 9.30477C8.27781 9.45155 8.28887 9.60497 8.26964 9.75607C8.25042 9.90718 8.20129 10.0529 8.12513 10.1849C8.04897 10.3168 7.9473 10.4322 7.82605 10.5244C7.7048 10.6166 7.56641 10.6837 7.41894 10.7219C7.27147 10.76 7.11788 10.7684 6.96713 10.7466C6.81638 10.7247 6.67149 10.6731 6.54092 10.5946L2.56769 8.30068C2.30429 8.14855 2.11209 7.89803 2.03336 7.60421C1.95463 7.3104 1.99582 6.99734 2.14787 6.73389L2.14506 6.73227ZM19.3864 2.11246C19.5172 2.18773 19.6318 2.28807 19.7238 2.40772C19.8157 2.52737 19.8831 2.66399 19.9222 2.80973C19.9612 2.95548 19.9711 3.1075 19.9513 3.25709C19.9316 3.40667 19.8825 3.55089 19.8068 3.68146L17.5085 7.65588C17.4346 7.7891 17.335 7.90627 17.2153 8.00057C17.0957 8.09487 16.9585 8.16439 16.8117 8.20509C16.6649 8.24579 16.5115 8.25685 16.3604 8.23763C16.2093 8.2184 16.0635 8.16928 15.9316 8.09311C15.7997 8.01695 15.6843 7.91528 15.5921 7.79403C15.4999 7.67279 15.4327 7.53439 15.3946 7.38692C15.3565 7.23945 15.3481 7.08586 15.3699 6.93511C15.3918 6.78437 15.4434 6.63948 15.5219 6.50891L17.8158 2.53568C17.9679 2.27227 18.2184 2.08007 18.5123 2.00135C18.8061 1.92262 19.1191 1.96381 19.3826 2.11586L19.3864 2.11246ZM0.887026 16.309C0.808283 16.0151 0.849506 15.702 1.00163 15.4385C1.15375 15.175 1.40431 14.9828 1.69818 14.904L6.13041 13.7164C6.42428 13.6377 6.7374 13.6789 7.00088 13.831C7.26436 13.9831 7.45662 14.2337 7.53537 14.5276C7.61411 14.8214 7.57289 15.1346 7.42077 15.398C7.26865 15.6615 7.01809 15.8538 6.72421 15.9325L2.29199 17.1201C1.99811 17.1989 1.68499 17.1577 1.42151 17.0055C1.15803 16.8534 0.96577 16.6029 0.887026 16.309ZM15.4833 11.9229C15.0877 11.7402 14.6482 11.6739 14.2163 11.7318C13.7844 11.7897 13.378 11.9694 13.0445 12.2499C12.711 12.5303 12.4643 12.9 12.3332 13.3155C12.2021 13.7311 12.1921 14.1754 12.3043 14.5965L17.7085 34.7653C18.2572 36.813 21.05 37.086 21.9847 35.1848L25.0993 28.8492C25.3161 28.4095 25.6245 28.0211 26.0037 27.7102C26.3828 27.3992 26.8241 27.1729 27.2978 27.0464L34.4138 25.1397C36.4858 24.5845 36.7307 21.7399 34.7822 20.8416L15.4827 11.9207L15.4833 11.9229ZM19.9258 34.176L14.5204 14.0027L33.82 22.9236L26.704 24.8303C25.9141 25.0418 25.1785 25.4199 24.5466 25.939C23.9147 26.4582 23.4012 27.1065 23.0404 27.8404L19.9252 34.1737L19.9258 34.176Z" fill="#A54CE6"/>
<path d="M19.9252 34.1737L14.5204 14.0027L33.82 22.9236L26.704 24.8303C25.9141 25.0418 25.1785 25.4199 24.5466 25.939C23.9147 26.4582 23.4012 27.1065 23.0404 27.8404L19.9252 34.1737Z" fill="#A54CE6"/>
</svg>
